{
.appVersion = "1286";
DisplayStrings = (
"/a-hira"
);
copyright = MIT;
customParameters = (
{
name = localizedFamilyName;
value = "Japanese;Kugane";
}
);
date = "2020-04-30 22:17:57 +0000";
designer = "Gelehrte Crest";
designerURL = "http://www.gelehrte.com";
familyName = "@Kugane";
featurePrefixes = (
{
code = "";
name = Languagesystems;
}
);
features = (
{
code = "";
name = aalt;
},
{
code = "";
name = vert;
},
{
code = "";
name = vkna;
},
{
code = "";
name = vrt2;
}
);
fontMaster = (
{
ascender = 800;
capHeight = 700;
descender = -200;
id = "1305C52C-0BD1-483E-A343-C05F3AFF2931";
xHeight = 500;
}
);
glyphs = (
{
glyphname = "a-hira";
lastChange = "2020-04-30 23:43:04 +0000";
layers = (
{
layerId = "1305C52C-0BD1-483E-A343-C05F3AFF2931";
paths = (
{
closed = 1;
nodes = (
"30 310 OFFCURVE",
"79 426 OFFCURVE",
"103 452 CURVE",
"115 466 OFFCURVE",
"153 472 OFFCURVE",
"164 465 CURVE",
"174 459 OFFCURVE",
"159 440 OFFCURVE",
"168 431 CURVE",
"178 421 OFFCURVE",
"206 413 OFFCURVE",
"224 412 CURVE",
"279 410 OFFCURVE",
"506 405 OFFCURVE",
"506 405 CURVE",
"506 405 OFFCURVE",
"457 472 OFFCURVE",
"430 487 CURVE",
"406 500 OFFCURVE",
"342 494 OFFCURVE",
"342 494 CURVE",
"342 494 OFFCURVE",
"390 576 OFFCURVE",
"413 593 CURVE",
"432 606 OFFCURVE",
"472 599 OFFCURVE",
"484 590 CURVE",
"496 582 OFFCURVE",
"493 565 OFFCURVE",
"496 545 CURVE",
"500 512 OFFCURVE",
"557 407 OFFCURVE",
"557 407 CURVE",
"557 407 OFFCURVE",
"773 405 OFFCURVE",
"827 406 CURVE",
"851 406 OFFCURVE",
"880 415 OFFCURVE",
"888 409 CURVE",
"896 402 OFFCURVE",
"887 378 OFFCURVE",
"874 367 CURVE",
"862 357 OFFCURVE",
"818 348 OFFCURVE",
"808 352 CURVE",
"799 355 OFFCURVE",
"796 362 OFFCURVE",
"787 363 CURVE",
"747 366 OFFCURVE",
"571 369 OFFCURVE",
"571 369 CURVE",
"571 369 OFFCURVE",
"605 286 OFFCURVE",
"619 243 CURVE",
"633 198 OFFCURVE",
"656 99 OFFCURVE",
"656 99 CURVE",
"656 99 OFFCURVE",
"609 210 OFFCURVE",
"588 255 CURVE",
"569 294 OFFCURVE",
"524 369 OFFCURVE",
"524 369 CURVE",
"524 369 OFFCURVE",
"246 367 OFFCURVE",
"170 365 CURVE",
"131 365 OFFCURVE",
"91 317 OFFCURVE",
"69 306 CURVE",
"62 303 OFFCURVE",
"30 310 OFFCURVE",
"30 310 CURVE"
);
}
);
width = 921;
}
);
unicode = 3042;
},
{
glyphname = "asmall-hira";
lastChange = "2020-04-30 23:42:58 +0000";
layers = (
{
layerId = "1305C52C-0BD1-483E-A343-C05F3AFF2931";
paths = (
{
closed = 1;
nodes = (
"31 418 LINE",
"28 421 OFFCURVE",
"31 434 OFFCURVE",
"35 440 CURVE",
"45 455 OFFCURVE",
"81 510 OFFCURVE",
"99 508 CURVE",
"114 507 OFFCURVE",
"111 464 OFFCURVE",
"126 464 CURVE",
"165 464 OFFCURVE",
"300 463 OFFCURVE",
"330 462 CURVE",
"341 462 OFFCURVE",
"311 437 OFFCURVE",
"311 437 CURVE",
"311 437 OFFCURVE",
"121 438 OFFCURVE",
"76 439 CURVE",
"66 439 OFFCURVE",
"64 426 OFFCURVE",
"56 422 CURVE",
"49 419 OFFCURVE",
"34 414 OFFCURVE",
"31 418 CURVE"
);
},
{
closed = 1;
nodes = (
"274 447 LINE",
"315 449 LINE",
"315 449 OFFCURVE",
"309 407 OFFCURVE",
"300 393 CURVE",
"291 379 OFFCURVE",
"276 362 OFFCURVE",
"260 363 CURVE",
"234 364 OFFCURVE",
"200 399 OFFCURVE",
"185 428 CURVE",
"169 459 OFFCURVE",
"164 530 OFFCURVE",
"189 545 CURVE",
"239 576 OFFCURVE",
"296 540 OFFCURVE",
"350 497 CURVE",
"449 418 OFFCURVE",
"455 311 OFFCURVE",
"455 311 CURVE",
"455 311 OFFCURVE",
"405 412 OFFCURVE",
"358 456 CURVE",
"320 490 OFFCURVE",
"249 529 OFFCURVE",
"221 527 CURVE",
"200 526 OFFCURVE",
"181 505 OFFCURVE",
"184 471 CURVE",
"186 449 OFFCURVE",
"212 399 OFFCURVE",
"249 398 CURVE",
"260 397 OFFCURVE",
"271 409 OFFCURVE",
"274 418 CURVE",
"277 427 OFFCURVE",
"274 447 OFFCURVE",
"274 447 CURVE"
);
}
);
width = 485;
}
);
unicode = 3041;
},
{
glyphname = "i-hira";
lastChange = "2020-04-30 23:42:52 +0000";
layers = (
{
layerId = "1305C52C-0BD1-483E-A343-C05F3AFF2931";
paths = (
{
closed = 1;
nodes = (
"203 334 OFFCURVE",
"234 437 OFFCURVE",
"262 459 CURVE",
"279 472 OFFCURVE",
"307 473 OFFCURVE",
"326 456 CURVE",
"335 449 OFFCURVE",
"330 423 OFFCURVE",
"326 407 CURVE",
"324 397 OFFCURVE",
"320 393 OFFCURVE",
"319 380 CURVE",
"317 366 OFFCURVE",
"335 334 OFFCURVE",
"367 318 CURVE",
"401 300 OFFCURVE",
"482 290 OFFCURVE",
"531 303 CURVE",
"581 316 OFFCURVE",
"638 351 OFFCURVE",
"672 395 CURVE",
"735 475 OFFCURVE",
"733 597 OFFCURVE",
"751 601 CURVE",
"783 607 OFFCURVE",
"757 448 OFFCURVE",
"686 362 CURVE",
"643 311 OFFCURVE",
"570 269 OFFCURVE",
"520 255 CURVE",
"478 243 OFFCURVE",
"427 248 OFFCURVE",
"385 256 CURVE",
"339 265 OFFCURVE",
"240 336 OFFCURVE",
"240 336 CURVE",
"203 334 LINE"
);
},
{
closed = 1;
nodes = (
"30 99 OFFCURVE",
"28 164 OFFCURVE",
"48 207 CURVE",
"58 228 OFFCURVE",
"87 270 OFFCURVE",
"101 279 CURVE",
"111 286 OFFCURVE",
"129 279 OFFCURVE",
"136 273 CURVE",
"144 266 OFFCURVE",
"139 246 OFFCURVE",
"144 239 CURVE",
"149 231 OFFCURVE",
"163 224 OFFCURVE",
"172 223 CURVE",
"280 218 OFFCURVE",
"652 215 OFFCURVE",
"763 214 CURVE",
"785 213 OFFCURVE",
"809 244 OFFCURVE",
"826 243 CURVE",
"851 242 OFFCURVE",
"869 236 OFFCURVE",
"867 217 CURVE",
"864 191 OFFCURVE",
"836 162 OFFCURVE",
"803 164 CURVE",
"778 165 OFFCURVE",
"778 181 OFFCURVE",
"758 181 CURVE",
"658 183 OFFCURVE",
"278 184 OFFCURVE",
"172 185 CURVE",
"153 186 OFFCURVE",
"134 178 OFFCURVE",
"118 169 CURVE",
"94 155 OFFCURVE",
"30 99 OFFCURVE",
"30 99 CURVE"
);
}
);
width = 897;
}
);
unicode = 3044;
},
{
glyphname = "ismall-hira";
lastChange = "2020-04-30 23:42:45 +0000";
layers = (
{
layerId = "1305C52C-0BD1-483E-A343-C05F3AFF2931";
paths = (
{
closed = 1;
nodes = (
"32 308 LINE",
"25 310 OFFCURVE",
"35 352 OFFCURVE",
"44 368 CURVE",
"53 384 OFFCURVE",
"74 402 OFFCURVE",
"86 402 CURVE",
"98 402 OFFCURVE",
"103 370 OFFCURVE",
"116 370 CURVE",
"138 369 OFFCURVE",
"191 368 OFFCURVE",
"217 368 CURVE",
"233 368 OFFCURVE",
"259 394 OFFCURVE",
"259 394 CURVE",
"296 374 LINE",
"296 374 OFFCURVE",
"270 339 OFFCURVE",
"255 338 CURVE",
"218 338 OFFCURVE",
"123 344 OFFCURVE",
"86 343 CURVE",
"64 342 OFFCURVE",
"42 304 OFFCURVE",
"32 308 CURVE"
);
},
{
closed = 1;
nodes = (
"161 441 LINE",
"156 449 OFFCURVE",
"163 474 OFFCURVE",
"171 484 CURVE",
"178 494 OFFCURVE",
"195 501 OFFCURVE",
"205 501 CURVE",
"215 501 OFFCURVE",
"227 490 OFFCURVE",
"227 483 CURVE",
"228 475 OFFCURVE",
"221 465 OFFCURVE",
"221 455 CURVE",
"222 432 OFFCURVE",
"278 390 OFFCURVE",
"325 382 CURVE",
"380 373 OFFCURVE",
"415 400 OFFCURVE",
"420 439 CURVE",
"422 465 OFFCURVE",
"414 522 OFFCURVE",
"414 522 CURVE",
"414 522 OFFCURVE",
"448 476 OFFCURVE",
"446 448 CURVE",
"441 380 OFFCURVE",
"375 354 OFFCURVE",
"332 355 CURVE",
"237 358 OFFCURVE",
"209 413 OFFCURVE",
"185 432 CURVE",
"179 437 OFFCURVE",
"165 435 OFFCURVE",
"161 441 CURVE"
);
}
);
width = 476;
}
);
unicode = 3043;
},
{
glyphname = "u-hira";
lastChange = "2020-04-30 23:42:39 +0000";
layers = (
{
layerId = "1305C52C-0BD1-483E-A343-C05F3AFF2931";
paths = (
{
closed = 1;
nodes = (
"31 261 OFFCURVE",
"43 290 OFFCURVE",
"53 306 CURVE",
"68 328 OFFCURVE",
"94 375 OFFCURVE",
"118 385 CURVE",
"129 390 OFFCURVE",
"152 386 OFFCURVE",
"159 381 CURVE",
"167 375 OFFCURVE",
"170 360 OFFCURVE",
"171 351 CURVE",
"171 342 OFFCURVE",
"165 332 OFFCURVE",
"165 326 CURVE",
"166 320 OFFCURVE",
"178 310 OFFCURVE",
"186 310 CURVE",
"238 310 OFFCURVE",
"470 305 OFFCURVE",
"470 305 CURVE",
"470 305 OFFCURVE",
"386 586 OFFCURVE",
"394 588 CURVE",
"409 590 OFFCURVE",
"504 305 OFFCURVE",
"504 305 CURVE",
"504 305 OFFCURVE",
"681 307 OFFCURVE",
"736 306 CURVE",
"754 306 OFFCURVE",
"786 333 OFFCURVE",
"804 333 CURVE",
"822 334 OFFCURVE",
"834 331 OFFCURVE",
"846 329 CURVE",
"859 327 OFFCURVE",
"868 305 OFFCURVE",
"868 292 CURVE",
"868 280 OFFCURVE",
"830 261 OFFCURVE",
"811 261 CURVE",
"753 261 OFFCURVE",
"517 270 OFFCURVE",
"517 270 CURVE",
"517 270 OFFCURVE",
"527 241 OFFCURVE",
"538 231 CURVE",
"548 220 OFFCURVE",
"568 219 OFFCURVE",
"576 207 CURVE",
"583 196 OFFCURVE",
"586 166 OFFCURVE",
"578 153 CURVE",
"568 137 OFFCURVE",
"537 115 OFFCURVE",
"515 112 CURVE",
"492 109 OFFCURVE",
"453 120 OFFCURVE",
"447 133 CURVE",
"441 148 OFFCURVE",
"440 164 OFFCURVE",
"447 171 CURVE",
"454 179 OFFCURVE",
"468 176 OFFCURVE",
"475 184 CURVE",
"486 196 OFFCURVE",
"476 270 OFFCURVE",
"476 270 CURVE",
"476 270 OFFCURVE",
"256 271 OFFCURVE",
"194 270 CURVE",
"166 270 OFFCURVE",
"134 266 OFFCURVE",
"110 260 CURVE",
"88 255 OFFCURVE",
"61 236 OFFCURVE",
"48 234 CURVE",
"40 233 OFFCURVE",
"30 243 OFFCURVE",
"30 250 CURVE"
);
}
);
width = 898;
}
);
unicode = 3046;
},
{
glyphname = "usmall-hira";
lastChange = "2020-04-30 23:42:31 +0000";
layers = (
{
layerId = "1305C52C-0BD1-483E-A343-C05F3AFF2931";
paths = (
{
closed = 1;
nodes = (
"367 303 LINE",
"362 308 OFFCURVE",
"369 324 OFFCURVE",
"373 332 CURVE",
"376 340 OFFCURVE",
"389 351 OFFCURVE",
"386 359 CURVE",
"379 380 OFFCURVE",
"360 426 OFFCURVE",
"346 459 CURVE",
"329 496 OFFCURVE",
"286 582 OFFCURVE",
"286 582 CURVE",
"286 582 OFFCURVE",
"314 551 OFFCURVE",
"364 476 CURVE",
"384 446 OFFCURVE",
"405 402 OFFCURVE",
"419 383 CURVE",
"427 372 OFFCURVE",
"444 374 OFFCURVE",
"448 366 CURVE",
"453 357 OFFCURVE",
"430 335 OFFCURVE",
"416 325 CURVE",
"403 314 OFFCURVE",
"371 297 OFFCURVE",
"367 303 CURVE"
);
},
{
closed = 1;
nodes = (
"30 402 LINE",
"34 416 OFFCURVE",
"69 470 OFFCURVE",
"86 481 CURVE",
"103 492 OFFCURVE",
"118 459 OFFCURVE",
"134 459 CURVE",
"163 458 OFFCURVE",
"230 457 OFFCURVE",
"257 458 CURVE",
"271 458 OFFCURVE",
"285 464 OFFCURVE",
"297 464 CURVE",
"317 463 OFFCURVE",
"334 455 OFFCURVE",
"334 448 CURVE",
"334 441 OFFCURVE",
"304 433 OFFCURVE",
"291 426 CURVE",
"274 416 OFFCURVE",
"250 403 OFFCURVE",
"235 396 CURVE",
"225 392 OFFCURVE",
"203 387 OFFCURVE",
"203 387 CURVE",
"203 387 OFFCURVE",
"220 402 OFFCURVE",
"228 409 CURVE",
"234 416 OFFCURVE",
"251 434 OFFCURVE",
"251 434 CURVE",
"251 434 OFFCURVE",
"161 432 OFFCURVE",
"134 432 CURVE",
"120 433 OFFCURVE",
"100 430 OFFCURVE",
"88 424 CURVE",
"78 419 OFFCURVE",
"70 407 OFFCURVE",
"61 403 CURVE",
"51 399 OFFCURVE",
"27 392 OFFCURVE",
"30 402 CURVE"
);
}
);
width = 479;
}
);
unicode = 3045;
},
{
glyphname = "e-hira";
lastChange = "2020-04-30 23:42:24 +0000";
layers = (
{
layerId = "1305C52C-0BD1-483E-A343-C05F3AFF2931";
paths = (
{
closed = 1;
nodes = (
"689 152 OFFCURVE",
"665 174 OFFCURVE",
"625 227 CURVE SMOOTH",
"591 272 OFFCURVE",
"570 348 OFFCURVE",
"570 348 CURVE",
"275 346 LINE",
"275 346 OFFCURVE",
"233 260 OFFCURVE",
"216 241 CURVE",
"208 231 OFFCURVE",
"188 226 OFFCURVE",
"176 229 CURVE",
"133 242 OFFCURVE",
"122 292 OFFCURVE",
"98 311 CURVE SMOOTH",
"80 325 OFFCURVE",
"41 276 OFFCURVE",
"33 285 CURVE",
"25 293 OFFCURVE",
"35 347 OFFCURVE",
"44 369 CURVE SMOOTH",
"53 392 OFFCURVE",
"72 416 OFFCURVE",
"88 426 CURVE SMOOTH",
"99 433 OFFCURVE",
"127 437 OFFCURVE",
"138 431 CURVE SMOOTH",
"149 425 OFFCURVE",
"159 401 OFFCURVE",
"171 396 CURVE",
"192 389 OFFCURVE",
"268 384 OFFCURVE",
"268 384 CURVE SMOOTH",
"268 384 OFFCURVE",
"360 547 OFFCURVE",
"444 567 CURVE SMOOTH",
"473 574 OFFCURVE",
"516 573 OFFCURVE",
"543 564 CURVE SMOOTH",
"569 555 OFFCURVE",
"587 534 OFFCURVE",
"598 510 CURVE SMOOTH",
"610 483 OFFCURVE",
"602 465 OFFCURVE",
"603 438 CURVE SMOOTH",
"604 407 OFFCURVE",
"609 379 OFFCURVE",
"609 379 CURVE SMOOTH",
"609 379 OFFCURVE",
"762 378 OFFCURVE",
"806 379 CURVE",
"822 380 OFFCURVE",
"827 399 OFFCURVE",
"850 400 CURVE SMOOTH",
"867 401 OFFCURVE",
"876 401 OFFCURVE",
"878 387 CURVE",
"879 372 OFFCURVE",
"845 338 OFFCURVE",
"829 333 CURVE",
"792 324 OFFCURVE",
"776 348 OFFCURVE",
"762 348 CURVE SMOOTH",
"734 348 OFFCURVE",
"615 347 OFFCURVE",
"615 348 CURVE SMOOTH",
"615 348 OFFCURVE",
"635 277 OFFCURVE",
"652 243 CURVE SMOOTH",
"675 197 OFFCURVE",
"703 169 OFFCURVE",
"744 154 CURVE SMOOTH",
"769 145 OFFCURVE",
"814 148 OFFCURVE",
"814 139 CURVE",
"815 128 OFFCURVE",
"758 123 OFFCURVE",
"732 134 CURVE SMOOTH"
);
},
{
closed = 1;
nodes = (
"199 259 OFFCURVE",
"243 343 OFFCURVE",
"243 343 CURVE SMOOTH",
"243 343 OFFCURVE",
"146 346 OFFCURVE",
"141 327 CURVE SMOOTH",
"137 311 OFFCURVE",
"150 265 OFFCURVE",
"182 261 CURVE SMOOTH"
);
},
{
closed = 1;
nodes = (
"562 379 OFFCURVE",
"541 478 OFFCURVE",
"507 492 CURVE SMOOTH",
"478 504 OFFCURVE",
"442 507 OFFCURVE",
"412 495 CURVE SMOOTH",
"348 469 OFFCURVE",
"298 384 OFFCURVE",
"298 384 CURVE",
"562 380 LINE"
);
}
);
width = 908;
}
);
unicode = 3048;
},
{
glyphname = "esmall-hira";
lastChange = "2020-04-30 23:42:18 +0000";
layers = (
{
layerId = "1305C52C-0BD1-483E-A343-C05F3AFF2931";
paths = (
{
closed = 1;
nodes = (
"30 393 LINE",
"28 400 OFFCURVE",
"35 421 OFFCURVE",
"42 433 CURVE",
"49 446 OFFCURVE",
"64 469 OFFCURVE",
"73 469 CURVE",
"81 469 OFFCURVE",
"87 443 OFFCURVE",
"98 443 CURVE",
"121 443 OFFCURVE",
"190 442 OFFCURVE",
"215 442 CURVE",
"226 443 OFFCURVE",
"241 458 OFFCURVE",
"251 458 CURVE",
"262 458 OFFCURVE",
"272 456 OFFCURVE",
"274 450 CURVE",
"282 417 OFFCURVE",
"242 414 OFFCURVE",
"226 414 CURVE",
"216 414 OFFCURVE",
"213 420 OFFCURVE",
"206 420 CURVE",
"183 421 OFFCURVE",
"115 421 OFFCURVE",
"89 420 CURVE",
"63 419 OFFCURVE",
"63 404 OFFCURVE",
"54 398 CURVE",
"47 394 OFFCURVE",
"32 387 OFFCURVE",
"30 393 CURVE"
);
},
{
closed = 1;
nodes = (
"138 427 LINE",
"138 427 OFFCURVE",
"143 560 OFFCURVE",
"203 557 CURVE",
"253 554 OFFCURVE",
"272 477 OFFCURVE",
"292 433 CURVE",
"357 295 OFFCURVE",
"465 296 OFFCURVE",
"465 296 CURVE",
"465 296 OFFCURVE",
"366 282 OFFCURVE",
"307 368 CURVE",
"274 415 OFFCURVE",
"237 510 OFFCURVE",
"197 510 CURVE",
"156 509 OFFCURVE",
"138 427 OFFCURVE",
"138 427 CURVE"
);
}
);
width = 495;
}
);
unicode = 3047;
},
{
glyphname = "o-hira";
lastChange = "2020-04-30 23:42:12 +0000";
layers = (
{
layerId = "1305C52C-0BD1-483E-A343-C05F3AFF2931";
paths = (
{
closed = 1;
nodes = (
"25 231 OFFCURVE",
"85 300 OFFCURVE",
"104 304 CURVE",
"116 307 OFFCURVE",
"135 309 OFFCURVE",
"146 304 CURVE",
"156 298 OFFCURVE",
"152 268 OFFCURVE",
"165 268 CURVE",
"182 267 OFFCURVE",
"247 267 OFFCURVE",
"247 267 CURVE",
"247 267 OFFCURVE",
"283 359 OFFCURVE",
"363 374 CURVE",
"417 384 OFFCURVE",
"503 387 OFFCURVE",
"557 394 CURVE",
"601 400 OFFCURVE",
"644 440 OFFCURVE",
"642 486 CURVE",
"637 596 OFFCURVE",
"518 634 OFFCURVE",
"520 654 CURVE",
"521 667 OFFCURVE",
"570 653 OFFCURVE",
"594 639 CURVE",
"638 614 OFFCURVE",
"697 549 OFFCURVE",
"697 471 CURVE",
"698 396 OFFCURVE",
"649 327 OFFCURVE",
"586 323 CURVE",
"524 318 OFFCURVE",
"408 325 OFFCURVE",
"356 323 CURVE",
"321 322 OFFCURVE",
"280 267 OFFCURVE",
"280 267 CURVE",
"280 267 OFFCURVE",
"667 264 OFFCURVE",
"765 270 CURVE",
"781 271 OFFCURVE",
"802 285 OFFCURVE",
"824 283 CURVE",
"846 282 OFFCURVE",
"859 271 OFFCURVE",
"862 259 CURVE",
"864 248 OFFCURVE",
"857 228 OFFCURVE",
"842 220 CURVE",
"828 212 OFFCURVE",
"795 213 OFFCURVE",
"780 214 CURVE",
"772 215 OFFCURVE",
"756 229 OFFCURVE",
"739 229 CURVE",
"658 230 OFFCURVE",
"277 233 OFFCURVE",
"277 233 CURVE",
"277 233 OFFCURVE",
"271 198 OFFCURVE",
"310 158 CURVE",
"327 140 OFFCURVE",
"358 126 OFFCURVE",
"376 127 CURVE",
"390 128 OFFCURVE",
"399 140 OFFCURVE",
"417 134 CURVE",
"428 131 OFFCURVE",
"433 92 OFFCURVE",
"427 79 CURVE",
"420 63 OFFCURVE",
"394 42 OFFCURVE",
"370 41 CURVE",
"333 40 OFFCURVE",
"306 67 OFFCURVE",
"301 82 CURVE",
"297 97 OFFCURVE",
"303 103 OFFCURVE",
"298 112 CURVE",
"293 123 OFFCURVE",
"270 143 OFFCURVE",
"260 167 CURVE",
"246 198 OFFCURVE",
"247 234 OFFCURVE",
"247 234 CURVE",
"247 234 OFFCURVE",
"159 235 OFFCURVE",
"138 235 CURVE",
"125 234 OFFCURVE",
"112 217 OFFCURVE",
"99 213 CURVE",
"81 208 OFFCURVE",
"33 198 OFFCURVE",
"30 214 CURVE"
);
}
);
width = 892;
}
);
unicode = 304A;
},
{
glyphname = "osmall-hira";
lastChange = "2020-04-30 23:42:05 +0000";
layers = (
{
layerId = "1305C52C-0BD1-483E-A343-C05F3AFF2931";
paths = (
{
closed = 1;
nodes = (
"32 360 LINE",
"28 363 OFFCURVE",
"32 376 OFFCURVE",
"36 382 CURVE",
"45 397 OFFCURVE",
"76 447 OFFCURVE",
"94 445 CURVE",
"109 444 OFFCURVE",
"112 416 OFFCURVE",
"127 416 CURVE",
"166 416 OFFCURVE",
"324 414 OFFCURVE",
"354 414 CURVE",
"375 414 OFFCURVE",
"329 368 OFFCURVE",
"304 366 CURVE",
"294 365 OFFCURVE",
"293 386 OFFCURVE",
"273 386 CURVE",
"217 388 OFFCURVE",
"124 387 OFFCURVE",
"89 387 CURVE",
"79 387 OFFCURVE",
"65 368 OFFCURVE",
"57 364 CURVE",
"50 361 OFFCURVE",
"35 356 OFFCURVE",
"32 360 CURVE"
);
},
{
closed = 1;
nodes = (
"175 400 LINE",
"176 429 OFFCURVE",
"214 477 OFFCURVE",
"246 477 CURVE",
"277 477 OFFCURVE",
"326 477 OFFCURVE",
"355 478 CURVE",
"382 478 OFFCURVE",
"412 512 OFFCURVE",
"412 536 CURVE",
"413 561 OFFCURVE",
"382 615 OFFCURVE",
"382 615 CURVE",
"382 615 OFFCURVE",
"440 566 OFFCURVE",
"440 534 CURVE",
"441 506 OFFCURVE",
"396 455 OFFCURVE",
"360 455 CURVE",
"322 454 OFFCURVE",
"266 456 OFFCURVE",
"238 455 CURVE",
"215 455 OFFCURVE",
"194 422 OFFCURVE",
"193 401 CURVE",
"192 381 OFFCURVE",
"208 332 OFFCURVE",
"234 332 CURVE",
"259 331 OFFCURVE",
"267 360 OFFCURVE",
"267 372 CURVE",
"268 380 OFFCURVE",
"259 398 OFFCURVE",
"259 398 CURVE",
"320 371 LINE",
"320 371 OFFCURVE",
"297 361 OFFCURVE",
"297 351 CURVE",
"297 333 OFFCURVE",
"272 305 OFFCURVE",
"251 305 CURVE",
"196 306 OFFCURVE",
"174 371 OFFCURVE",
"175 400 CURVE"
);
}
);
width = 470;
}
);
unicode = 3049;
},
{
glyphname = "ka-hira";
lastChange = "2020-04-30 23:41:58 +0000";
layers = (
{
layerId = "1305C52C-0BD1-483E-A343-C05F3AFF2931";
paths = (
{
closed = 1;
nodes = (
"26 494 OFFCURVE",
"31 519 OFFCURVE",
"39 533 CURVE",
"51 555 OFFCURVE",
"87 601 OFFCURVE",
"108 606 CURVE",
"125 609 OFFCURVE",
"143 606 OFFCURVE",
"152 596 CURVE",
"159 588 OFFCURVE",
"151 551 OFFCURVE",
"162 532 CURVE",
"181 501 OFFCURVE",
"259 407 OFFCURVE",
"259 407 CURVE",
"259 407 OFFCURVE",
"296 466 OFFCURVE",
"317 493 CURVE",
"338 520 OFFCURVE",
"376 557 OFFCURVE",
"386 560 CURVE",
"399 564 OFFCURVE",
"412 561 OFFCURVE",
"420 553 CURVE",
"428 545 OFFCURVE",
"423 523 OFFCURVE",
"421 512 CURVE",
"419 502 OFFCURVE",
"409 491 OFFCURVE",
"407 479 CURVE",
"404 462 OFFCURVE",
"400 426 OFFCURVE",
"407 402 CURVE",
"414 378 OFFCURVE",
"423 342 OFFCURVE",
"457 341 CURVE",
"523 339 OFFCURVE",
"534 455 OFFCURVE",
"564 499 CURVE",
"579 521 OFFCURVE",
"608 558 OFFCURVE",
"640 558 CURVE",
"723 558 OFFCURVE",
"754 515 OFFCURVE",
"786 476 CURVE",
"811 446 OFFCURVE",
"829 405 OFFCURVE",
"835 370 CURVE",
"841 335 OFFCURVE",
"831 265 OFFCURVE",
"819 265 CURVE",
"807 265 OFFCURVE",
"817 336 OFFCURVE",
"806 361 CURVE",
"787 406 OFFCURVE",
"763 437 OFFCURVE",
"720 469 CURVE",
"702 482 OFFCURVE",
"673 486 OFFCURVE",
"649 478 CURVE",
"601 461 OFFCURVE",
"558 343 OFFCURVE",
"505 312 CURVE",
"482 299 OFFCURVE",
"445 304 OFFCURVE",
"425 312 CURVE",
"411 317 OFFCURVE",
"386 346 OFFCURVE",
"372 368 CURVE",
"358 389 OFFCURVE",
"340 450 OFFCURVE",
"340 450 CURVE",
"282 377 LINE",
"282 377 OFFCURVE",
"334 297 OFFCURVE",
"359 251 CURVE",
"384 204 OFFCURVE",
"430 95 OFFCURVE",
"415 94 CURVE",
"399 92 OFFCURVE",
"343 242 OFFCURVE",
"263 333 CURVE",
"205 399 OFFCURVE",
"143 453 OFFCURVE",
"104 479 CURVE",
"86 491 OFFCURVE",
"47 477 OFFCURVE",
"36 485 CURVE"
);
},
{
closed = 1;
nodes = (
"598 291 OFFCURVE",
"617 314 OFFCURVE",
"617 330 CURVE",
"618 346 OFFCURVE",
"595 373 OFFCURVE",
"604 380 CURVE",
"609 386 OFFCURVE",
"625 371 OFFCURVE",
"640 364 CURVE",
"653 358 OFFCURVE",
"684 372 OFFCURVE",
"691 360 CURVE",
"698 349 OFFCURVE",
"707 328 OFFCURVE",
"677 300 CURVE",
"653 278 OFFCURVE",
"615 271 OFFCURVE",
"607 280 CURVE"
);
}
);
width = 867;
}
);
unicode = 304B;
},
{
glyphname = "ga-hira";
lastChange = "2020-04-30 23:41:52 +0000";
layers = (
{
layerId = "1305C52C-0BD1-483E-A343-C05F3AFF2931";
paths = (
{
closed = 1;
nodes = (
"21 442 OFFCURVE",
"47 496 OFFCURVE",
"63 518 CURVE",
"79 539 OFFCURVE",
"99 559 OFFCURVE",
"131 560 CURVE",
"164 560 OFFCURVE",
"157 493 OFFCURVE",
"174 467 CURVE",
"201 425 OFFCURVE",
"262 341 OFFCURVE",
"301 289 CURVE",
"394 163 OFFCURVE",
"413 42 OFFCURVE",
"413 42 CURVE",
"413 42 OFFCURVE",
"329 203 OFFCURVE",
"274 270 CURVE",
"177 388 OFFCURVE",
"97 436 OFFCURVE",
"79 435 CURVE",
"64 434 OFFCURVE",
"42 416 OFFCURVE",
"33 427 CURVE"
);
},
{
closed = 1;
nodes = (
"218 481 OFFCURVE",
"259 500 OFFCURVE",
"258 520 CURVE",
"257 540 OFFCURVE",
"223 572 OFFCURVE",
"223 596 CURVE",
"224 621 OFFCURVE",
"254 658 OFFCURVE",
"285 658 CURVE",
"304 659 OFFCURVE",
"335 656 OFFCURVE",
"337 610 CURVE",
"338 597 OFFCURVE",
"334 571 OFFCURVE",
"322 571 CURVE",
"311 571 OFFCURVE",
"301 607 OFFCURVE",
"275 608 CURVE",
"267 608 OFFCURVE",
"256 598 OFFCURVE",
"256 590 CURVE",
"258 546 OFFCURVE",
"312 537 OFFCURVE",
"313 515 CURVE",
"313 490 OFFCURVE",
"231 461 OFFCURVE",
"226 469 CURVE"
);
},
{
closed = 1;
nodes = (
"246 328 OFFCURVE",
"272 383 OFFCURVE",
"323 444 CURVE",
"346 471 OFFCURVE",
"377 517 OFFCURVE",
"410 514 CURVE",
"425 512 OFFCURVE",
"433 487 OFFCURVE",
"432 472 CURVE",
"432 457 OFFCURVE",
"412 440 OFFCURVE",
"409 423 CURVE",
"405 402 OFFCURVE",
"400 365 OFFCURVE",
"409 342 CURVE",
"417 319 OFFCURVE",
"441 286 OFFCURVE",
"460 285 CURVE",
"539 284 OFFCURVE",
"548 513 OFFCURVE",
"647 508 CURVE",
"760 502 OFFCURVE",
"822 386 OFFCURVE",
"838 323 CURVE",
"856 251 OFFCURVE",
"815 203 OFFCURVE",
"815 203 CURVE",
"815 203 OFFCURVE",
"825 268 OFFCURVE",
"814 298 CURVE",
"791 360 OFFCURVE",
"735 429 OFFCURVE",
"679 431 CURVE",
"588 434 OFFCURVE",
"559 251 OFFCURVE",
"463 252 CURVE",
"383 253 OFFCURVE",
"347 399 OFFCURVE",
"347 399 CURVE",
"347 399 OFFCURVE",
"338 402 OFFCURVE",
"312 370 CURVE",
"292 344 OFFCURVE",
"264 311 OFFCURVE",
"260 315 CURVE"
);
},
{
closed = 1;
nodes = (
"596 234 OFFCURVE",
"625 263 OFFCURVE",
"624 280 CURVE",
"623 298 OFFCURVE",
"592 324 OFFCURVE",
"597 330 CURVE",
"602 337 OFFCURVE",
"628 315 OFFCURVE",
"645 313 CURVE",
"662 310 OFFCURVE",
"691 319 OFFCURVE",
"697 307 CURVE",
"703 296 OFFCURVE",
"692 258 OFFCURVE",
"676 244 CURVE",
"660 230 OFFCURVE",
"610 217 OFFCURVE",
"604 225 CURVE"
);
}
);
width = 873;
}
);
unicode = 304C;
},
{
glyphname = "ki-hira";
lastChange = "2020-04-30 23:41:45 +0000";
layers = (
{
layerId = "1305C52C-0BD1-483E-A343-C05F3AFF2931";
paths = (
{
closed = 1;
nodes = (
"27 247 OFFCURVE",
"40 289 OFFCURVE",
"45 304 CURVE",
"49 316 OFFCURVE",
"49 334 OFFCURVE",
"57 343 CURVE",
"72 361 OFFCURVE",
"107 407 OFFCURVE",
"138 412 CURVE",
"159 414 OFFCURVE",
"183 409 OFFCURVE",
"187 394 CURVE",
"192 375 OFFCURVE",
"165 340 OFFCURVE",
"160 315 CURVE",
"155 291 OFFCURVE",
"154 251 OFFCURVE",
"163 231 CURVE",
"172 211 OFFCURVE",
"198 192 OFFCURVE",
"213 193 CURVE",
"239 195 OFFCURVE",
"255 220 OFFCURVE",
"257 243 CURVE",
"262 270 OFFCURVE",
"262 320 OFFCURVE",
"272 350 CURVE",
"283 377 OFFCURVE",
"304 406 OFFCURVE",
"330 415 CURVE",
"404 440 OFFCURVE",
"472 396 OFFCURVE",
"517 370 CURVE",
"548 352 OFFCURVE",
"600 299 OFFCURVE",
"600 299 CURVE",
"600 299 OFFCURVE",
"647 358 OFFCURVE",
"689 420 CURVE",
"707 447 OFFCURVE",
"748 493 OFFCURVE",
"764 601 CURVE",
"772 657 OFFCURVE",
"767 724 OFFCURVE",
"770 724 CURVE",
"784 725 OFFCURVE",
"820 577 OFFCURVE",
"823 527 CURVE",
"826 488 OFFCURVE",
"818 451 OFFCURVE",
"798 420 CURVE",
"752 352 OFFCURVE",
"626 260 OFFCURVE",
"626 260 CURVE",
"626 260 OFFCURVE",
"684 167 OFFCURVE",
"696 118 CURVE",
"707 68 OFFCURVE",
"716 -27 OFFCURVE",
"702 -24 CURVE",
"688 -20 OFFCURVE",
"714 61 OFFCURVE",
"591 208 CURVE",
"571 231 OFFCURVE",
"498 302 OFFCURVE",
"455 326 CURVE",
"429 339 OFFCURVE",
"398 344 OFFCURVE",
"374 335 CURVE",
"322 319 OFFCURVE",
"301 216 OFFCURVE",
"276 185 CURVE",
"249 150 OFFCURVE",
"206 159 OFFCURVE",
"180 165 CURVE",
"128 176 OFFCURVE",
"80 278 OFFCURVE",
"77 278 CURVE",
"67 279 OFFCURVE",
"37 239 OFFCURVE",
"31 243 CURVE"
);
},
{
closed = 1;
nodes = (
"384 124 OFFCURVE",
"389 146 OFFCURVE",
"395 158 CURVE",
"403 170 OFFCURVE",
"424 175 OFFCURVE",
"426 190 CURVE",
"430 211 OFFCURVE",
"370 282 OFFCURVE",
"382 292 CURVE",
"393 301 OFFCURVE",
"499 210 OFFCURVE",
"510 172 CURVE",
"515 151 OFFCURVE",
"487 135 OFFCURVE",
"468 124 CURVE",
"446 112 OFFCURVE",
"394 112 OFFCURVE",
"392 114 CURVE"
);
}
);
width = 854;
}
);
unicode = 304D;
},
{
glyphname = "gi-hira";
lastChange = "2020-04-30 23:41:38 +0000";
layers = (
{
layerId = "1305C52C-0BD1-483E-A343-C05F3AFF2931";
paths = (
{
closed = 1;
nodes = (
"360 156 OFFCURVE",
"411 182 OFFCURVE",
"410 210 CURVE",
"410 236 OFFCURVE",
"358 305 OFFCURVE",
"358 305 CURVE",
"358 305 OFFCURVE",
"396 284 OFFCURVE",
"426 254 CURVE",
"455 224 OFFCURVE",
"485 200 OFFCURVE",
"487 192 CURVE",
"495 155 OFFCURVE",
"383 122 OFFCURVE",
"373 137 CURVE"
);
},
{
closed = 1;
nodes = (
"550 266 OFFCURVE",
"657 399 OFFCURVE",
"690 469 CURVE",
"748 590 OFFCURVE",
"735 702 OFFCURVE",
"735 702 CURVE",
"735 702 OFFCURVE",
"755 658 OFFCURVE",
"761 637 CURVE",
"766 618 OFFCURVE",
"769 596 OFFCURVE",
"773 576 CURVE",
"777 552 OFFCURVE",
"784 515 OFFCURVE",
"782 489 CURVE",
"772 350 OFFCURVE",
"550 266 OFFCURVE",
"550 266 CURVE"
);
},
{
closed = 1;
nodes = (
"30 252 OFFCURVE",
"48 295 OFFCURVE",
"58 316 CURVE",
"67 335 OFFCURVE",
"53 330 OFFCURVE",
"85 373 CURVE",
"96 387 OFFCURVE",
"137 414 OFFCURVE",
"158 413 CURVE",
"171 412 OFFCURVE",
"179 399 OFFCURVE",
"179 386 CURVE",
"179 365 OFFCURVE",
"145 335 OFFCURVE",
"150 287 CURVE",
"152 256 OFFCURVE",
"180 208 OFFCURVE",
"208 209 CURVE",
"299 213 OFFCURVE",
"228 342 OFFCURVE",
"285 388 CURVE",
"334 427 OFFCURVE",
"419 419 OFFCURVE",
"485 376 CURVE",
"697 238 OFFCURVE",
"675 -1 OFFCURVE",
"675 -1 CURVE",
"675 -1 OFFCURVE",
"626 143 OFFCURVE",
"583 205 CURVE",
"539 266 OFFCURVE",
"446 348 OFFCURVE",
"386 350 CURVE",
"273 354 OFFCURVE",
"315 173 OFFCURVE",
"207 178 CURVE",
"131 182 OFFCURVE",
"83 296 OFFCURVE",
"83 296 CURVE",
"30 252 LINE"
);
},
{
closed = 1;
nodes = (
"202 442 OFFCURVE",
"238 464 OFFCURVE",
"238 484 CURVE",
"238 506 OFFCURVE",
"204 538 OFFCURVE",
"204 563 CURVE",
"205 590 OFFCURVE",
"238 623 OFFCURVE",
"274 623 CURVE",
"297 624 OFFCURVE",
"319 601 OFFCURVE",
"320 578 CURVE",
"321 563 OFFCURVE",
"315 534 OFFCURVE",
"306 534 CURVE",
"294 534 OFFCURVE",
"275 577 OFFCURVE",
"264 577 CURVE",
"249 577 OFFCURVE",
"239 563 OFFCURVE",
"239 551 CURVE",
"239 522 OFFCURVE",
"296 492 OFFCURVE",
"295 477 CURVE",
"294 448 OFFCURVE",
"211 426 OFFCURVE",
"207 432 CURVE"
);
}
);
width = 812;
}
);
unicode = 304E;
},
{
glyphname = "ku-hira";
lastChange = "2020-04-30 23:41:32 +0000";
layers = (
{
layerId = "1305C52C-0BD1-483E-A343-C05F3AFF2931";
paths = (
{
closed = 1;
nodes = (
"21 325 OFFCURVE",
"66 411 OFFCURVE",
"88 439 CURVE",
"127 490 OFFCURVE",
"206 475 OFFCURVE",
"209 464 CURVE",
"213 437 OFFCURVE",
"165 372 OFFCURVE",
"166 328 CURVE",
"167 286 OFFCURVE",
"181 234 OFFCURVE",
"216 233 CURVE",
"241 232 OFFCURVE",
"256 302 OFFCURVE",
"256 355 CURVE",
"256 401 OFFCURVE",
"298 470 OFFCURVE",
"339 480 CURVE",
"365 487 OFFCURVE",
"417 498 OFFCURVE",
"478 437 CURVE",
"508 409 OFFCURVE",
"669 211 OFFCURVE",
"669 211 CURVE",
"669 211 OFFCURVE",
"662 508 OFFCURVE",
"661 572 CURVE",
"661 590 OFFCURVE",
"631 615 OFFCURVE",
"632 635 CURVE",
"633 662 OFFCURVE",
"669 712 OFFCURVE",
"688 731 CURVE",
"702 744 OFFCURVE",
"736 742 OFFCURVE",
"749 729 CURVE",
"763 718 OFFCURVE",
"764 674 OFFCURVE",
"757 651 CURVE",
"749 627 OFFCURVE",
"720 609 OFFCURVE",
"708 577 CURVE",
"696 551 OFFCURVE",
"703 298 OFFCURVE",
"710 204 CURVE",
"716 120 OFFCURVE",
"808 55 OFFCURVE",
"810 24 CURVE",
"812 -4 OFFCURVE",
"777 -36 OFFCURVE",
"756 -40 CURVE",
"739 -43 OFFCURVE",
"712 -19 OFFCURVE",
"709 -3 CURVE",
"704 16 OFFCURVE",
"720 41 OFFCURVE",
"709 60 CURVE",
"681 106 OFFCURVE",
"620 203 OFFCURVE",
"571 259 CURVE",
"524 313 OFFCURVE",
"452 378 OFFCURVE",
"413 397 CURVE",
"367 419 OFFCURVE",
"308 362 OFFCURVE",
"301 326 CURVE",
"295 301 OFFCURVE",
"297 281 OFFCURVE",
"289 259 CURVE",
"281 237 OFFCURVE",
"266 194 OFFCURVE",
"212 194 CURVE",
"131 193 OFFCURVE",
"103 327 OFFCURVE",
"95 334 CURVE",
"86 342 OFFCURVE",
"73 312 OFFCURVE",
"62 308 CURVE",
"54 303 OFFCURVE",
"36 298 OFFCURVE",
"31 309 CURVE"
);
},
{
closed = 1;
nodes = (
"372 104 OFFCURVE",
"371 124 OFFCURVE",
"375 132 CURVE",
"382 146 OFFCURVE",
"423 160 OFFCURVE",
"419 189 CURVE",
"415 218 OFFCURVE",
"346 306 OFFCURVE",
"351 313 CURVE",
"357 320 OFFCURVE",
"419 244 OFFCURVE",
"441 232 CURVE",
"462 221 OFFCURVE",
"498 232 OFFCURVE",
"513 227 CURVE",
"524 224 OFFCURVE",
"534 212 OFFCURVE",
"534 201 CURVE",
"535 164 OFFCURVE",
"473 106 OFFCURVE",
"458 105 CURVE",
"432 104 OFFCURVE",
"372 104 OFFCURVE",
"372 104 CURVE"
);
}
);
width = 840;
}
);
unicode = 304F;
},
{
glyphname = "gu-hira";
lastChange = "2020-04-30 23:41:23 +0000";
layers = (
{
layerId = "1305C52C-0BD1-483E-A343-C05F3AFF2931";
paths = (
{
closed = 1;
nodes = (
"193 496 OFFCURVE",
"229 516 OFFCURVE",
"229 537 CURVE",
"229 573 OFFCURVE",
"193 592 OFFCURVE",
"193 611 CURVE",
"194 636 OFFCURVE",
"228 674 OFFCURVE",
"267 676 CURVE",
"282 676 OFFCURVE",
"297 666 OFFCURVE",
"300 653 CURVE",
"307 629 OFFCURVE",
"304 588 OFFCURVE",
"294 588 CURVE",
"284 588 OFFCURVE",
"275 627 OFFCURVE",
"247 628 CURVE",
"237 628 OFFCURVE",
"228 614 OFFCURVE",
"227 603 CURVE",
"227 573 OFFCURVE",
"278 551 OFFCURVE",
"278 529 CURVE",
"278 494 OFFCURVE",
"204 481 OFFCURVE",
"199 488 CURVE"
);
},
{
closed = 1;
nodes = (
"30 311 OFFCURVE",
"54 393 OFFCURVE",
"84 430 CURVE",
"98 447 OFFCURVE",
"125 458 OFFCURVE",
"141 458 CURVE",
"160 458 OFFCURVE",
"184 454 OFFCURVE",
"184 438 CURVE",
"184 417 OFFCURVE",
"142 392 OFFCURVE",
"140 334 CURVE",
"139 302 OFFCURVE",
"156 241 OFFCURVE",
"190 244 CURVE",
"250 248 OFFCURVE",
"190 470 OFFCURVE",
"336 464 CURVE",
"417 462 OFFCURVE",
"588 217 OFFCURVE",
"588 217 CURVE",
"588 217 OFFCURVE",
"575 336 OFFCURVE",
"575 392 CURVE",
"574 446 OFFCURVE",
"586 501 OFFCURVE",
"584 537 CURVE",
"582 554 OFFCURVE",
"556 576 OFFCURVE",
"557 599 CURVE",
"559 629 OFFCURVE",
"602 689 OFFCURVE",
"627 688 CURVE",
"646 688 OFFCURVE",
"664 662 OFFCURVE",
"663 642 CURVE",
"662 619 OFFCURVE",
"628 583 OFFCURVE",
"621 551 CURVE",
"611 508 OFFCURVE",
"603 445 OFFCURVE",
"603 390 CURVE",
"604 254 OFFCURVE",
"625 200 OFFCURVE",
"648 150 CURVE",
"663 119 OFFCURVE",
"702 90 OFFCURVE",
"702 66 CURVE",
"702 46 OFFCURVE",
"675 14 OFFCURVE",
"660 13 CURVE",
"644 13 OFFCURVE",
"615 33 OFFCURVE",
"614 46 CURVE",
"613 62 OFFCURVE",
"627 76 OFFCURVE",
"623 89 CURVE",
"612 124 OFFCURVE",
"545 209 OFFCURVE",
"500 264 CURVE",
"456 319 OFFCURVE",
"389 396 OFFCURVE",
"341 396 CURVE",
"213 398 OFFCURVE",
"284 217 OFFCURVE",
"191 216 CURVE",
"110 214 OFFCURVE",
"88 343 OFFCURVE",
"88 343 CURVE",
"88 343 OFFCURVE",
"72 326 OFFCURVE",
"62 321 CURVE",
"53 315 OFFCURVE",
"30 311 OFFCURVE",
"30 311 CURVE"
);
},
{
closed = 1;
nodes = (
"308 157 OFFCURVE",
"381 183 OFFCURVE",
"369 208 CURVE",
"354 237 OFFCURVE",
"308 314 OFFCURVE",
"308 314 CURVE",
"308 314 OFFCURVE",
"355 270 OFFCURVE",
"375 251 CURVE",
"394 233 OFFCURVE",
"446 248 OFFCURVE",
"456 233 CURVE",
"467 216 OFFCURVE",
"441 169 OFFCURVE",
"420 153 CURVE",
"398 137 OFFCURVE",
"334 125 OFFCURVE",
"325 136 CURVE"
);
}
);
width = 732;
}
);
unicode = 3050;
},
{
glyphname = "ke-hira";
lastChange = "2020-04-30 23:41:17 +0000";
layers = (
{
layerId = "1305C52C-0BD1-483E-A343-C05F3AFF2931";
paths = (
{
closed = 1;
nodes = (
"330 406 OFFCURVE",
"354 572 OFFCURVE",
"379 613 CURVE",
"400 648 OFFCURVE",
"420 657 OFFCURVE",
"455 656 CURVE",
"495 655 OFFCURVE",
"516 630 OFFCURVE",
"529 598 CURVE",
"547 556 OFFCURVE",
"538 513 OFFCURVE",
"600 426 CURVE",
"629 384 OFFCURVE",
"677 347 OFFCURVE",
"720 330 CURVE",
"795 301 OFFCURVE",
"885 345 OFFCURVE",
"888 335 CURVE",
"893 322 OFFCURVE",
"784 299 OFFCURVE",
"707 307 CURVE",
"642 313 OFFCURVE",
"602 344 OFFCURVE",
"545 403 CURVE",
"490 459 OFFCURVE",
"463 554 OFFCURVE",
"442 552 CURVE",
"387 548 OFFCURVE",
"379 436 OFFCURVE",
"316 383 CURVE",
"299 370 OFFCURVE",
"273 363 OFFCURVE",
"251 363 CURVE",
"211 362 OFFCURVE",
"123 365 OFFCURVE",
"93 366 CURVE",
"73 367 OFFCURVE",
"56 350 OFFCURVE",
"56 331 CURVE",
"56 300 OFFCURVE",
"102 266 OFFCURVE",
"125 262 CURVE",
"143 259 OFFCURVE",
"165 257 OFFCURVE",
"177 258 CURVE",
"187 259 OFFCURVE",
"193 266 OFFCURVE",
"208 265 CURVE",
"221 265 OFFCURVE",
"235 254 OFFCURVE",
"235 242 CURVE",
"235 226 OFFCURVE",
"206 183 OFFCURVE",
"186 177 CURVE",
"167 172 OFFCURVE",
"138 170 OFFCURVE",
"134 177 CURVE",
"129 186 OFFCURVE",
"147 194 OFFCURVE",
"146 202 CURVE",
"145 214 OFFCURVE",
"33 252 OFFCURVE",
"30 323 CURVE",
"28 371 OFFCURVE",
"72 394 OFFCURVE",
"94 395 CURVE",
"127 396 OFFCURVE",
"211 389 OFFCURVE",
"249 394 CURVE"
);
},
{
closed = 1;
nodes = (
"238 195 OFFCURVE",
"274 270 OFFCURVE",
"309 287 CURVE",
"322 293 OFFCURVE",
"345 289 OFFCURVE",
"354 283 CURVE",
"363 276 OFFCURVE",
"361 255 OFFCURVE",
"359 243 CURVE",
"356 227 OFFCURVE",
"337 213 OFFCURVE",
"337 186 CURVE",
"337 167 OFFCURVE",
"353 131 OFFCURVE",
"396 135 CURVE",
"454 139 OFFCURVE",
"422 206 OFFCURVE",
"457 233 CURVE",
"479 251 OFFCURVE",
"518 248 OFFCURVE",
"541 245 CURVE",
"612 236 OFFCURVE",
"708 113 OFFCURVE",
"687 96 CURVE",
"678 90 OFFCURVE",
"620 187 OFFCURVE",
"533 183 CURVE",
"447 179 OFFCURVE",
"453 107 OFFCURVE",
"387 101 CURVE",
"359 98 OFFCURVE",
"322 112 OFFCURVE",
"309 131 CURVE",
"296 149 OFFCURVE",
"292 180 OFFCURVE",
"281 188 CURVE",
"271 196 OFFCURVE",
"260 169 OFFCURVE",
"252 179 CURVE"
);
},
{
closed = 1;
nodes = (
"457 57 OFFCURVE",
"478 68 OFFCURVE",
"481 81 CURVE",
"487 103 OFFCURVE",
"459 123 OFFCURVE",
"465 127 CURVE",
"473 132 OFFCURVE",
"486 120 OFFCURVE",
"496 119 CURVE",
"511 117 OFFCURVE",
"532 121 OFFCURVE",
"542 106 CURVE",
"549 97 OFFCURVE",
"537 70 OFFCURVE",
"525 59 CURVE",
"512 49 OFFCURVE",
"472 39 OFFCURVE",
"466 46 CURVE"
);
}
);
width = 918;
}
);
unicode = 3051;
},
{
glyphname = "ge-hira";
lastChange = "2020-04-30 23:41:12 +0000";
layers = (
{
layerId = "1305C52C-0BD1-483E-A343-C05F3AFF2931";
paths = (
{
closed = 1;
nodes = (
"453 56 OFFCURVE",
"486 71 OFFCURVE",
"486 84 CURVE",
"486 97 OFFCURVE",
"465 123 OFFCURVE",
"465 123 CURVE",
"465 123 OFFCURVE",
"486 113 OFFCURVE",
"496 113 CURVE",
"510 112 OFFCURVE",
"533 114 OFFCURVE",
"540 105 CURVE",
"546 96 OFFCURVE",
"538 70 OFFCURVE",
"524 60 CURVE",
"510 50 OFFCURVE",
"461 40 OFFCURVE",
"457 48 CURVE"
);
},
{
closed = 1;
nodes = (
"249 173 OFFCURVE",
"258 232 OFFCURVE",
"282 260 CURVE",
"300 281 OFFCURVE",
"345 292 OFFCURVE",
"355 279 CURVE",
"369 260 OFFCURVE",
"337 211 OFFCURVE",
"337 186 CURVE",
"338 160 OFFCURVE",
"364 130 OFFCURVE",
"391 130 CURVE",
"460 131 OFFCURVE",
"418 252 OFFCURVE",
"504 250 CURVE",
"627 246 OFFCURVE",
"691 94 OFFCURVE",
"691 94 CURVE",
"691 94 OFFCURVE",
"593 181 OFFCURVE",
"543 180 CURVE",
"460 180 OFFCURVE",
"436 96 OFFCURVE",
"388 95 CURVE",
"289 92 OFFCURVE",
"281 198 OFFCURVE",
"281 198 CURVE",
"249 173 LINE"
);
},
{
closed = 1;
nodes = (
"123 184 OFFCURVE",
"150 194 OFFCURVE",
"144 203 CURVE",
"137 215 OFFCURVE",
"101 228 OFFCURVE",
"83 243 CURVE",
"51 269 OFFCURVE",
"29 302 OFFCURVE",
"30 330 CURVE",
"31 359 OFFCURVE",
"66 395 OFFCURVE",
"143 393 CURVE",
"321 388 OFFCURVE",
"308 421 OFFCURVE",
"343 519 CURVE",
"369 589 OFFCURVE",
"392 655 OFFCURVE",
"451 655 CURVE",
"521 655 OFFCURVE",
"542 568 OFFCURVE",
"566 479 CURVE",
"578 436 OFFCURVE",
"652 333 OFFCURVE",
"737 327 CURVE",
"786 324 OFFCURVE",
"888 336 OFFCURVE",
"888 336 CURVE",
"888 336 OFFCURVE",
"782 298 OFFCURVE",
"729 300 CURVE",
"544 306 OFFCURVE",
"484 552 OFFCURVE",
"442 552 CURVE",
"363 552 OFFCURVE",
"424 348 OFFCURVE",
"158 364 CURVE",
"124 366 OFFCURVE",
"60 376 OFFCURVE",
"60 331 CURVE",
"60 289 OFFCURVE",
"117 255 OFFCURVE",
"148 256 CURVE",
"175 257 OFFCURVE",
"224 269 OFFCURVE",
"230 251 CURVE",
"247 197 OFFCURVE",
"139 159 OFFCURVE",
"129 175 CURVE"
);
},
{
closed = 1;
nodes = (
"178 451 OFFCURVE",
"218 476 OFFCURVE",
"218 498 CURVE",
"217 522 OFFCURVE",
"186 548 OFFCURVE",
"186 576 CURVE",
"186 602 OFFCURVE",
"223 634 OFFCURVE",
"248 636 CURVE",
"268 638 OFFCURVE",
"297 614 OFFCURVE",
"298 595 CURVE",
"298 577 OFFCURVE",
"289 550 OFFCURVE",
"280 549 CURVE",
"271 548 OFFCURVE",
"256 590 OFFCURVE",
"242 591 CURVE",
"232 591 OFFCURVE",
"216 580 OFFCURVE",
"216 565 CURVE",
"217 546 OFFCURVE",
"269 509 OFFCURVE",
"269 487 CURVE",
"269 466 OFFCURVE",
"191 434 OFFCURVE",
"184 442 CURVE"
);
}
);
width = 918;
}
);
unicode = 3052;
},
{
glyphname = "ko-hira";
lastChange = "2020-04-30 23:41:06 +0000";
layers = (
{
layerId = "1305C52C-0BD1-483E-A343-C05F3AFF2931";
paths = (
{
closed = 1;
nodes = (
"23 194 OFFCURVE",
"57 259 OFFCURVE",
"64 278 CURVE",
"67 286 OFFCURVE",
"69 306 OFFCURVE",
"76 317 CURVE",
"85 333 OFFCURVE",
"102 360 OFFCURVE",
"115 369 CURVE",
"125 376 OFFCURVE",
"148 376 OFFCURVE",
"161 365 CURVE",
"171 355 OFFCURVE",
"179 321 OFFCURVE",
"179 321 CURVE",
"179 321 OFFCURVE",
"181 288 OFFCURVE",
"187 271 CURVE",
"197 247 OFFCURVE",
"218 184 OFFCURVE",
"250 184 CURVE",
"275 184 OFFCURVE",
"271 219 OFFCURVE",
"267 237 CURVE",
"262 258 OFFCURVE",
"242 295 OFFCURVE",
"243 317 CURVE",
"244 352 OFFCURVE",
"271 393 OFFCURVE",
"294 398 CURVE",
"314 401 OFFCURVE",
"332 401 OFFCURVE",
"349 394 CURVE",
"397 371 OFFCURVE",
"416 279 OFFCURVE",
"453 234 CURVE",
"489 192 OFFCURVE",
"565 119 OFFCURVE",
"575 124 CURVE",
"582 129 OFFCURVE",
"519 193 OFFCURVE",
"521 233 CURVE",
"525 328 OFFCURVE",
"668 394 OFFCURVE",
"700 452 CURVE",
"721 489 OFFCURVE",
"714 545 OFFCURVE",
"707 584 CURVE",
"698 635 OFFCURVE",
"635 667 OFFCURVE",
"646 683 CURVE",
"658 698 OFFCURVE",
"803 582 OFFCURVE",
"800 470 CURVE",
"800 301 OFFCURVE",
"575 328 OFFCURVE",
"564 223 CURVE",
"560 188 OFFCURVE",
"590 152 OFFCURVE",
"619 131 CURVE",
"655 104 OFFCURVE",
"769 86 OFFCURVE",
"785 61 CURVE",
"797 41 OFFCURVE",
"743 14 OFFCURVE",
"725 16 CURVE",
"662 25 OFFCURVE",
"562 94 OFFCURVE",
"482 164 CURVE",
"396 241 OFFCURVE",
"355 317 OFFCURVE",
"324 318 CURVE",
"303 319 OFFCURVE",
"293 301 OFFCURVE",
"291 286 CURVE",
"289 262 OFFCURVE",
"295 202 OFFCURVE",
"288 180 CURVE",
"282 163 OFFCURVE",
"256 149 OFFCURVE",
"239 150 CURVE",
"202 153 OFFCURVE",
"132 257 OFFCURVE",
"118 258 CURVE",
"92 259 OFFCURVE",
"40 187 OFFCURVE",
"32 190 CURVE"
);
},
{
closed = 1;
nodes = (
"322 57 OFFCURVE",
"357 72 OFFCURVE",
"361 86 CURVE",
"364 97 OFFCURVE",
"363 118 OFFCURVE",
"358 131 CURVE",
"351 148 OFFCURVE",
"319 193 OFFCURVE",
"328 201 CURVE",
"339 211 OFFCURVE",
"374 152 OFFCURVE",
"398 143 CURVE",
"422 134 OFFCURVE",
"452 140 OFFCURVE",
"465 133 CURVE",
"476 128 OFFCURVE",
"477 104 OFFCURVE",
"471 94 CURVE",
"461 77 OFFCURVE",
"430 48 OFFCURVE",
"410 42 CURVE",
"393 37 OFFCURVE",
"377 30 OFFCURVE",
"368 37 CURVE",
"365 40 OFFCURVE",
"358 45 OFFCURVE",
"354 47 CURVE",
"348 49 OFFCURVE",
"326 46 OFFCURVE",
"324 51 CURVE"
);
}
);
width = 830;
}
);
unicode = 3053;
},
{
glyphname = "go-hira";
lastChange = "2020-04-30 23:41:01 +0000";
layers = (
{
layerId = "1305C52C-0BD1-483E-A343-C05F3AFF2931";
paths = (
{
closed = 1;
nodes = (
"30 197 OFFCURVE",
"67 304 OFFCURVE",
"84 333 CURVE",
"94 349 OFFCURVE",
"111 368 OFFCURVE",
"131 368 CURVE",
"176 367 OFFCURVE",
"168 198 OFFCURVE",
"235 200 CURVE",
"251 200 OFFCURVE",
"252 213 OFFCURVE",
"252 225 CURVE",
"250 247 OFFCURVE",
"224 292 OFFCURVE",
"226 321 CURVE",
"228 348 OFFCURVE",
"258 394 OFFCURVE",
"290 395 CURVE",
"345 397 OFFCURVE",
"381 293 OFFCURVE",
"414 247 CURVE",
"456 189 OFFCURVE",
"522 148 OFFCURVE",
"522 148 CURVE",
"522 148 OFFCURVE",
"486 207 OFFCURVE",
"485 239 CURVE",
"484 354 OFFCURVE",
"660 362 OFFCURVE",
"662 498 CURVE",
"662 611 OFFCURVE",
"599 654 OFFCURVE",
"599 654 CURVE",
"599 654 OFFCURVE",
"746 552 OFFCURVE",
"743 447 CURVE",
"740 333 OFFCURVE",
"523 310 OFFCURVE",
"524 232 CURVE",
"525 120 OFFCURVE",
"694 115 OFFCURVE",
"726 81 CURVE",
"743 64 OFFCURVE",
"685 48 OFFCURVE",
"663 47 CURVE",
"601 43 OFFCURVE",
"425 185 OFFCURVE",
"351 274 CURVE",
"325 305 OFFCURVE",
"308 320 OFFCURVE",
"294 319 CURVE",
"254 317 OFFCURVE",
"272 268 OFFCURVE",
"272 240 CURVE",
"272 212 OFFCURVE",
"255 169 OFFCURVE",
"222 170 CURVE",
"178 171 OFFCURVE",
"135 261 OFFCURVE",
"108 262 CURVE",
"75 262 OFFCURVE",
"30 197 OFFCURVE",
"30 197 CURVE"
);
},
{
closed = 1;
nodes = (
"309 89 OFFCURVE",
"345 96 OFFCURVE",
"343 112 CURVE",
"342 134 OFFCURVE",
"304 209 OFFCURVE",
"304 209 CURVE",
"304 209 OFFCURVE",
"354 165 OFFCURVE",
"377 155 CURVE",
"396 147 OFFCURVE",
"436 157 OFFCURVE",
"441 145 CURVE",
"447 133 OFFCURVE",
"427 90 OFFCURVE",
"407 79 CURVE",
"386 67 OFFCURVE",
"319 57 OFFCURVE",
"313 76 CURVE"
);
},
{
closed = 1;
nodes = (
"409 383 OFFCURVE",
"440 401 OFFCURVE",
"441 418 CURVE",
"441 447 OFFCURVE",
"410 470 OFFCURVE",
"410 493 CURVE",
"411 517 OFFCURVE",
"442 549 OFFCURVE",
"466 548 CURVE",
"488 547 OFFCURVE",
"515 521 OFFCURVE",
"515 507 CURVE",
"516 490 OFFCURVE",
"510 468 OFFCURVE",
"499 468 CURVE",
"488 468 OFFCURVE",
"483 502 OFFCURVE",
"463 502 CURVE",
"450 503 OFFCURVE",
"440 498 OFFCURVE",
"440 484 CURVE",
"440 456 OFFCURVE",
"489 430 OFFCURVE",
"490 414 CURVE",
"490 390 OFFCURVE",
"415 367 OFFCURVE",
"412 375 CURVE"
);
}
);
width = 773;
}
);
unicode = 3054;
},
{
glyphname = "sa-hira";
lastChange = "2020-04-30 23:40:30 +0000";
layers = (
{
layerId = "1305C52C-0BD1-483E-A343-C05F3AFF2931";
paths = (
{
closed = 1;
nodes = (
"26 477 OFFCURVE",
"30 524 OFFCURVE",
"42 541 CURVE",
"56 564 OFFCURVE",
"103 592 OFFCURVE",
"124 594 CURVE",
"144 597 OFFCURVE",
"169 570 OFFCURVE",
"173 555 CURVE",
"177 540 OFFCURVE",
"145 520 OFFCURVE",
"148 499 CURVE",
"153 464 OFFCURVE",
"197 388 OFFCURVE",
"240 329 CURVE",
"276 279 OFFCURVE",
"357 117 OFFCURVE",
"343 107 CURVE",
"328 97 OFFCURVE",
"314 170 OFFCURVE",
"266 240 CURVE",
"236 283 OFFCURVE",
"190 331 OFFCURVE",
"159 372 CURVE",
"131 409 OFFCURVE",
"103 464 OFFCURVE",
"80 477 CURVE",
"61 486 OFFCURVE",
"43 463 OFFCURVE",
"34 470 CURVE"
);
},
{
closed = 1;
nodes = (
"260 352 OFFCURVE",
"335 312 OFFCURVE",
"339 318 CURVE",
"343 326 OFFCURVE",
"314 366 OFFCURVE",
"300 388 CURVE",
"292 400 OFFCURVE",
"261 429 OFFCURVE",
"257 446 CURVE",
"254 461 OFFCURVE",
"265 478 OFFCURVE",
"272 484 CURVE",
"278 490 OFFCURVE",
"299 483 OFFCURVE",
"305 480 CURVE",
"314 474 OFFCURVE",
"367 379 OFFCURVE",
"425 384 CURVE",
"472 388 OFFCURVE",
"472 504 OFFCURVE",
"530 530 CURVE",
"546 537 OFFCURVE",
"572 536 OFFCURVE",
"587 527 CURVE",
"654 488 OFFCURVE",
"607 428 OFFCURVE",
"661 322 CURVE",
"673 297 OFFCURVE",
"700 260 OFFCURVE",
"758 228 CURVE",
"783 215 OFFCURVE",
"833 223 OFFCURVE",
"843 224 CURVE",
"861 226 OFFCURVE",
"894 233 OFFCURVE",
"896 225 CURVE",
"902 208 OFFCURVE",
"799 190 OFFCURVE",
"744 198 CURVE",
"670 210 OFFCURVE",
"620 285 OFFCURVE",
"595 325 CURVE",
"573 362 OFFCURVE",
"559 435 OFFCURVE",
"534 437 CURVE",
"490 440 OFFCURVE",
"480 351 OFFCURVE",
"444 350 CURVE",
"387 349 OFFCURVE",
"314 412 OFFCURVE",
"314 412 CURVE",
"314 412 OFFCURVE",
"355 355 OFFCURVE",
"378 334 CURVE",
"398 315 OFFCURVE",
"441 316 OFFCURVE",
"447 291 CURVE",
"451 272 OFFCURVE",
"432 255 OFFCURVE",
"407 242 CURVE",
"392 235 OFFCURVE",
"363 231 OFFCURVE",
"356 237 CURVE",
"347 244 OFFCURVE",
"355 255 OFFCURVE",
"350 265 CURVE",
"344 278 OFFCURVE",
"325 292 OFFCURVE",
"310 303 CURVE",
"293 315 OFFCURVE",
"250 330 OFFCURVE",
"255 341 CURVE"
);
}
);
width = 926;
}
);
unicode = 3055;
},
{
glyphname = "za-hira";
lastChange = "2020-04-30 23:40:24 +0000";
layers = (
{
layerId = "1305C52C-0BD1-483E-A343-C05F3AFF2931";
paths = (
{
closed = 1;
nodes = (
"26 437 OFFCURVE",
"33 479 OFFCURVE",
"46 499 CURVE",
"62 521 OFFCURVE",
"109 556 OFFCURVE",
"130 556 CURVE",
"151 556 OFFCURVE",
"169 529 OFFCURVE",
"170 514 CURVE",
"171 499 OFFCURVE",
"143 474 OFFCURVE",
"148 458 CURVE",
"164 404 OFFCURVE",
"194 346 OFFCURVE",
"231 299 CURVE",
"303 205 OFFCURVE",
"345 62 OFFCURVE",
"345 62 CURVE",
"345 62 OFFCURVE",
"298 140 OFFCURVE",
"276 178 CURVE",
"246 229 OFFCURVE",
"186 297 OFFCURVE",
"150 339 CURVE",
"113 382 OFFCURVE",
"93 444 OFFCURVE",
"77 445 CURVE",
"62 445 OFFCURVE",
"42 418 OFFCURVE",
"33 429 CURVE"
);
},
{
closed = 1;
nodes = (
"344 460 OFFCURVE",
"386 494 OFFCURVE",
"385 511 CURVE",
"384 532 OFFCURVE",
"348 561 OFFCURVE",
"349 584 CURVE",
"349 608 OFFCURVE",
"382 640 OFFCURVE",
"414 638 CURVE",
"435 638 OFFCURVE",
"460 608 OFFCURVE",
"460 593 CURVE",
"459 580 OFFCURVE",
"455 558 OFFCURVE",
"446 559 CURVE",
"437 560 OFFCURVE",
"423 597 OFFCURVE",
"405 597 CURVE",
"394 596 OFFCURVE",
"379 586 OFFCURVE",
"379 573 CURVE",
"379 536 OFFCURVE",
"435 517 OFFCURVE",
"436 497 CURVE",
"436 477 OFFCURVE",
"363 443 OFFCURVE",
"350 454 CURVE"
);
},
{
closed = 1;
nodes = (
"186 339 OFFCURVE",
"213 342 OFFCURVE",
"226 335 CURVE",
"242 327 OFFCURVE",
"254 307 OFFCURVE",
"280 291 CURVE",
"322 265 OFFCURVE",
"349 258 OFFCURVE",
"349 258 CURVE",
"349 258 OFFCURVE",
"329 306 OFFCURVE",
"313 331 CURVE",
"298 357 OFFCURVE",
"258 392 OFFCURVE",
"256 412 CURVE",
"254 430 OFFCURVE",
"269 447 OFFCURVE",
"285 447 CURVE",
"310 447 OFFCURVE",
"358 346 OFFCURVE",
"423 343 CURVE",
"475 341 OFFCURVE",
"476 493 OFFCURVE",
"564 494 CURVE",
"606 494 OFFCURVE",
"627 416 OFFCURVE",
"630 373 CURVE",
"635 315 OFFCURVE",
"700 196 OFFCURVE",
"799 184 CURVE",
"835 179 OFFCURVE",
"897 180 OFFCURVE",
"897 180 CURVE",
"897 180 OFFCURVE",
"769 138 OFFCURVE",
"709 166 CURVE",
"600 217 OFFCURVE",
"566 398 OFFCURVE",
"535 398 CURVE",
"484 399 OFFCURVE",
"465 312 OFFCURVE",
"432 312 CURVE",
"396 312 OFFCURVE",
"310 375 OFFCURVE",
"310 375 CURVE",
"310 375 OFFCURVE",
"351 308 OFFCURVE",
"374 286 CURVE",
"394 268 OFFCURVE",
"446 265 OFFCURVE",
"447 247 CURVE",
"449 209 OFFCURVE",
"371 185 OFFCURVE",
"357 193 CURVE",
"350 197 OFFCURVE",
"363 212 OFFCURVE",
"357 218 CURVE",
"339 239 OFFCURVE",
"226 297 OFFCURVE",
"226 297 CURVE",
"186 339 LINE"
);
}
);
width = 927;
}
);
unicode = 3056;
},
{
glyphname = "si-hira";
lastChange = "2020-04-30 23:40:18 +0000";
layers = (
{
layerId = "1305C52C-0BD1-483E-A343-C05F3AFF2931";
paths = (
{
closed = 1;
nodes = (
"237 141 OFFCURVE",
"255 166 OFFCURVE",
"260 181 CURVE",
"264 196 OFFCURVE",
"264 219 OFFCURVE",
"271 232 CURVE",
"277 244 OFFCURVE",
"291 258 OFFCURVE",
"302 258 CURVE",
"319 258 OFFCURVE",
"322 221 OFFCURVE",
"333 205 CURVE",
"347 185 OFFCURVE",
"408 134 OFFCURVE",
"402 127 CURVE",
"395 119 OFFCURVE",
"322 170 OFFCURVE",
"310 169 CURVE",
"297 168 OFFCURVE",
"261 130 OFFCURVE",
"244 138 CURVE"
);
},
{
closed = 1;
nodes = (
"418 109 OFFCURVE",
"437 111 OFFCURVE",
"437 123 CURVE",
"438 140 OFFCURVE",
"410 197 OFFCURVE",
"411 215 CURVE",
"412 230 OFFCURVE",
"418 241 OFFCURVE",
"429 240 CURVE",
"448 239 OFFCURVE",
"493 187 OFFCURVE",
"521 188 CURVE",
"548 188 OFFCURVE",
"563 241 OFFCURVE",
"600 241 CURVE",
"617 241 OFFCURVE",
"632 229 OFFCURVE",
"633 205 CURVE",
"635 188 OFFCURVE",
"614 171 OFFCURVE",
"616 144 CURVE",
"622 46 OFFCURVE",
"744 43 OFFCURVE",
"745 30 CURVE",
"745 17 OFFCURVE",
"674 25 OFFCURVE",
"620 66 CURVE",
"575 101 OFFCURVE",
"577 163 OFFCURVE",
"570 171 CURVE",
"566 177 OFFCURVE",
"547 151 OFFCURVE",
"532 150 CURVE",
"514 149 OFFCURVE",
"469 183 OFFCURVE",
"460 172 CURVE",
"449 159 OFFCURVE",
"508 130 OFFCURVE",
"508 113 CURVE",
"509 96 OFFCURVE",
"470 72 OFFCURVE",
"460 72 CURVE",
"445 72 OFFCURVE",
"419 81 OFFCURVE",
"418 95 CURVE"
);
},
{
closed = 1;
nodes = (
"20 234 OFFCURVE",
"41 296 OFFCURVE",
"51 324 CURVE",
"60 349 OFFCURVE",
"81 379 OFFCURVE",
"95 388 CURVE",
"106 396 OFFCURVE",
"126 391 OFFCURVE",
"134 384 CURVE",
"143 377 OFFCURVE",
"140 359 OFFCURVE",
"148 349 CURVE",
"154 341 OFFCURVE",
"166 336 OFFCURVE",
"176 336 CURVE",
"282 333 OFFCURVE",
"665 326 OFFCURVE",
"778 327 CURVE",
"794 328 OFFCURVE",
"817 358 OFFCURVE",
"848 358 CURVE",
"866 358 OFFCURVE",
"875 336 OFFCURVE",
"871 322 CURVE",
"861 278 OFFCURVE",
"821 275 OFFCURVE",
"800 276 CURVE",
"781 276 OFFCURVE",
"761 292 OFFCURVE",
"752 293 CURVE",
"717 293 OFFCURVE",
"283 296 OFFCURVE",
"179 294 CURVE",
"158 294 OFFCURVE",
"127 282 OFFCURVE",
"105 271 CURVE",
"80 259 OFFCURVE",
"46 217 OFFCURVE",
"35 224 CURVE"
);
},
{
closed = 1;
nodes = (
"243 497 OFFCURVE",
"268 530 OFFCURVE",
"288 542 CURVE",
"326 566 OFFCURVE",
"368 578 OFFCURVE",
"389 559 CURVE",
"407 541 OFFCURVE",
"362 518 OFFCURVE",
"370 493 CURVE",
"381 460 OFFCURVE",
"437 427 OFFCURVE",
"482 429 CURVE",
"591 434 OFFCURVE",
"648 559 OFFCURVE",
"659 612 CURVE",
"663 636 OFFCURVE",
"657 676 OFFCURVE",
"669 676 CURVE",
"679 676 OFFCURVE",
"684 584 OFFCURVE",
"675 558 CURVE",
"643 466 OFFCURVE",
"609 411 OFFCURVE",
"474 380 CURVE",
"379 359 OFFCURVE",
"284 473 OFFCURVE",
"269 479 CURVE",
"261 482 OFFCURVE",
"255 477 OFFCURVE",
"251 484 CURVE"
);
}
);
width = 902;
}
);
unicode = 3057;
},
{
glyphname = "zi-hira";
lastChange = "2020-04-30 23:40:13 +0000";
layers = (
{
layerId = "1305C52C-0BD1-483E-A343-C05F3AFF2931";
paths = (
{
closed = 1;
nodes = (
"30 220 OFFCURVE",
"38 292 OFFCURVE",
"49 322 CURVE",
"61 352 OFFCURVE",
"90 390 OFFCURVE",
"116 388 CURVE",
"133 387 OFFCURVE",
"137 331 OFFCURVE",
"155 331 CURVE",
"260 328 OFFCURVE",
"646 325 OFFCURVE",
"760 324 CURVE",
"784 324 OFFCURVE",
"790 351 OFFCURVE",
"832 352 CURVE",
"853 353 OFFCURVE",
"865 340 OFFCURVE",
"865 326 CURVE",
"866 301 OFFCURVE",
"822 271 OFFCURVE",
"797 271 CURVE",
"785 271 OFFCURVE",
"767 294 OFFCURVE",
"748 294 CURVE",
"641 294 OFFCURVE",
"263 295 OFFCURVE",
"151 293 CURVE",
"127 292 OFFCURVE",
"105 275 OFFCURVE",
"85 262 CURVE",
"65 251 OFFCURVE",
"30 220 OFFCURVE",
"30 220 CURVE"
);
},
{
closed = 1;
nodes = (
"233 140 OFFCURVE",
"250 156 OFFCURVE",
"254 167 CURVE",
"260 181 OFFCURVE",
"261 201 OFFCURVE",
"269 216 CURVE",
"275 229 OFFCURVE",
"286 246 OFFCURVE",
"299 246 CURVE",
"312 247 OFFCURVE",
"329 216 OFFCURVE",
"338 204 CURVE",
"344 196 OFFCURVE",
"344 184 OFFCURVE",
"349 176 CURVE",
"356 164 OFFCURVE",
"388 131 OFFCURVE",
"388 131 CURVE",
"388 131 OFFCURVE",
"368 134 OFFCURVE",
"358 138 CURVE",
"345 142 OFFCURVE",
"323 162 OFFCURVE",
"308 161 CURVE",
"293 160 OFFCURVE",
"283 139 OFFCURVE",
"271 134 CURVE",
"260 131 OFFCURVE",
"238 129 OFFCURVE",
"235 134 CURVE"
);
},
{
closed = 1;
nodes = (
"420 99 OFFCURVE",
"443 108 OFFCURVE",
"443 120 CURVE",
"443 138 OFFCURVE",
"411 189 OFFCURVE",
"411 207 CURVE",
"411 219 OFFCURVE",
"418 239 OFFCURVE",
"429 236 CURVE",
"447 231 OFFCURVE",
"490 179 OFFCURVE",
"518 179 CURVE",
"545 180 OFFCURVE",
"560 237 OFFCURVE",
"595 237 CURVE",
"612 237 OFFCURVE",
"627 218 OFFCURVE",
"627 204 CURVE",
"627 191 OFFCURVE",
"605 174 OFFCURVE",
"605 158 CURVE",
"603 42 OFFCURVE",
"746 23 OFFCURVE",
"746 23 CURVE",
"746 23 OFFCURVE",
"694 4 OFFCURVE",
"617 70 CURVE",
"567 113 OFFCURVE",
"583 172 OFFCURVE",
"567 174 CURVE",
"552 175 OFFCURVE",
"537 154 OFFCURVE",
"522 154 CURVE",
"503 155 OFFCURVE",
"449 185 OFFCURVE",
"449 185 CURVE",
"449 185 OFFCURVE",
"446 166 OFFCURVE",
"458 154 CURVE",
"468 143 OFFCURVE",
"500 126 OFFCURVE",
"500 112 CURVE",
"499 98 OFFCURVE",
"470 80 OFFCURVE",
"457 77 CURVE",
"444 73 OFFCURVE",
"419 83 OFFCURVE",
"420 91 CURVE"
);
},
{
closed = 1;
nodes = (
"139 451 OFFCURVE",
"170 478 OFFCURVE",
"169 498 CURVE",
"168 520 OFFCURVE",
"137 551 OFFCURVE",
"138 577 CURVE",
"139 603 OFFCURVE",
"179 635 OFFCURVE",
"203 635 CURVE",
"237 634 OFFCURVE",
"251 608 OFFCURVE",
"252 587 CURVE",
"253 574 OFFCURVE",
"246 549 OFFCURVE",
"236 549 CURVE",
"223 549 OFFCURVE",
"209 593 OFFCURVE",
"194 593 CURVE",
"182 593 OFFCURVE",
"167 580 OFFCURVE",
"167 564 CURVE",
"167 546 OFFCURVE",
"227 513 OFFCURVE",
"227 492 CURVE",
"226 467 OFFCURVE",
"151 435 OFFCURVE",
"145 443 CURVE"
);
},
{
closed = 1;
nodes = (
"247 500 OFFCURVE",
"276 537 OFFCURVE",
"298 549 CURVE",
"320 562 OFFCURVE",
"375 575 OFFCURVE",
"383 564 CURVE",
"398 543 OFFCURVE",
"364 519 OFFCURVE",
"364 500 CURVE",
"365 467 OFFCURVE",
"415 427 OFFCURVE",
"475 426 CURVE",
"566 424 OFFCURVE",
"624 511 OFFCURVE",
"649 584 CURVE",
"665 635 OFFCURVE",
"661 681 OFFCURVE",
"661 681 CURVE",
"661 681 OFFCURVE",
"690 643 OFFCURVE",
"672 565 CURVE",
"655 490 OFFCURVE",
"573 390 OFFCURVE",
"469 380 CURVE",
"399 373 OFFCURVE",
"307 446 OFFCURVE",
"283 474 CURVE",
"274 484 OFFCURVE",
"255 483 OFFCURVE",
"251 491 CURVE"
);
}
);
width = 895;
}
);
unicode = 3058;
},
{
glyphname = "su-hira";
lastChange = "2020-04-30 23:40:06 +0000";
layers = (
{
layerId = "1305C52C-0BD1-483E-A343-C05F3AFF2931";
paths = (
{
closed = 1;
nodes = (
"27 250 OFFCURVE",
"28 297 OFFCURVE",
"39 318 CURVE",
"52 342 OFFCURVE",
"92 387 OFFCURVE",
"113 393 CURVE",
"128 398 OFFCURVE",
"146 384 OFFCURVE",
"150 373 CURVE",
"156 360 OFFCURVE",
"147 350 OFFCURVE",
"150 336 CURVE",
"153 319 OFFCURVE",
"172 294 OFFCURVE",
"176 279 CURVE",
"178 270 OFFCURVE",
"179 252 OFFCURVE",
"168 249 CURVE",
"154 245 OFFCURVE",
"107 287 OFFCURVE",
"84 288 CURVE",
"53 289 OFFCURVE",
"57 241 OFFCURVE",
"36 247 CURVE"
);
},
{
closed = 1;
nodes = (
"181 419 OFFCURVE",
"198 464 OFFCURVE",
"222 462 CURVE",
"258 459 OFFCURVE",
"284 326 OFFCURVE",
"338 328 CURVE",
"385 329 OFFCURVE",
"366 459 OFFCURVE",
"455 457 CURVE",
"532 455 OFFCURVE",
"597 285 OFFCURVE",
"597 285 CURVE",
"597 285 OFFCURVE",
"659 310 OFFCURVE",
"653 344 CURVE",
"649 370 OFFCURVE",
"613 435 OFFCURVE",
"575 494 CURVE",
"529 568 OFFCURVE",
"479 636 OFFCURVE",
"483 639 CURVE",
"495 647 OFFCURVE",
"551 595 OFFCURVE",
"600 527 CURVE",
"639 473 OFFCURVE",
"645 430 OFFCURVE",
"702 386 CURVE",
"718 374 OFFCURVE",
"748 379 OFFCURVE",
"754 344 CURVE",
"757 326 OFFCURVE",
"704 286 OFFCURVE",
"681 280 CURVE",
"669 276 OFFCURVE",
"606 265 OFFCURVE",
"606 265 CURVE",
"606 265 OFFCURVE",
"644 193 OFFCURVE",
"672 163 CURVE",
"699 133 OFFCURVE",
"726 95 OFFCURVE",
"773 89 CURVE",
"836 81 OFFCURVE",
"877 97 OFFCURVE",
"881 88 CURVE",
"886 79 OFFCURVE",
"826 61 OFFCURVE",
"800 61 CURVE",
"732 58 OFFCURVE",
"684 94 OFFCURVE",
"640 132 CURVE",
"581 183 OFFCURVE",
"503 368 OFFCURVE",
"443 369 CURVE",
"400 369 OFFCURVE",
"376 294 OFFCURVE",
"343 291 CURVE",
"309 288 OFFCURVE",
"238 356 OFFCURVE",
"238 356 CURVE",
"238 356 OFFCURVE",
"254 318 OFFCURVE",
"292 256 CURVE",
"299 246 OFFCURVE",
"326 245 OFFCURVE",
"329 226 CURVE",
"331 212 OFFCURVE",
"307 180 OFFCURVE",
"292 169 CURVE",
"279 160 OFFCURVE",
"249 160 OFFCURVE",
"243 170 CURVE",
"237 180 OFFCURVE",
"264 181 OFFCURVE",
"255 229 CURVE",
"249 263 OFFCURVE",
"216 341 OFFCURVE",
"200 364 CURVE",
"196 371 OFFCURVE",
"185 372 OFFCURVE",
"181 378 CURVE",
"177 383 OFFCURVE",
"173 394 OFFCURVE",
"176 403 CURVE"
);
}
);
width = 911;
}
);
unicode = 3059;
},
{
glyphname = "zu-hira";
lastChange = "2020-04-30 23:39:58 +0000";
layers = (
{
layerId = "1305C52C-0BD1-483E-A343-C05F3AFF2931";
paths = (
{
closed = 1;
nodes = (
"575 250 OFFCURVE",
"650 307 OFFCURVE",
"649 333 CURVE",
"647 374 OFFCURVE",
"484 625 OFFCURVE",
"484 625 CURVE",
"484 625 OFFCURVE",
"527 615 OFFCURVE",
"603 497 CURVE",
"626 462 OFFCURVE",
"672 395 OFFCURVE",
"694 374 CURVE",
"708 360 OFFCURVE",
"746 356 OFFCURVE",
"747 340 CURVE",
"748 322 OFFCURVE",
"719 292 OFFCURVE",
"686 273 CURVE",
"667 262 OFFCURVE",
"575 250 OFFCURVE",
"575 250 CURVE"
);
},
{
closed = 1;
nodes = (
"24 247 OFFCURVE",
"46 305 OFFCURVE",
"67 333 CURVE",
"80 350 OFFCURVE",
"114 377 OFFCURVE",
"126 376 CURVE",
"146 375 OFFCURVE",
"137 337 OFFCURVE",
"141 322 CURVE",
"148 299 OFFCURVE",
"176 252 OFFCURVE",
"165 243 CURVE",
"157 236 OFFCURVE",
"111 283 OFFCURVE",
"87 282 CURVE",
"57 281 OFFCURVE",
"37 232 OFFCURVE",
"31 239 CURVE"
);
},
{
closed = 1;
nodes = (
"237 159 OFFCURVE",
"259 184 OFFCURVE",
"258 201 CURVE",
"253 262 OFFCURVE",
"181 361 OFFCURVE",
"182 403 CURVE",
"183 429 OFFCURVE",
"212 448 OFFCURVE",
"222 448 CURVE",
"232 447 OFFCURVE",
"235 406 OFFCURVE",
"245 393 CURVE",
"263 369 OFFCURVE",
"301 308 OFFCURVE",
"331 309 CURVE",
"386 310 OFFCURVE",
"371 447 OFFCURVE",
"447 442 CURVE",
"539 435 OFFCURVE",
"564 306 OFFCURVE",
"610 228 CURVE",
"654 154 OFFCURVE",
"724 75 OFFCURVE",
"800 69 CURVE",
"831 67 OFFCURVE",
"894 86 OFFCURVE",
"894 86 CURVE",
"894 86 OFFCURVE",
"850 46 OFFCURVE",
"781 45 CURVE",
"727 44 OFFCURVE",
"641 112 OFFCURVE",
"597 173 CURVE",
"551 237 OFFCURVE",
"475 365 OFFCURVE",
"440 367 CURVE",
"394 368 OFFCURVE",
"377 279 OFFCURVE",
"329 281 CURVE",
"296 283 OFFCURVE",
"235 352 OFFCURVE",
"235 352 CURVE",
"235 352 OFFCURVE",
"256 284 OFFCURVE",
"286 244 CURVE",
"295 232 OFFCURVE",
"323 230 OFFCURVE",
"324 215 CURVE",
"324 200 OFFCURVE",
"306 171 OFFCURVE",
"292 161 CURVE",
"279 151 OFFCURVE",
"247 144 OFFCURVE",
"242 152 CURVE"
);
},
{
closed = 1;
nodes = (
"272 474 OFFCURVE",
"306 499 OFFCURVE",
"305 518 CURVE",
"303 560 OFFCURVE",
"278 572 OFFCURVE",
"278 596 CURVE",
"279 627 OFFCURVE",
"311 657 OFFCURVE",
"342 656 CURVE",
"361 655 OFFCURVE",
"385 629 OFFCURVE",
"385 613 CURVE",
"385 596 OFFCURVE",
"381 574 OFFCURVE",
"372 574 CURVE",
"364 573 OFFCURVE",
"354 610 OFFCURVE",
"331 610 CURVE",
"320 610 OFFCURVE",
"307 599 OFFCURVE",
"307 588 CURVE",
"308 549 OFFCURVE",
"359 530 OFFCURVE",
"359 511 CURVE",
"359 490 OFFCURVE",
"285 461 OFFCURVE",
"279 467 CURVE"
);
}
);
width = 924;
}
);
unicode = 305A;
},
{
glyphname = "se-hira";
lastChange = "2020-04-30 23:39:47 +0000";
layers = (
{
layerId = "1305C52C-0BD1-483E-A343-C05F3AFF2931";
paths = (
{
closed = 1;
nodes = (
"268 126 OFFCURVE",
"320 115 OFFCURVE",
"320 142 CURVE",
"319 164 OFFCURVE",
"282 224 OFFCURVE",
"277 248 CURVE",
"273 265 OFFCURVE",
"281 282 OFFCURVE",
"294 283 CURVE",
"315 285 OFFCURVE",
"364 209 OFFCURVE",
"413 213 CURVE",
"464 216 OFFCURVE",
"461 290 OFFCURVE",
"530 291 CURVE",
"552 292 OFFCURVE",
"574 264 OFFCURVE",
"576 249 CURVE",
"579 231 OFFCURVE",
"572 214 OFFCURVE",
"572 198 CURVE",
"572 88 OFFCURVE",
"700 75 OFFCURVE",
"702 61 CURVE",
"704 47 OFFCURVE",
"622 46 OFFCURVE",
"558 116 CURVE",
"518 161 OFFCURVE",
"540 205 OFFCURVE",
"504 219 CURVE",
"488 226 OFFCURVE",
"451 181 OFFCURVE",
"424 179 CURVE",
"398 176 OFFCURVE",
"344 206 OFFCURVE",
"344 206 CURVE",
"344 206 OFFCURVE",
"353 186 OFFCURVE",
"360 177 CURVE",
"369 166 OFFCURVE",
"403 151 OFFCURVE",
"403 138 CURVE",
"403 113 OFFCURVE",
"376 78 OFFCURVE",
"350 78 CURVE",
"328 79 OFFCURVE",
"278 98 OFFCURVE",
"273 113 CURVE"
);
},
{
closed = 1;
nodes = (
"342 319 OFFCURVE",
"386 369 OFFCURVE",
"410 383 CURVE",
"423 391 OFFCURVE",
"449 396 OFFCURVE",
"455 385 CURVE",
"471 359 OFFCURVE",
"434 276 OFFCURVE",
"424 278 CURVE",
"410 281 OFFCURVE",
"420 308 OFFCURVE",
"403 315 CURVE",
"390 320 OFFCURVE",
"354 299 OFFCURVE",
"347 310 CURVE"
);
},
{
closed = 1;
nodes = (
"118 180 OFFCURVE",
"146 193 OFFCURVE",
"140 201 CURVE",
"131 213 OFFCURVE",
"35 243 OFFCURVE",
"30 325 CURVE",
"28 358 OFFCURVE",
"74 392 OFFCURVE",
"87 391 CURVE",
"128 391 OFFCURVE",
"194 391 OFFCURVE",
"243 390 CURVE",
"310 390 OFFCURVE",
"342 498 OFFCURVE",
"361 564 CURVE",
"380 632 OFFCURVE",
"407 649 OFFCURVE",
"452 648 CURVE",
"491 647 OFFCURVE",
"530 622 OFFCURVE",
"539 561 CURVE",
"547 501 OFFCURVE",
"589 434 OFFCURVE",
"629 392 CURVE",
"683 334 OFFCURVE",
"731 322 OFFCURVE",
"786 321 CURVE",
"816 320 OFFCURVE",
"876 334 OFFCURVE",
"879 327 CURVE",
"882 321 OFFCURVE",
"792 296 OFFCURVE",
"748 297 CURVE",
"672 299 OFFCURVE",
"612 323 OFFCURVE",
"554 383 CURVE",
"489 449 OFFCURVE",
"464 547 OFFCURVE",
"435 546 CURVE",
"399 544 OFFCURVE",
"380 448 OFFCURVE",
"339 405 CURVE",
"322 388 OFFCURVE",
"266 360 OFFCURVE",
"234 360 CURVE",
"192 360 OFFCURVE",
"116 364 OFFCURVE",
"85 364 CURVE",
"71 364 OFFCURVE",
"50 347 OFFCURVE",
"52 322 CURVE",
"54 294 OFFCURVE",
"100 259 OFFCURVE",
"150 258 CURVE",
"176 257 OFFCURVE",
"209 259 OFFCURVE",
"222 251 CURVE",
"232 245 OFFCURVE",
"228 229 OFFCURVE",
"223 216 CURVE",
"218 205 OFFCURVE",
"205 187 OFFCURVE",
"188 177 CURVE",
"172 169 OFFCURVE",
"137 165 OFFCURVE",
"126 174 CURVE"
);
}
);
width = 909;
}
);
unicode = 305B;
},
{
glyphname = "ze-hira";
lastChange = "2020-04-30 23:38:58 +0000";
layers = (
{
layerId = "1305C52C-0BD1-483E-A343-C05F3AFF2931";
paths = (
{
closed = 1;
nodes = (
"285 111 OFFCURVE",
"327 110 OFFCURVE",
"326 136 CURVE",
"326 159 OFFCURVE",
"277 224 OFFCURVE",
"277 248 CURVE",
"277 260 OFFCURVE",
"285 276 OFFCURVE",
"296 276 CURVE",
"313 277 OFFCURVE",
"361 195 OFFCURVE",
"409 197 CURVE",
"458 199 OFFCURVE",
"479 284 OFFCURVE",
"522 283 CURVE",
"546 283 OFFCURVE",
"569 250 OFFCURVE",
"570 233 CURVE",
"572 217 OFFCURVE",
"562 203 OFFCURVE",
"566 185 CURVE",
"595 37 OFFCURVE",
"720 60 OFFCURVE",
"720 60 CURVE",
"720 60 OFFCURVE",
"651 19 OFFCURVE",
"560 108 CURVE",
"532 136 OFFCURVE",
"533 212 OFFCURVE",
"502 212 CURVE",
"477 211 OFFCURVE",
"447 177 OFFCURVE",
"419 176 CURVE",
"391 175 OFFCURVE",
"334 208 OFFCURVE",
"334 208 CURVE",
"334 208 OFFCURVE",
"346 171 OFFCURVE",
"373 151 CURVE",
"382 144 OFFCURVE",
"400 139 OFFCURVE",
"400 128 CURVE",
"401 114 OFFCURVE",
"367 75 OFFCURVE",
"347 75 CURVE",
"324 75 OFFCURVE",
"285 91 OFFCURVE",
"285 102 CURVE"
);
},
{
closed = 1;
nodes = (
"345 314 OFFCURVE",
"362 325 OFFCURVE",
"377 345 CURVE",
"392 364 OFFCURVE",
"399 389 OFFCURVE",
"431 389 CURVE",
"445 389 OFFCURVE",
"458 372 OFFCURVE",
"459 358 CURVE",
"460 340 OFFCURVE",
"440 280 OFFCURVE",
"427 279 CURVE",
"415 279 OFFCURVE",
"415 305 OFFCURVE",
"401 310 CURVE",
"377 318 OFFCURVE",
"356 293 OFFCURVE",
"349 306 CURVE"
);
},
{
closed = 1;
nodes = (
"123 175 OFFCURVE",
"141 182 OFFCURVE",
"141 191 CURVE",
"140 203 OFFCURVE",
"95 215 OFFCURVE",
"77 232 CURVE",
"56 251 OFFCURVE",
"30 291 OFFCURVE",
"30 319 CURVE",
"29 348 OFFCURVE",
"37 383 OFFCURVE",
"138 381 CURVE",
"291 379 OFFCURVE",
"272 390 OFFCURVE",
"297 413 CURVE",
"348 459 OFFCURVE",
"343 655 OFFCURVE",
"447 650 CURVE",
"531 647 OFFCURVE",
"528 549 OFFCURVE",
"565 462 CURVE",
"594 397 OFFCURVE",
"658 317 OFFCURVE",
"766 313 CURVE",
"805 312 OFFCURVE",
"881 329 OFFCURVE",
"881 329 CURVE",
"881 329 OFFCURVE",
"780 289 OFFCURVE",
"727 291 CURVE",
"547 295 OFFCURVE",
"461 548 OFFCURVE",
"434 548 CURVE",
"404 548 OFFCURVE",
"393 510 OFFCURVE",
"376 469 CURVE",
"352 414 OFFCURVE",
"316 350 OFFCURVE",
"205 354 CURVE",
"131 356 OFFCURVE",
"49 363 OFFCURVE",
"49 329 CURVE",
"49 309 OFFCURVE",
"70 246 OFFCURVE",
"151 247 CURVE",
"175 247 OFFCURVE",
"214 260 OFFCURVE",
"221 241 CURVE",
"231 218 OFFCURVE",
"202 187 OFFCURVE",
"187 175 CURVE",
"173 164 OFFCURVE",
"130 162 OFFCURVE",
"126 168 CURVE"
);
},
{
closed = 1;
nodes = (
"171 469 OFFCURVE",
"207 494 OFFCURVE",
"207 514 CURVE",
"206 544 OFFCURVE",
"177 571 OFFCURVE",
"176 595 CURVE",
"176 622 OFFCURVE",
"218 651 OFFCURVE",
"241 650 CURVE",
"260 650 OFFCURVE",
"288 632 OFFCURVE",
"288 600 CURVE",
"289 583 OFFCURVE",
"284 562 OFFCURVE",
"275 563 CURVE",
"266 564 OFFCURVE",
"247 607 OFFCURVE",
"235 607 CURVE",
"223 606 OFFCURVE",
"207 595 OFFCURVE",
"207 580 CURVE",
"206 550 OFFCURVE",
"262 524 OFFCURVE",
"261 505 CURVE",
"260 484 OFFCURVE",
"184 452 OFFCURVE",
"178 460 CURVE"
);
}
);
width = 911;
}
);
unicode = 305C;
},
{
glyphname = "so-hira";
lastChange = "2020-04-30 23:38:51 +0000";
layers = (
{
layerId = "1305C52C-0BD1-483E-A343-C05F3AFF2931";
paths = (
{
closed = 1;
nodes = (
"27 306 OFFCURVE",
"29 334 OFFCURVE",
"34 350 CURVE",
"40 368 OFFCURVE",
"56 401 OFFCURVE",
"70 403 CURVE",
"113 410 OFFCURVE",
"122 375 OFFCURVE",
"131 367 CURVE",
"161 343 OFFCURVE",
"227 247 OFFCURVE",
"251 247 CURVE",
"273 247 OFFCURVE",
"246 312 OFFCURVE",
"300 347 CURVE",
"331 368 OFFCURVE",
"379 387 OFFCURVE",
"421 388 CURVE",
"469 389 OFFCURVE",
"531 372 OFFCURVE",
"579 372 CURVE",
"680 371 OFFCURVE",
"806 431 OFFCURVE",
"808 536 CURVE",
"809 628 OFFCURVE",
"747 689 OFFCURVE",
"757 695 CURVE",
"766 700 OFFCURVE",
"866 598 OFFCURVE",
"870 557 CURVE",
"887 384 OFFCURVE",
"769 317 OFFCURVE",
"633 308 CURVE",
"563 303 OFFCURVE",
"480 335 OFFCURVE",
"424 336 CURVE",
"355 337 OFFCURVE",
"297 317 OFFCURVE",
"296 247 CURVE",
"295 190 OFFCURVE",
"381 201 OFFCURVE",
"372 148 CURVE",
"366 117 OFFCURVE",
"320 141 OFFCURVE",
"297 156 CURVE",
"280 168 OFFCURVE",
"277 194 OFFCURVE",
"211 246 CURVE",
"179 272 OFFCURVE",
"131 310 OFFCURVE",
"104 312 CURVE",
"77 314 OFFCURVE",
"65 285 OFFCURVE",
"39 299 CURVE"
);
},
{
closed = 1;
nodes = (
"368 78 OFFCURVE",
"419 67 OFFCURVE",
"418 97 CURVE",
"417 119 OFFCURVE",
"376 178 OFFCURVE",
"375 201 CURVE",
"374 222 OFFCURVE",
"385 237 OFFCURVE",
"400 237 CURVE",
"408 237 OFFCURVE",
"460 155 OFFCURVE",
"504 158 CURVE",
"532 160 OFFCURVE",
"547 243 OFFCURVE",
"606 243 CURVE",
"629 243 OFFCURVE",
"648 206 OFFCURVE",
"648 189 CURVE",
"648 117 OFFCURVE",
"650 95 OFFCURVE",
"709 53 CURVE",
"768 11 OFFCURVE",
"796 26 OFFCURVE",
"798 13 CURVE",
"800 -1 OFFCURVE",
"732 2 OFFCURVE",
"653 61 CURVE",
"620 85 OFFCURVE",
"605 163 OFFCURVE",
"587 165 CURVE",
"546 168 OFFCURVE",
"540 129 OFFCURVE",
"516 127 CURVE",
"493 126 OFFCURVE",
"448 159 OFFCURVE",
"444 152 CURVE",
"432 132 OFFCURVE",
"492 105 OFFCURVE",
"492 83 CURVE",
"492 62 OFFCURVE",
"459 32 OFFCURVE",
"438 32 CURVE",
"415 32 OFFCURVE",
"368 50 OFFCURVE",
"368 64 CURVE"
);
}
);
width = 902;
}
);
unicode = 305D;
},
{
glyphname = "zo-hira";
lastChange = "2020-04-30 23:38:45 +0000";
layers = (
{
layerId = "1305C52C-0BD1-483E-A343-C05F3AFF2931";
paths = (
{
closed = 1;
nodes = (
"378 56 LINE",
"379 66 OFFCURVE",
"423 67 OFFCURVE",
"421 92 CURVE",
"419 115 OFFCURVE",
"376 178 OFFCURVE",
"376 200 CURVE",
"376 214 OFFCURVE",
"381 224 OFFCURVE",
"393 224 CURVE",
"413 225 OFFCURVE",
"442 147 OFFCURVE",
"505 148 CURVE",
"543 149 OFFCURVE",
"548 240 OFFCURVE",
"607 239 CURVE",
"636 239 OFFCURVE",
"645 197 OFFCURVE",
"646 176 CURVE",
"650 28 OFFCURVE",
"787 5 OFFCURVE",
"787 5 CURVE",
"787 5 OFFCURVE",
"698 2 OFFCURVE",
"645 63 CURVE",
"618 94 OFFCURVE",
"601 163 OFFCURVE",
"582 163 CURVE",
"555 163 OFFCURVE",
"538 123 OFFCURVE",
"514 122 CURVE",
"489 121 OFFCURVE",
"433 155 OFFCURVE",
"433 155 CURVE",
"433 155 OFFCURVE",
"446 123 OFFCURVE",
"461 108 CURVE",
"469 99 OFFCURVE",
"490 94 OFFCURVE",
"490 84 CURVE",
"490 62 OFFCURVE",
"462 23 OFFCURVE",
"442 22 CURVE",
"423 22 OFFCURVE",
"376 44 OFFCURVE",
"378 56 CURVE"
);
},
{
closed = 1;
nodes = (
"31 296 LINE",
"26 310 OFFCURVE",
"42 350 OFFCURVE",
"52 368 CURVE",
"61 385 OFFCURVE",
"72 406 OFFCURVE",
"91 404 CURVE",
"118 400 OFFCURVE",
"116 361 OFFCURVE",
"185 299 CURVE",
"211 277 OFFCURVE",
"266 238 OFFCURVE",
"266 238 CURVE",
"266 238 OFFCURVE",
"258 307 OFFCURVE",
"296 341 CURVE",
"325 366 OFFCURVE",
"367 394 OFFCURVE",
"486 378 CURVE",
"753 342 OFFCURVE",
"799 482 OFFCURVE",
"803 504 CURVE",
"821 607 OFFCURVE",
"755 696 OFFCURVE",
"755 696 CURVE",
"755 696 OFFCURVE",
"871 599 OFFCURVE",
"869 511 CURVE",
"866 394 OFFCURVE",
"759 301 OFFCURVE",
"652 305 CURVE",
"574 307 OFFCURVE",
"475 332 OFFCURVE",
"418 334 CURVE",
"327 337 OFFCURVE",
"301 289 OFFCURVE",
"296 259 CURVE",
"287 198 OFFCURVE",
"363 173 OFFCURVE",
"364 151 CURVE",
"364 143 OFFCURVE",
"351 136 OFFCURVE",
"343 136 CURVE",
"302 134 OFFCURVE",
"276 186 OFFCURVE",
"276 186 CURVE",
"276 186 OFFCURVE",
"227 232 OFFCURVE",
"200 253 CURVE",
"172 275 OFFCURVE",
"128 315 OFFCURVE",
"107 316 CURVE",
"81 316 OFFCURVE",
"83 300 OFFCURVE",
"70 297 CURVE",
"58 294 OFFCURVE",
"35 285 OFFCURVE",
"31 296 CURVE"
);
},
{
closed = 1;
nodes = (
"201 358 LINE",
"197 366 OFFCURVE",
"230 386 OFFCURVE",
"230 408 CURVE",
"231 429 OFFCURVE",
"199 463 OFFCURVE",
"199 487 CURVE",
"200 513 OFFCURVE",
"238 551 OFFCURVE",
"269 552 CURVE",
"291 552 OFFCURVE",
"313 514 OFFCURVE",
"314 498 CURVE",
"314 483 OFFCURVE",
"305 460 OFFCURVE",
"295 460 CURVE",
"282 460 OFFCURVE",
"270 500 OFFCURVE",
"256 500 CURVE",
"246 500 OFFCURVE",
"232 492 OFFCURVE",
"233 477 CURVE",
"233 441 OFFCURVE",
"287 420 OFFCURVE",
"287 399 CURVE",
"287 371 OFFCURVE",
"205 349 OFFCURVE",
"201 358 CURVE"
);
}
);
width = 899;
}
);
unicode = 305E;
},
{
glyphname = "ta-hira";
lastChange = "2020-04-30 23:38:36 +0000";
layers = (
{
layerId = "1305C52C-0BD1-483E-A343-C05F3AFF2931";
paths = (
{
closed = 1;
nodes = (
"19 283 OFFCURVE",
"85 390 OFFCURVE",
"107 414 CURVE",
"119 428 OFFCURVE",
"140 431 OFFCURVE",
"151 427 CURVE",
"171 420 OFFCURVE",
"162 394 OFFCURVE",
"174 387 CURVE",
"191 376 OFFCURVE",
"245 368 OFFCURVE",
"273 367 CURVE",
"328 365 OFFCURVE",
"518 361 OFFCURVE",
"518 361 CURVE",
"518 361 OFFCURVE",
"464 437 OFFCURVE",
"436 468 CURVE",
"394 516 OFFCURVE",
"368 526 OFFCURVE",
"341 536 CURVE",
"313 547 OFFCURVE",
"287 518 OFFCURVE",
"276 528 CURVE",
"262 540 OFFCURVE",
"282 591 OFFCURVE",
"296 613 CURVE",
"309 632 OFFCURVE",
"340 650 OFFCURVE",
"358 649 CURVE",
"408 645 OFFCURVE",
"396 605 OFFCURVE",
"405 584 CURVE",
"419 554 OFFCURVE",
"445 523 OFFCURVE",
"473 492 CURVE",
"521 438 OFFCURVE",
"553 362 OFFCURVE",
"553 362 CURVE",
"553 362 OFFCURVE",
"764 363 OFFCURVE",
"814 362 CURVE",
"821 362 OFFCURVE",
"831 373 OFFCURVE",
"845 372 CURVE",
"849 372 OFFCURVE",
"887 374 OFFCURVE",
"888 364 CURVE",
"890 353 OFFCURVE",
"871 324 OFFCURVE",
"858 315 CURVE",
"846 306 OFFCURVE",
"821 308 OFFCURVE",
"809 309 CURVE",
"799 310 OFFCURVE",
"792 324 OFFCURVE",
"783 324 CURVE",
"741 325 OFFCURVE",
"564 330 OFFCURVE",
"564 330 CURVE",
"564 330 OFFCURVE",
"582 290 OFFCURVE",
"589 271 CURVE",
"596 251 OFFCURVE",
"615 206 OFFCURVE",
"606 206 CURVE",
"599 205 OFFCURVE",
"586 238 OFFCURVE",
"569 270 CURVE",
"554 299 OFFCURVE",
"533 330 OFFCURVE",
"533 330 CURVE",
"479 330 LINE",
"479 330 OFFCURVE",
"482 315 OFFCURVE",
"485 312 CURVE",
"490 307 OFFCURVE",
"491 301 OFFCURVE",
"492 288 CURVE",
"496 256 OFFCURVE",
"489 220 OFFCURVE",
"503 215 CURVE",
"530 204 OFFCURVE",
"549 204 OFFCURVE",
"609 162 CURVE",
"643 138 OFFCURVE",
"709 85 OFFCURVE",
"708 81 CURVE",
"706 76 OFFCURVE",
"633 125 OFFCURVE",
"602 141 CURVE",
"575 155 OFFCURVE",
"509 180 OFFCURVE",
"509 180 CURVE",
"509 180 OFFCURVE",
"527 135 OFFCURVE",
"535 119 CURVE",
"543 100 OFFCURVE",
"566 80 OFFCURVE",
"568 68 CURVE",
"570 58 OFFCURVE",
"552 51 OFFCURVE",
"542 52 CURVE",
"510 53 OFFCURVE",
"506 70 OFFCURVE",
"495 76 CURVE",
"467 90 OFFCURVE",
"378 131 OFFCURVE",
"378 138 CURVE",
"379 145 OFFCURVE",
"423 135 OFFCURVE",
"442 132 CURVE",
"457 129 OFFCURVE",
"485 117 OFFCURVE",
"485 117 CURVE",
"442 188 LINE",
"442 188 OFFCURVE",
"393 188 OFFCURVE",
"364 183 CURVE",
"336 179 OFFCURVE",
"299 140 OFFCURVE",
"281 135 CURVE",
"263 131 OFFCURVE",
"239 137 OFFCURVE",
"239 153 CURVE",
"239 172 OFFCURVE",
"267 232 OFFCURVE",
"284 250 CURVE",
"296 263 OFFCURVE",
"324 258 OFFCURVE",
"335 255 CURVE",
"340 254 OFFCURVE",
"345 238 OFFCURVE",
"351 238 CURVE",
"365 237 OFFCURVE",
"422 238 OFFCURVE",
"422 238 CURVE",
"422 238 OFFCURVE",
"410 263 OFFCURVE",
"413 282 CURVE",
"415 299 OFFCURVE",
"452 330 OFFCURVE",
"452 330 CURVE",
"452 330 OFFCURVE",
"246 329 OFFCURVE",
"177 326 CURVE",
"138 325 OFFCURVE",
"135 312 OFFCURVE",
"111 297 CURVE",
"94 285 OFFCURVE",
"70 284 OFFCURVE",
"60 265 CURVE",
"56 257 OFFCURVE",
"37 257 OFFCURVE",
"32 265 CURVE"
);
}
);
width = 918;
}
);
unicode = 305F;
},
{
glyphname = "da-hira";
lastChange = "2020-04-30 23:38:29 +0000";
layers = (
{
layerId = "1305C52C-0BD1-483E-A343-C05F3AFF2931";
paths = (
{
closed = 1;
nodes = (
"384 139 LINE",
"384 139 OFFCURVE",
"428 128 OFFCURVE",
"446 123 CURVE",
"463 119 OFFCURVE",
"496 111 OFFCURVE",
"496 111 CURVE",
"496 111 OFFCURVE",
"481 147 OFFCURVE",
"468 167 CURVE",
"454 192 OFFCURVE",
"411 232 OFFCURVE",
"410 259 CURVE",
"410 286 OFFCURVE",
"435 329 OFFCURVE",
"461 329 CURVE",
"476 329 OFFCURVE",
"491 299 OFFCURVE",
"492 288 CURVE",
"492 276 OFFCURVE",
"486 258 OFFCURVE",
"486 247 CURVE",
"487 221 OFFCURVE",
"527 126 OFFCURVE",
"544 101 CURVE",
"551 92 OFFCURVE",
"564 82 OFFCURVE",
"564 74 CURVE",
"565 65 OFFCURVE",
"554 50 OFFCURVE",
"544 50 CURVE",
"516 49 OFFCURVE",
"513 71 OFFCURVE",
"497 79 CURVE",
"479 89 OFFCURVE",
"384 139 OFFCURVE",
"384 139 CURVE"
);
},
{
closed = 1;
nodes = (
"254 143 LINE",
"239 165 OFFCURVE",
"263 203 OFFCURVE",
"272 222 CURVE",
"280 238 OFFCURVE",
"297 258 OFFCURVE",
"312 258 CURVE",
"325 258 OFFCURVE",
"336 241 OFFCURVE",
"351 239 CURVE",
"386 234 OFFCURVE",
"483 221 OFFCURVE",
"536 199 CURVE",
"593 174 OFFCURVE",
"695 90 OFFCURVE",
"695 90 CURVE",
"695 90 OFFCURVE",
"564 166 OFFCURVE",
"508 180 CURVE",
"463 192 OFFCURVE",
"402 192 OFFCURVE",
"366 190 CURVE",
"342 189 OFFCURVE",
"310 150 OFFCURVE",
"292 142 CURVE",
"282 137 OFFCURVE",
"260 134 OFFCURVE",
"254 143 CURVE"
);
},
{
closed = 1;
nodes = (
"30 271 LINE",
"27 276 OFFCURVE",
"42 290 OFFCURVE",
"47 300 CURVE",
"56 319 OFFCURVE",
"75 362 OFFCURVE",
"90 383 CURVE",
"102 400 OFFCURVE",
"126 425 OFFCURVE",
"140 424 CURVE",
"153 424 OFFCURVE",
"161 399 OFFCURVE",
"174 390 CURVE",
"196 373 OFFCURVE",
"235 364 OFFCURVE",
"279 363 CURVE",
"385 362 OFFCURVE",
"713 361 OFFCURVE",
"808 363 CURVE",
"821 364 OFFCURVE",
"833 374 OFFCURVE",
"847 375 CURVE",
"861 376 OFFCURVE",
"892 376 OFFCURVE",
"891 364 CURVE",
"891 353 OFFCURVE",
"858 315 OFFCURVE",
"828 314 CURVE",
"811 313 OFFCURVE",
"787 327 OFFCURVE",
"769 328 CURVE",
"667 331 OFFCURVE",
"317 334 OFFCURVE",
"211 333 CURVE",
"119 332 OFFCURVE",
"94 283 OFFCURVE",
"65 271 CURVE",
"56 267 OFFCURVE",
"32 266 OFFCURVE",
"30 271 CURVE"
);
},
{
closed = 1;
nodes = (
"269 529 LINE",
"263 541 OFFCURVE",
"289 592 OFFCURVE",
"309 618 CURVE",
"324 637 OFFCURVE",
"347 652 OFFCURVE",
"365 650 CURVE",
"392 648 OFFCURVE",
"395 601 OFFCURVE",
"409 576 CURVE",
"439 525 OFFCURVE",
"481 484 OFFCURVE",
"511 432 CURVE",
"590 297 OFFCURVE",
"597 217 OFFCURVE",
"597 217 CURVE",
"597 217 OFFCURVE",
"533 343 OFFCURVE",
"488 401 CURVE",
"445 458 OFFCURVE",
"368 541 OFFCURVE",
"323 542 CURVE",
"304 543 OFFCURVE",
"276 519 OFFCURVE",
"269 529 CURVE"
);
},
{
closed = 1;
nodes = (
"151 464 LINE",
"145 473 OFFCURVE",
"180 493 OFFCURVE",
"179 511 CURVE",
"178 532 OFFCURVE",
"146 569 OFFCURVE",
"146 594 CURVE",
"146 621 OFFCURVE",
"193 652 OFFCURVE",
"218 651 CURVE",
"237 651 OFFCURVE",
"260 626 OFFCURVE",
"260 611 CURVE",
"260 594 OFFCURVE",
"254 566 OFFCURVE",
"245 566 CURVE",
"234 567 OFFCURVE",
"215 605 OFFCURVE",
"202 605 CURVE",
"191 605 OFFCURVE",
"179 593 OFFCURVE",
"179 580 CURVE",
"180 554 OFFCURVE",
"232 517 OFFCURVE",
"232 505 CURVE",
"232 477 OFFCURVE",
"155 456 OFFCURVE",
"151 464 CURVE"
);
}
);
width = 921;
}
);
unicode = 3060;
},
{
glyphname = "ti-hira";
lastChange = "2020-04-30 23:38:22 +0000";
layers = (
{
layerId = "1305C52C-0BD1-483E-A343-C05F3AFF2931";
paths = (
{
closed = 1;
nodes = (
"725 4 OFFCURVE",
"685 72 OFFCURVE",
"656 99 CURVE SMOOTH",
"576 176 OFFCURVE",
"489 178 OFFCURVE",
"489 178 CURVE SMOOTH",
"489 178 OFFCURVE",
"503 143 OFFCURVE",
"511 128 CURVE",
"518 117 OFFCURVE",
"533 111 OFFCURVE",
"538 99 CURVE SMOOTH",
"544 84 OFFCURVE",
"552 54 OFFCURVE",
"541 46 CURVE",
"502 15 OFFCURVE",
"422 73 OFFCURVE",
"383 93 CURVE SMOOTH",
"352 110 OFFCURVE",
"289 159 OFFCURVE",
"289 159 CURVE SMOOTH",
"289 159 OFFCURVE",
"231 149 OFFCURVE",
"225 164 CURVE",
"214 200 OFFCURVE",
"241 206 OFFCURVE",
"250 230 CURVE",
"259 250 OFFCURVE",
"281 282 OFFCURVE",
"297 281 CURVE",
"321 278 OFFCURVE",
"331 246 OFFCURVE",
"351 244 CURVE SMOOTH",
"371 242 OFFCURVE",
"410 240 OFFCURVE",
"410 240 CURVE",
"373 309 LINE",
"373 309 OFFCURVE",
"282 309 OFFCURVE",
"237 316 CURVE SMOOTH",
"194 324 OFFCURVE",
"149 338 OFFCURVE",
"116 345 CURVE SMOOTH",
"81 352 OFFCURVE",
"52 320 OFFCURVE",
"37 330 CURVE SMOOTH",
"4 351 OFFCURVE",
"92 447 OFFCURVE",
"119 466 CURVE SMOOTH",
"134 477 OFFCURVE",
"165 475 OFFCURVE",
"174 467 CURVE SMOOTH",
"183 459 OFFCURVE",
"168 411 OFFCURVE",
"178 395 CURVE",
"191 377 OFFCURVE",
"224 363 OFFCURVE",
"251 356 CURVE SMOOTH",
"280 349 OFFCURVE",
"350 350 OFFCURVE",
"350 350 CURVE SMOOTH",
"350 350 OFFCURVE",
"317 410 OFFCURVE",
"298 421 CURVE SMOOTH",
"281 431 OFFCURVE",
"246 392 OFFCURVE",
"231 415 CURVE",
"221 429 OFFCURVE",
"277 502 OFFCURVE",
"296 522 CURVE SMOOTH",
"308 535 OFFCURVE",
"345 537 OFFCURVE",
"365 528 CURVE SMOOTH",
"384 519 OFFCURVE",
"387 490 OFFCURVE",
"382 480 CURVE SMOOTH",
"375 466 OFFCURVE",
"360 456 OFFCURVE",
"367 439 CURVE",
"374 420 OFFCURVE",
"402 359 OFFCURVE",
"402 359 CURVE SMOOTH",
"402 359 OFFCURVE",
"501 345 OFFCURVE",
"596 435 CURVE SMOOTH",
"630 468 OFFCURVE",
"688 562 OFFCURVE",
"698 608 CURVE SMOOTH",
"705 639 OFFCURVE",
"704 696 OFFCURVE",
"704 696 CURVE SMOOTH",
"704 696 OFFCURVE",
"736 660 OFFCURVE",
"742 642 CURVE SMOOTH",
"749 619 OFFCURVE",
"752 583 OFFCURVE",
"746 550 CURVE SMOOTH",
"736 498 OFFCURVE",
"668 427 OFFCURVE",
"617 386 CURVE SMOOTH",
"542 326 OFFCURVE",
"426 316 OFFCURVE",
"426 316 CURVE",
"464 229 LINE",
"464 229 OFFCURVE",
"553 223 OFFCURVE",
"626 178 CURVE SMOOTH",
"673 149 OFFCURVE",
"724 98 OFFCURVE",
"732 50 CURVE SMOOTH",
"734 35 OFFCURVE",
"725 4 OFFCURVE",
"725 4 CURVE SMOOTH"
);
},
{
closed = 1;
nodes = (
"475 111 OFFCURVE",
"431 192 OFFCURVE",
"431 192 CURVE SMOOTH",
"431 192 OFFCURVE",
"367 195 OFFCURVE",
"339 192 CURVE SMOOTH",
"326 191 OFFCURVE",
"307 188 OFFCURVE",
"306 176 CURVE",
"304 162 OFFCURVE",
"451 81 OFFCURVE",
"464 96 CURVE"
);
}
);
width = 779;
}
);
unicode = 3061;
},
{
glyphname = "di-hira";
lastChange = "2020-04-30 23:38:17 +0000";
layers = (
{
layerId = "1305C52C-0BD1-483E-A343-C05F3AFF2931";
paths = (
{
closed = 1;
nodes = (
"264 182 LINE",
"264 182 OFFCURVE",
"365 136 OFFCURVE",
"393 120 CURVE",
"413 109 OFFCURVE",
"461 84 OFFCURVE",
"461 107 CURVE",
"462 132 OFFCURVE",
"424 220 OFFCURVE",
"396 273 CURVE",
"367 327 OFFCURVE",
"318 406 OFFCURVE",
"293 425 CURVE",
"280 435 OFFCURVE",
"256 406 OFFCURVE",
"245 406 CURVE",
"236 406 OFFCURVE",
"226 413 OFFCURVE",
"229 421 CURVE",
"240 445 OFFCURVE",
"286 514 OFFCURVE",
"311 530 CURVE",
"327 540 OFFCURVE",
"370 533 OFFCURVE",
"379 520 CURVE",
"387 506 OFFCURVE",
"356 455 OFFCURVE",
"362 435 CURVE",
"372 396 OFFCURVE",
"482 184 OFFCURVE",
"512 126 CURVE",
"519 114 OFFCURVE",
"536 103 OFFCURVE",
"541 90 CURVE",
"545 76 OFFCURVE",
"542 54 OFFCURVE",
"535 45 CURVE",
"502 -1 OFFCURVE",
"264 182 OFFCURVE",
"264 182 CURVE"
);
},
{
closed = 1;
nodes = (
"230 169 LINE",
"224 188 OFFCURVE",
"266 263 OFFCURVE",
"289 278 CURVE",
"305 287 OFFCURVE",
"322 251 OFFCURVE",
"347 247 CURVE",
"392 240 OFFCURVE",
"511 235 OFFCURVE",
"574 203 CURVE",
"639 170 OFFCURVE",
"730 105 OFFCURVE",
"738 47 CURVE",
"741 22 OFFCURVE",
"724 6 OFFCURVE",
"724 6 CURVE",
"724 6 OFFCURVE",
"688 83 OFFCURVE",
"627 128 CURVE",
"540 192 OFFCURVE",
"416 196 OFFCURVE",
"357 201 CURVE",
"328 204 OFFCURVE",
"294 165 OFFCURVE",
"273 160 CURVE",
"259 156 OFFCURVE",
"235 152 OFFCURVE",
"230 169 CURVE"
);
},
{
closed = 1;
nodes = (
"31 336 LINE",
"28 345 OFFCURVE",
"35 370 OFFCURVE",
"44 383 CURVE",
"59 406 OFFCURVE",
"100 464 OFFCURVE",
"123 476 CURVE",
"132 482 OFFCURVE",
"160 473 OFFCURVE",
"171 459 CURVE",
"183 443 OFFCURVE",
"166 405 OFFCURVE",
"181 392 CURVE",
"239 343 OFFCURVE",
"313 356 OFFCURVE",
"380 354 CURVE",
"606 347 OFFCURVE",
"688 573 OFFCURVE",
"699 617 CURVE",
"706 641 OFFCURVE",
"703 694 OFFCURVE",
"703 694 CURVE",
"703 694 OFFCURVE",
"762 675 OFFCURVE",
"745 570 CURVE",
"715 393 OFFCURVE",
"512 326 OFFCURVE",
"404 318 CURVE",
"215 304 OFFCURVE",
"174 336 OFFCURVE",
"126 349 CURVE",
"89 359 OFFCURVE",
"82 336 OFFCURVE",
"67 334 CURVE",
"55 332 OFFCURVE",
"35 328 OFFCURVE",
"31 336 CURVE"
);
},
{
closed = 1;
nodes = (
"171 486 LINE",
"171 500 OFFCURVE",
"200 514 OFFCURVE",
"200 533 CURVE",
"199 553 OFFCURVE",
"171 590 OFFCURVE",
"167 614 CURVE",
"163 644 OFFCURVE",
"200 672 OFFCURVE",
"235 670 CURVE",
"253 669 OFFCURVE",
"279 644 OFFCURVE",
"280 630 CURVE",
"282 615 OFFCURVE",
"276 587 OFFCURVE",
"267 588 CURVE",
"248 590 OFFCURVE",
"233 625 OFFCURVE",
"222 625 CURVE",
"209 625 OFFCURVE",
"198 610 OFFCURVE",
"198 601 CURVE",
"199 583 OFFCURVE",
"254 539 OFFCURVE",
"252 520 CURVE",
"249 494 OFFCURVE",
"172 476 OFFCURVE",
"171 486 CURVE"
);
}
);
width = 778;
}
);
unicode = 3062;
},
{
glyphname = "tu-hira";
lastChange = "2020-04-30 23:38:11 +0000";
layers = (
{
layerId = "1305C52C-0BD1-483E-A343-C05F3AFF2931";
paths = (
{
closed = 1;
nodes = (
"482 91 OFFCURVE",
"443 120 OFFCURVE",
"414 144 CURVE SMOOTH",
"362 188 OFFCURVE",
"252 303 OFFCURVE",
"205 350 CURVE SMOOTH",
"179 377 OFFCURVE",
"128 407 OFFCURVE",
"102 406 CURVE SMOOTH",
"78 405 OFFCURVE",
"41 379 OFFCURVE",
"31 391 CURVE",
"24 402 OFFCURVE",
"59 459 OFFCURVE",
"81 474 CURVE SMOOTH",
"103 489 OFFCURVE",
"149 489 OFFCURVE",
"170 477 CURVE SMOOTH",
"223 448 OFFCURVE",
"259 362 OFFCURVE",
"282 355 CURVE SMOOTH",
"292 352 OFFCURVE",
"299 389 OFFCURVE",
"328 391 CURVE SMOOTH",
"358 393 OFFCURVE",
"352 370 OFFCURVE",
"375 370 CURVE SMOOTH",
"395 370 OFFCURVE",
"437 370 OFFCURVE",
"437 369 CURVE SMOOTH",
"437 369 OFFCURVE",
"415 423 OFFCURVE",
"421 484 CURVE SMOOTH",
"431 577 OFFCURVE",
"494 610 OFFCURVE",
"518 610 CURVE SMOOTH",
"578 611 OFFCURVE",
"608 539 OFFCURVE",
"608 502 CURVE SMOOTH",
"609 455 OFFCURVE",
"598 416 OFFCURVE",
"588 417 CURVE SMOOTH",
"573 418 OFFCURVE",
"580 514 OFFCURVE",
"524 515 CURVE SMOOTH",
"477 515 OFFCURVE",
"458 474 OFFCURVE",
"460 428 CURVE SMOOTH",
"461 407 OFFCURVE",
"474 370 OFFCURVE",
"474 370 CURVE SMOOTH",
"474 370 OFFCURVE",
"702 373 OFFCURVE",
"766 374 CURVE SMOOTH",
"794 374 OFFCURVE",
"823 396 OFFCURVE",
"848 396 CURVE SMOOTH",
"868 396 OFFCURVE",
"893 373 OFFCURVE",
"894 359 CURVE",
"894 330 OFFCURVE",
"846 313 OFFCURVE",
"823 313 CURVE SMOOTH",
"809 313 OFFCURVE",
"790 326 OFFCURVE",
"775 326 CURVE",
"719 328 OFFCURVE",
"488 329 OFFCURVE",
"488 329 CURVE SMOOTH",
"488 329 OFFCURVE",
"512 293 OFFCURVE",
"526 279 CURVE",
"551 256 OFFCURVE",
"619 215 OFFCURVE",
"619 162 CURVE SMOOTH",
"618 117 OFFCURVE",
"592 90 OFFCURVE",
"516 91 CURVE SMOOTH"
);
},
{
closed = 1;
nodes = (
"504 130 OFFCURVE",
"553 142 OFFCURVE",
"555 175 CURVE SMOOTH",
"557 199 OFFCURVE",
"512 230 OFFCURVE",
"491 253 CURVE SMOOTH",
"468 279 OFFCURVE",
"445 329 OFFCURVE",
"445 330 CURVE SMOOTH",
"445 330 OFFCURVE",
"320 329 OFFCURVE",
"314 314 CURVE",
"305 294 OFFCURVE",
"403 189 OFFCURVE",
"461 155 CURVE SMOOTH"
);
}
);
width = 924;
}
);
unicode = 3064;
},
{
glyphname = "tusmall-hira";
lastChange = "2020-04-30 23:38:00 +0000";
layers = (
{
layerId = "1305C52C-0BD1-483E-A343-C05F3AFF2931";
paths = (
{
closed = 1;
nodes = (
"167 299 OFFCURVE",
"104 384 OFFCURVE",
"71 402 CURVE SMOOTH",
"60 408 OFFCURVE",
"32 395 OFFCURVE",
"30 404 CURVE SMOOTH",
"28 412 OFFCURVE",
"45 445 OFFCURVE",
"53 457 CURVE SMOOTH",
"59 466 OFFCURVE",
"75 472 OFFCURVE",
"84 472 CURVE SMOOTH",
"99 472 OFFCURVE",
"106 443 OFFCURVE",
"106 427 CURVE SMOOTH",
"106 384 OFFCURVE",
"173 330 OFFCURVE",
"203 330 CURVE SMOOTH",
"209 330 OFFCURVE",
"220 335 OFFCURVE",
"220 339 CURVE SMOOTH",
"220 343 OFFCURVE",
"208 350 OFFCURVE",
"203 356 CURVE SMOOTH",
"187 375 OFFCURVE",
"147 419 OFFCURVE",
"147 453 CURVE SMOOTH",
"147 495 OFFCURVE",
"171 554 OFFCURVE",
"237 554 CURVE SMOOTH",
"295 554 OFFCURVE",
"320 461 OFFCURVE",
"320 461 CURVE",
"320 461 OFFCURVE",
"411 463 OFFCURVE",
"437 463 CURVE SMOOTH",
"447 463 OFFCURVE",
"460 470 OFFCURVE",
"471 470 CURVE SMOOTH",
"483 470 OFFCURVE",
"514 462 OFFCURVE",
"514 454 CURVE SMOOTH",
"514 446 OFFCURVE",
"479 426 OFFCURVE",
"463 426 CURVE SMOOTH",
"449 426 OFFCURVE",
"431 437 OFFCURVE",
"418 437 CURVE SMOOTH",
"394 437 OFFCURVE",
"324 438 OFFCURVE",
"324 438 CURVE",
"324 438 OFFCURVE",
"332 379 OFFCURVE",
"278 380 CURVE SMOOTH",
"230 381 OFFCURVE",
"218 417 OFFCURVE",
"218 431 CURVE SMOOTH",
"218 463 OFFCURVE",
"282 462 OFFCURVE",
"282 462 CURVE",
"282 462 OFFCURVE",
"263 517 OFFCURVE",
"231 515 CURVE SMOOTH",
"212 514 OFFCURVE",
"167 493 OFFCURVE",
"168 437 CURVE SMOOTH",
"169 393 OFFCURVE",
"216 377 OFFCURVE",
"239 371 CURVE SMOOTH",
"257 366 OFFCURVE",
"281 341 OFFCURVE",
"281 329 CURVE SMOOTH",
"281 318 OFFCURVE",
"248 304 OFFCURVE",
"231 303 CURVE SMOOTH"
);
},
{
closed = 1;
nodes = (
"298 417 OFFCURVE",
"288 438 OFFCURVE",
"288 438 CURVE",
"288 438 OFFCURVE",
"266 438 OFFCURVE",
"259 437 CURVE SMOOTH",
"254 436 OFFCURVE",
"249 433 OFFCURVE",
"249 427 CURVE SMOOTH",
"249 419 OFFCURVE",
"261 417 OFFCURVE",
"267 417 CURVE SMOOTH"
);
}
);
width = 544;
}
);
unicode = 3063;
},
{
glyphname = "du-hira";
lastChange = "2020-04-30 23:37:54 +0000";
layers = (
{
layerId = "1305C52C-0BD1-483E-A343-C05F3AFF2931";
paths = (
{
closed = 1;
nodes = (
"294 283 LINE",
"283 289 OFFCURVE",
"307 322 OFFCURVE",
"317 334 CURVE",
"326 345 OFFCURVE",
"338 355 OFFCURVE",
"348 356 CURVE",
"358 356 OFFCURVE",
"373 335 OFFCURVE",
"383 334 CURVE",
"461 332 OFFCURVE",
"734 337 OFFCURVE",
"814 342 CURVE",
"831 343 OFFCURVE",
"844 362 OFFCURVE",
"869 362 CURVE",
"884 362 OFFCURVE",
"905 346 OFFCURVE",
"905 333 CURVE",
"904 320 OFFCURVE",
"882 288 OFFCURVE",
"850 288 CURVE",
"829 288 OFFCURVE",
"841 295 OFFCURVE",
"796 296 CURVE",
"650 299 OFFCURVE",
"461 299 OFFCURVE",
"377 297 CURVE",
"349 296 OFFCURVE",
"304 277 OFFCURVE",
"294 283 CURVE"
);
},
{
closed = 1;
nodes = (
"314 451 LINE",
"310 455 OFFCURVE",
"346 485 OFFCURVE",
"347 507 CURVE",
"348 529 OFFCURVE",
"315 556 OFFCURVE",
"316 588 CURVE",
"317 620 OFFCURVE",
"353 638 OFFCURVE",
"382 639 CURVE",
"405 639 OFFCURVE",
"428 612 OFFCURVE",
"429 594 CURVE",
"430 579 OFFCURVE",
"423 553 OFFCURVE",
"414 553 CURVE",
"405 553 OFFCURVE",
"380 594 OFFCURVE",
"370 594 CURVE",
"357 594 OFFCURVE",
"349 579 OFFCURVE",
"349 569 CURVE",
"349 543 OFFCURVE",
"404 515 OFFCURVE",
"404 494 CURVE",
"404 471 OFFCURVE",
"321 444 OFFCURVE",
"314 451 CURVE"
);
},
{
closed = 1;
nodes = (
"30 355 LINE",
"30 355 OFFCURVE",
"45 417 OFFCURVE",
"62 437 CURVE",
"79 456 OFFCURVE",
"107 475 OFFCURVE",
"133 471 CURVE",
"201 462 OFFCURVE",
"264 353 OFFCURVE",
"310 289 CURVE",
"362 216 OFFCURVE",
"467 107 OFFCURVE",
"535 112 CURVE",
"552 113 OFFCURVE",
"574 123 OFFCURVE",
"573 140 CURVE",
"572 171 OFFCURVE",
"494 234 OFFCURVE",
"469 288 CURVE",
"390 458 OFFCURVE",
"477 576 OFFCURVE",
"529 576 CURVE",
"571 577 OFFCURVE",
"620 523 OFFCURVE",
"623 485 CURVE",
"627 453 OFFCURVE",
"603 392 OFFCURVE",
"603 392 CURVE",
"603 392 OFFCURVE",
"580 482 OFFCURVE",
"551 484 CURVE",
"525 485 OFFCURVE",
"479 474 OFFCURVE",
"476 393 CURVE",
"474 328 OFFCURVE",
"525 242 OFFCURVE",
"579 219 CURVE",
"610 206 OFFCURVE",
"641 164 OFFCURVE",
"639 130 CURVE",
"636 99 OFFCURVE",
"593 60 OFFCURVE",
"559 62 CURVE",
"446 69 OFFCURVE",
"386 155 OFFCURVE",
"316 228 CURVE",
"257 289 OFFCURVE",
"157 369 OFFCURVE",
"104 374 CURVE",
"79 376 OFFCURVE",
"30 355 OFFCURVE",
"30 355 CURVE"
);
}
);
width = 935;
}
);
unicode = 3065;
},
{
glyphname = "te-hira";
lastChange = "2020-04-30 23:37:49 +0000";
layers = (
{
layerId = "1305C52C-0BD1-483E-A343-C05F3AFF2931";
paths = (
{
closed = 1;
nodes = (
"121 190 OFFCURVE",
"145 200 OFFCURVE",
"138 209 CURVE",
"125 226 OFFCURVE",
"90 233 OFFCURVE",
"66 258 CURVE",
"48 277 OFFCURVE",
"29 308 OFFCURVE",
"30 332 CURVE",
"30 376 OFFCURVE",
"78 400 OFFCURVE",
"91 400 CURVE",
"129 400 OFFCURVE",
"199 397 OFFCURVE",
"240 399 CURVE",
"264 399 OFFCURVE",
"307 429 OFFCURVE",
"328 477 CURVE",
"345 517 OFFCURVE",
"352 562 OFFCURVE",
"372 606 CURVE",
"385 633 OFFCURVE",
"416 666 OFFCURVE",
"457 664 CURVE",
"507 662 OFFCURVE",
"522 620 OFFCURVE",
"532 585 CURVE",
"549 532 OFFCURVE",
"576 470 OFFCURVE",
"619 412 CURVE",
"714 282 OFFCURVE",
"880 353 OFFCURVE",
"885 343 CURVE",
"890 332 OFFCURVE",
"752 261 OFFCURVE",
"603 353 CURVE",
"502 416 OFFCURVE",
"464 555 OFFCURVE",
"440 553 CURVE",
"401 551 OFFCURVE",
"371 451 OFFCURVE",
"343 415 CURVE",
"320 387 OFFCURVE",
"278 367 OFFCURVE",
"240 367 CURVE",
"194 367 OFFCURVE",
"121 371 OFFCURVE",
"90 372 CURVE",
"78 372 OFFCURVE",
"59 356 OFFCURVE",
"60 327 CURVE",
"61 290 OFFCURVE",
"121 265 OFFCURVE",
"150 264 CURVE",
"169 264 OFFCURVE",
"185 271 OFFCURVE",
"200 270 CURVE",
"217 270 OFFCURVE",
"234 255 OFFCURVE",
"234 243 CURVE",
"235 228 OFFCURVE",
"192 182 OFFCURVE",
"181 180 CURVE",
"163 178 OFFCURVE",
"131 176 OFFCURVE",
"127 182 CURVE"
);
},
{
closed = 1;
nodes = (
"223 152 OFFCURVE",
"256 245 OFFCURVE",
"303 247 CURVE",
"318 248 OFFCURVE",
"326 226 OFFCURVE",
"341 226 CURVE",
"358 226 OFFCURVE",
"403 229 OFFCURVE",
"403 229 CURVE",
"403 229 OFFCURVE",
"392 289 OFFCURVE",
"431 316 CURVE",
"464 339 OFFCURVE",
"484 295 OFFCURVE",
"483 276 CURVE",
"482 255 OFFCURVE",
"483 225 OFFCURVE",
"493 213 CURVE",
"507 195 OFFCURVE",
"552 186 OFFCURVE",
"604 150 CURVE",
"638 126 OFFCURVE",
"703 69 OFFCURVE",
"699 62 CURVE",
"694 54 OFFCURVE",
"633 103 OFFCURVE",
"600 120 CURVE",
"570 136 OFFCURVE",
"510 168 OFFCURVE",
"504 164 CURVE",
"498 160 OFFCURVE",
"515 120 OFFCURVE",
"525 101 CURVE",
"535 84 OFFCURVE",
"563 65 OFFCURVE",
"563 55 CURVE",
"563 44 OFFCURVE",
"543 37 OFFCURVE",
"532 37 CURVE",
"501 37 OFFCURVE",
"499 57 OFFCURVE",
"479 66 CURVE",
"448 80 OFFCURVE",
"360 121 OFFCURVE",
"363 129 CURVE",
"369 145 OFFCURVE",
"480 97 OFFCURVE",
"485 105 CURVE",
"488 110 OFFCURVE",
"473 123 OFFCURVE",
"461 138 CURVE",
"450 155 OFFCURVE",
"430 175 OFFCURVE",
"430 175 CURVE",
"430 175 OFFCURVE",
"378 173 OFFCURVE",
"351 172 CURVE",
"334 171 OFFCURVE",
"306 137 OFFCURVE",
"286 127 CURVE",
"270 120 OFFCURVE",
"240 118 OFFCURVE",
"234 130 CURVE"
);
}
);
width = 915;
}
);
unicode = 3066;
},
{
glyphname = "de-hira";
lastChange = "2020-04-30 23:37:43 +0000";
layers = (
{
layerId = "1305C52C-0BD1-483E-A343-C05F3AFF2931";
paths = (
{
closed = 1;
nodes = (
"356 127 LINE",
"356 127 OFFCURVE",
"416 112 OFFCURVE",
"438 106 CURVE",
"457 102 OFFCURVE",
"492 92 OFFCURVE",
"492 92 CURVE",
"492 92 OFFCURVE",
"471 129 OFFCURVE",
"455 151 CURVE",
"440 172 OFFCURVE",
"395 200 OFFCURVE",
"396 226 CURVE",
"396 251 OFFCURVE",
"419 314 OFFCURVE",
"452 312 CURVE",
"492 310 OFFCURVE",
"468 203 OFFCURVE",
"491 149 CURVE",
"509 106 OFFCURVE",
"555 70 OFFCURVE",
"555 47 CURVE",
"554 33 OFFCURVE",
"529 26 OFFCURVE",
"513 35 CURVE",
"497 43 OFFCURVE",
"493 57 OFFCURVE",
"482 64 CURVE",
"469 73 OFFCURVE",
"449 82 OFFCURVE",
"434 90 CURVE",
"413 101 OFFCURVE",
"356 127 OFFCURVE",
"356 127 CURVE"
);
},
{
closed = 1;
nodes = (
"233 133 LINE",
"233 151 OFFCURVE",
"256 205 OFFCURVE",
"268 223 CURVE",
"276 234 OFFCURVE",
"292 242 OFFCURVE",
"305 242 CURVE",
"317 242 OFFCURVE",
"331 225 OFFCURVE",
"345 222 CURVE",
"381 215 OFFCURVE",
"472 204 OFFCURVE",
"524 182 CURVE",
"591 154 OFFCURVE",
"695 58 OFFCURVE",
"695 58 CURVE",
"695 58 OFFCURVE",
"574 142 OFFCURVE",
"515 160 CURVE",
"461 176 OFFCURVE",
"401 173 OFFCURVE",
"357 169 CURVE",
"323 166 OFFCURVE",
"289 119 OFFCURVE",
"258 118 CURVE",
"249 118 OFFCURVE",
"234 120 OFFCURVE",
"233 133 CURVE"
);
},
{
closed = 1;
nodes = (
"126 180 LINE",
"118 183 OFFCURVE",
"149 194 OFFCURVE",
"144 202 CURVE",
"128 227 OFFCURVE",
"32 255 OFFCURVE",
"30 332 CURVE",
"30 362 OFFCURVE",
"59 395 OFFCURVE",
"96 396 CURVE",
"131 396 OFFCURVE",
"190 394 OFFCURVE",
"236 394 CURVE",
"362 397 OFFCURVE",
"338 661 OFFCURVE",
"450 661 CURVE",
"536 661 OFFCURVE",
"526 559 OFFCURVE",
"571 468 CURVE",
"605 398 OFFCURVE",
"674 330 OFFCURVE",
"758 326 CURVE",
"798 325 OFFCURVE",
"879 340 OFFCURVE",
"879 340 CURVE",
"879 340 OFFCURVE",
"787 305 OFFCURVE",
"740 305 CURVE",
"535 303 OFFCURVE",
"471 553 OFFCURVE",
"441 552 CURVE",
"381 549 OFFCURVE",
"376 365 OFFCURVE",
"241 364 CURVE",
"186 364 OFFCURVE",
"126 368 OFFCURVE",
"93 368 CURVE",
"76 368 OFFCURVE",
"51 349 OFFCURVE",
"52 333 CURVE",
"57 296 OFFCURVE",
"102 259 OFFCURVE",
"148 258 CURVE",
"162 258 OFFCURVE",
"182 268 OFFCURVE",
"194 267 CURVE",
"208 267 OFFCURVE",
"231 252 OFFCURVE",
"231 237 CURVE",
"229 194 OFFCURVE",
"152 169 OFFCURVE",
"126 180 CURVE"
);
},
{
closed = 1;
nodes = (
"190 474 LINE",
"185 483 OFFCURVE",
"224 507 OFFCURVE",
"223 529 CURVE",
"223 551 OFFCURVE",
"190 582 OFFCURVE",
"192 607 CURVE",
"194 636 OFFCURVE",
"238 670 OFFCURVE",
"258 670 CURVE",
"281 669 OFFCURVE",
"306 644 OFFCURVE",
"307 617 CURVE",
"307 599 OFFCURVE",
"300 575 OFFCURVE",
"291 575 CURVE",
"282 575 OFFCURVE",
"261 616 OFFCURVE",
"250 616 CURVE",
"239 616 OFFCURVE",
"224 602 OFFCURVE",
"225 591 CURVE",
"226 565 OFFCURVE",
"281 535 OFFCURVE",
"281 517 CURVE",
"280 494 OFFCURVE",
"194 465 OFFCURVE",
"190 474 CURVE"
);
}
);
width = 909;
}
);
unicode = 3067;
},
{
glyphname = "to-hira";
lastChange = "2020-04-30 23:37:38 +0000";
layers = (
{
layerId = "1305C52C-0BD1-483E-A343-C05F3AFF2931";
paths = (
{
closed = 1;
nodes = (
"17 331 OFFCURVE",
"60 422 OFFCURVE",
"86 420 CURVE",
"104 419 OFFCURVE",
"146 363 OFFCURVE",
"191 315 CURVE",
"222 283 OFFCURVE",
"238 257 OFFCURVE",
"252 258 CURVE",
"264 258 OFFCURVE",
"241 311 OFFCURVE",
"284 346 CURVE",
"332 384 OFFCURVE",
"365 402 OFFCURVE",
"449 401 CURVE",
"491 400 OFFCURVE",
"558 388 OFFCURVE",
"603 390 CURVE",
"663 394 OFFCURVE",
"745 436 OFFCURVE",
"780 476 CURVE",
"856 564 OFFCURVE",
"742 705 OFFCURVE",
"747 712 CURVE",
"761 729 OFFCURVE",
"863 606 OFFCURVE",
"869 570 CURVE",
"892 426 OFFCURVE",
"788 334 OFFCURVE",
"682 317 CURVE",
"599 304 OFFCURVE",
"453 348 OFFCURVE",
"411 347 CURVE",
"364 347 OFFCURVE",
"294 322 OFFCURVE",
"297 262 CURVE",
"299 198 OFFCURVE",
"367 230 OFFCURVE",
"369 166 CURVE",
"370 141 OFFCURVE",
"338 144 OFFCURVE",
"310 158 CURVE",
"290 169 OFFCURVE",
"269 206 OFFCURVE",
"245 226 CURVE",
"210 254 OFFCURVE",
"126 330 OFFCURVE",
"103 329 CURVE",
"91 328 OFFCURVE",
"87 314 OFFCURVE",
"75 310 CURVE",
"64 307 OFFCURVE",
"42 302 OFFCURVE",
"33 314 CURVE"
);
},
{
closed = 1;
nodes = (
"367 97 OFFCURVE",
"426 196 OFFCURVE",
"440 198 CURVE",
"480 201 OFFCURVE",
"479 177 OFFCURVE",
"504 177 CURVE",
"522 177 OFFCURVE",
"563 176 OFFCURVE",
"563 176 CURVE",
"563 176 OFFCURVE",
"541 220 OFFCURVE",
"567 254 CURVE",
"579 269 OFFCURVE",
"608 272 OFFCURVE",
"618 265 CURVE",
"647 246 OFFCURVE",
"623 190 OFFCURVE",
"635 169 CURVE",
"651 141 OFFCURVE",
"696 136 OFFCURVE",
"749 98 CURVE",
"803 60 OFFCURVE",
"851 20 OFFCURVE",
"849 14 CURVE",
"846 8 OFFCURVE",
"782 52 OFFCURVE",
"749 71 CURVE",
"718 88 OFFCURVE",
"657 122 OFFCURVE",
"652 114 CURVE",
"649 109 OFFCURVE",
"658 81 OFFCURVE",
"672 59 CURVE",
"687 36 OFFCURVE",
"709 20 OFFCURVE",
"710 9 CURVE",
"710 -3 OFFCURVE",
"693 -14 OFFCURVE",
"682 -13 CURVE",
"650 -9 OFFCURVE",
"643 11 OFFCURVE",
"626 19 CURVE",
"599 33 OFFCURVE",
"516 65 OFFCURVE",
"516 72 CURVE",
"516 82 OFFCURVE",
"560 77 OFFCURVE",
"578 71 CURVE",
"595 65 OFFCURVE",
"626 47 OFFCURVE",
"630 54 CURVE",
"636 66 OFFCURVE",
"582 124 OFFCURVE",
"582 124 CURVE",
"582 124 OFFCURVE",
"530 122 OFFCURVE",
"503 120 CURVE",
"479 119 OFFCURVE",
"460 92 OFFCURVE",
"443 80 CURVE",
"429 70 OFFCURVE",
"400 66 OFFCURVE",
"388 77 CURVE"
);
}
);
width = 902;
}
);
unicode = 3068;
},
{
glyphname = "do-hira";
lastChange = "2020-04-30 23:37:28 +0000";
layers = (
{
layerId = "1305C52C-0BD1-483E-A343-C05F3AFF2931";
paths = (
{
closed = 1;
nodes = (
"515 81 LINE",
"515 81 OFFCURVE",
"565 68 OFFCURVE",
"585 63 CURVE",
"603 58 OFFCURVE",
"637 50 OFFCURVE",
"637 50 CURVE",
"637 50 OFFCURVE",
"626 85 OFFCURVE",
"605 115 CURVE",
"589 138 OFFCURVE",
"553 174 OFFCURVE",
"552 199 CURVE",
"551 225 OFFCURVE",
"580 267 OFFCURVE",
"599 267 CURVE",
"617 267 OFFCURVE",
"632 240 OFFCURVE",
"632 223 CURVE",
"630 190 OFFCURVE",
"641 144 OFFCURVE",
"651 108 CURVE",
"669 41 OFFCURVE",
"705 26 OFFCURVE",
"706 6 CURVE",
"706 -4 OFFCURVE",
"691 -16 OFFCURVE",
"680 -14 CURVE",
"653 -10 OFFCURVE",
"650 9 OFFCURVE",
"632 18 CURVE",
"615 27 OFFCURVE",
"595 39 OFFCURVE",
"579 48 CURVE",
"559 59 OFFCURVE",
"515 81 OFFCURVE",
"515 81 CURVE"
);
},
{
closed = 1;
nodes = (
"387 80 LINE",
"383 94 OFFCURVE",
"398 139 OFFCURVE",
"409 158 CURVE",
"418 175 OFFCURVE",
"437 198 OFFCURVE",
"452 198 CURVE",
"467 197 OFFCURVE",
"480 182 OFFCURVE",
"496 178 CURVE",
"529 170 OFFCURVE",
"623 157 OFFCURVE",
"683 133 CURVE",
"763 102 OFFCURVE",
"842 17 OFFCURVE",
"842 17 CURVE",
"842 17 OFFCURVE",
"721 96 OFFCURVE",
"665 114 CURVE",
"615 131 OFFCURVE",
"549 131 OFFCURVE",
"510 128 CURVE",
"479 125 OFFCURVE",
"453 86 OFFCURVE",
"433 78 CURVE",
"419 73 OFFCURVE",
"391 66 OFFCURVE",
"387 80 CURVE"
);
},
{
closed = 1;
nodes = (
"31 314 LINE",
"26 325 OFFCURVE",
"38 360 OFFCURVE",
"48 378 CURVE",
"57 394 OFFCURVE",
"71 412 OFFCURVE",
"89 412 CURVE",
"120 412 OFFCURVE",
"156 342 OFFCURVE",
"183 316 CURVE",
"211 290 OFFCURVE",
"257 253 OFFCURVE",
"257 253 CURVE",
"257 253 OFFCURVE",
"242 386 OFFCURVE",
"422 397 CURVE",
"473 401 OFFCURVE",
"543 391 OFFCURVE",
"600 385 CURVE",
"668 378 OFFCURVE",
"805 460 OFFCURVE",
"808 533 CURVE",
"811 617 OFFCURVE",
"749 714 OFFCURVE",
"749 714 CURVE",
"749 714 OFFCURVE",
"881 625 OFFCURVE",
"875 518 CURVE",
"869 410 OFFCURVE",
"769 305 OFFCURVE",
"600 320 CURVE",
"537 326 OFFCURVE",
"461 348 OFFCURVE",
"413 349 CURVE",
"367 350 OFFCURVE",
"299 329 OFFCURVE",
"297 267 CURVE",
"296 214 OFFCURVE",
"354 197 OFFCURVE",
"369 181 CURVE",
"380 169 OFFCURVE",
"362 148 OFFCURVE",
"343 151 CURVE",
"290 159 OFFCURVE",
"281 201 OFFCURVE",
"257 221 CURVE",
"233 241 OFFCURVE",
"213 258 OFFCURVE",
"191 276 CURVE",
"165 295 OFFCURVE",
"126 326 OFFCURVE",
"107 327 CURVE",
"93 328 OFFCURVE",
"87 318 OFFCURVE",
"77 315 CURVE",
"65 312 OFFCURVE",
"36 304 OFFCURVE",
"31 314 CURVE"
);
},
{
closed = 1;
nodes = (
"263 432 LINE",
"253 433 OFFCURVE",
"282 462 OFFCURVE",
"282 479 CURVE",
"282 516 OFFCURVE",
"255 535 OFFCURVE",
"255 560 CURVE",
"255 591 OFFCURVE",
"297 620 OFFCURVE",
"317 618 CURVE",
"341 616 OFFCURVE",
"364 600 OFFCURVE",
"365 575 CURVE",
"366 560 OFFCURVE",
"359 529 OFFCURVE",
"350 529 CURVE",
"340 528 OFFCURVE",
"330 572 OFFCURVE",
"308 572 CURVE",
"297 572 OFFCURVE",
"283 560 OFFCURVE",
"283 549 CURVE",
"284 518 OFFCURVE",
"341 495 OFFCURVE",
"342 474 CURVE",
"342 445 OFFCURVE",
"273 431 OFFCURVE",
"263 432 CURVE"
);
}
);
width = 905;
}
);
unicode = 3069;
},
{
glyphname = "na-hira";
lastChange = "2020-04-30 23:37:21 +0000";
layers = (
{
layerId = "1305C52C-0BD1-483E-A343-C05F3AFF2931";
paths = (
{
closed = 1;
nodes = (
"24 323 OFFCURVE",
"46 389 OFFCURVE",
"62 408 CURVE",
"75 425 OFFCURVE",
"110 467 OFFCURVE",
"130 463 CURVE",
"165 457 OFFCURVE",
"146 403 OFFCURVE",
"157 384 CURVE",
"184 334 OFFCURVE",
"213 309 OFFCURVE",
"247 271 CURVE",
"281 234 OFFCURVE",
"351 162 OFFCURVE",
"357 169 CURVE",
"363 177 OFFCURVE",
"288 259 OFFCURVE",
"268 324 CURVE",
"245 399 OFFCURVE",
"240 470 OFFCURVE",
"256 509 CURVE",
"281 572 OFFCURVE",
"335 619 OFFCURVE",
"415 617 CURVE",
"462 616 OFFCURVE",
"537 584 OFFCURVE",
"586 538 CURVE",
"610 515 OFFCURVE",
"676 430 OFFCURVE",
"672 300 CURVE",
"672 270 OFFCURVE",
"628 203 OFFCURVE",
"622 208 CURVE",
"613 215 OFFCURVE",
"613 325 OFFCURVE",
"606 360 CURVE",
"593 422 OFFCURVE",
"503 565 OFFCURVE",
"388 562 CURVE",
"328 561 OFFCURVE",
"278 530 OFFCURVE",
"280 437 CURVE",
"281 356 OFFCURVE",
"321 304 OFFCURVE",
"354 257 CURVE",
"384 213 OFFCURVE",
"450 157 OFFCURVE",
"484 154 CURVE",
"504 152 OFFCURVE",
"536 145 OFFCURVE",
"536 114 CURVE",
"536 97 OFFCURVE",
"506 81 OFFCURVE",
"460 85 CURVE",
"416 88 OFFCURVE",
"328 145 OFFCURVE",
"297 171 CURVE",
"200 249 OFFCURVE",
"113 348 OFFCURVE",
"88 340 CURVE",
"68 334 OFFCURVE",
"39 308 OFFCURVE",
"32 315 CURVE"
);
},
{
closed = 1;
nodes = (
"409 293 OFFCURVE",
"441 311 OFFCURVE",
"441 323 CURVE",
"441 345 OFFCURVE",
"376 391 OFFCURVE",
"380 407 CURVE",
"384 420 OFFCURVE",
"421 408 OFFCURVE",
"431 397 CURVE",
"444 384 OFFCURVE",
"465 374 OFFCURVE",
"482 368 CURVE",
"500 362 OFFCURVE",
"519 358 OFFCURVE",
"520 343 CURVE",
"522 327 OFFCURVE",
"469 291 OFFCURVE",
"451 281 CURVE",
"442 276 OFFCURVE",
"418 276 OFFCURVE",
"414 283 CURVE"
);
}
);
width = 702;
}
);
unicode = 306A;
},
{
glyphname = "ni-hira";
lastChange = "2020-04-30 23:37:16 +0000";
layers = (
{
layerId = "1305C52C-0BD1-483E-A343-C05F3AFF2931";
paths = (
{
closed = 1;
nodes = (
"471 72 OFFCURVE",
"477 98 OFFCURVE",
"478 106 CURVE",
"479 112 OFFCURVE",
"488 114 OFFCURVE",
"488 119 CURVE",
"489 128 OFFCURVE",
"450 157 OFFCURVE",
"456 164 CURVE",
"461 169 OFFCURVE",
"536 140 OFFCURVE",
"537 112 CURVE",
"537 106 OFFCURVE",
"496 60 OFFCURVE",
"480 67 CURVE"
);
},
{
closed = 1;
nodes = (
"25 226 OFFCURVE",
"30 271 OFFCURVE",
"37 290 CURVE",
"46 318 OFFCURVE",
"77 375 OFFCURVE",
"99 385 CURVE",
"114 391 OFFCURVE",
"130 388 OFFCURVE",
"139 382 CURVE",
"147 375 OFFCURVE",
"143 356 OFFCURVE",
"149 348 CURVE",
"155 340 OFFCURVE",
"167 331 OFFCURVE",
"177 331 CURVE",
"278 331 OFFCURVE",
"740 330 OFFCURVE",
"759 331 CURVE",
"792 332 OFFCURVE",
"821 358 OFFCURVE",
"840 357 CURVE",
"858 356 OFFCURVE",
"870 347 OFFCURVE",
"871 335 CURVE",
"872 319 OFFCURVE",
"838 277 OFFCURVE",
"812 277 CURVE",
"784 276 OFFCURVE",
"769 292 OFFCURVE",
"751 292 CURVE",
"648 292 OFFCURVE",
"289 297 OFFCURVE",
"177 295 CURVE",
"149 295 OFFCURVE",
"119 283 OFFCURVE",
"97 268 CURVE",
"78 254 OFFCURVE",
"46 221 OFFCURVE",
"36 223 CURVE"
);
},
{
closed = 1;
nodes = (
"244 521 OFFCURVE",
"317 571 OFFCURVE",
"359 572 CURVE",
"372 573 OFFCURVE",
"392 569 OFFCURVE",
"392 556 CURVE",
"393 541 OFFCURVE",
"368 518 OFFCURVE",
"370 498 CURVE",
"371 473 OFFCURVE",
"423 423 OFFCURVE",
"474 426 CURVE",
"577 432 OFFCURVE",
"631 528 OFFCURVE",
"648 579 CURVE",
"667 637 OFFCURVE",
"657 686 OFFCURVE",
"668 686 CURVE",
"686 687 OFFCURVE",
"686 557 OFFCURVE",
"624 462 CURVE",
"591 413 OFFCURVE",
"524 381 OFFCURVE",
"465 384 CURVE",
"384 388 OFFCURVE",
"306 437 OFFCURVE",
"280 477 CURVE",
"273 488 OFFCURVE",
"260 483 OFFCURVE",
"257 490 CURVE"
);
},
{
closed = 1;
nodes = (
"385 33 OFFCURVE",
"387 41 OFFCURVE",
"382 52 CURVE",
"371 79 OFFCURVE",
"296 103 OFFCURVE",
"297 171 CURVE",
"297 216 OFFCURVE",
"337 263 OFFCURVE",
"382 264 CURVE",
"430 264 OFFCURVE",
"518 230 OFFCURVE",
"565 189 CURVE",
"648 116 OFFCURVE",
"662 15 OFFCURVE",
"654 14 CURVE",
"648 12 OFFCURVE",
"603 105 OFFCURVE",
"546 154 CURVE",
"473 217 OFFCURVE",
"423 223 OFFCURVE",
"388 224 CURVE",
"366 224 OFFCURVE",
"333 212 OFFCURVE",
"334 180 CURVE",
"335 152 OFFCURVE",
"365 136 OFFCURVE",
"385 134 CURVE",
"405 132 OFFCURVE",
"429 132 OFFCURVE",
"440 124 CURVE",
"452 116 OFFCURVE",
"453 101 OFFCURVE",
"452 88 CURVE",
"450 70 OFFCURVE",
"434 40 OFFCURVE",
"421 33 CURVE",
"413 29 OFFCURVE",
"395 25 OFFCURVE",
"391 28 CURVE"
);
}
);
width = 901;
}
);
unicode = 306B;
},
{
glyphname = "nu-hira";
lastChange = "2020-04-30 23:37:10 +0000";
layers = (
{
layerId = "1305C52C-0BD1-483E-A343-C05F3AFF2931";
paths = (
{
closed = 1;
nodes = (
"461 80 OFFCURVE",
"463 106 OFFCURVE",
"465 116 CURVE",
"466 123 OFFCURVE",
"477 130 OFFCURVE",
"475 139 CURVE",
"474 149 OFFCURVE",
"439 176 OFFCURVE",
"447 183 CURVE",
"451 186 OFFCURVE",
"527 148 OFFCURVE",
"527 130 CURVE",
"528 121 OFFCURVE",
"490 75 OFFCURVE",
"472 78 CURVE"
);
},
{
closed = 1;
nodes = (
"26 285 OFFCURVE",
"36 294 OFFCURVE",
"42 303 CURVE",
"49 316 OFFCURVE",
"52 342 OFFCURVE",
"67 368 CURVE",
"89 405 OFFCURVE",
"115 421 OFFCURVE",
"139 420 CURVE",
"153 419 OFFCURVE",
"162 403 OFFCURVE",
"164 391 CURVE",
"167 374 OFFCURVE",
"155 348 OFFCURVE",
"181 347 CURVE",
"239 344 OFFCURVE",
"525 346 OFFCURVE",
"525 346 CURVE",
"525 346 OFFCURVE",
"480 490 OFFCURVE",
"465 542 CURVE",
"457 572 OFFCURVE",
"433 660 OFFCURVE",
"438 661 CURVE",
"446 663 OFFCURVE",
"476 580 OFFCURVE",
"488 549 CURVE",
"509 496 OFFCURVE",
"558 345 OFFCURVE",
"558 345 CURVE",
"558 345 OFFCURVE",
"684 345 OFFCURVE",
"730 345 CURVE",
"760 345 OFFCURVE",
"796 368 OFFCURVE",
"819 367 CURVE",
"838 366 OFFCURVE",
"868 360 OFFCURVE",
"868 338 CURVE",
"868 326 OFFCURVE",
"830 294 OFFCURVE",
"810 293 CURVE",
"802 293 OFFCURVE",
"759 302 OFFCURVE",
"740 302 CURVE",
"702 303 OFFCURVE",
"572 304 OFFCURVE",
"572 304 CURVE",
"572 304 OFFCURVE",
"612 185 OFFCURVE",
"625 151 CURVE",
"629 140 OFFCURVE",
"657 131 OFFCURVE",
"662 110 CURVE",
"665 96 OFFCURVE",
"631 58 OFFCURVE",
"615 58 CURVE",
"604 58 OFFCURVE",
"583 51 OFFCURVE",
"582 61 CURVE",
"581 78 OFFCURVE",
"587 113 OFFCURVE",
"577 132 CURVE",
"566 154 OFFCURVE",
"538 173 OFFCURVE",
"515 191 CURVE",
"494 207 OFFCURVE",
"451 236 OFFCURVE",
"392 238 CURVE",
"359 239 OFFCURVE",
"329 226 OFFCURVE",
"328 203 CURVE",
"327 183 OFFCURVE",
"345 157 OFFCURVE",
"367 148 CURVE",
"384 142 OFFCURVE",
"406 151 OFFCURVE",
"430 140 CURVE",
"437 136 OFFCURVE",
"444 95 OFFCURVE",
"435 79 CURVE",
"421 53 OFFCURVE",
"391 37 OFFCURVE",
"382 41 CURVE",
"375 44 OFFCURVE",
"379 61 OFFCURVE",
"375 67 CURVE",
"358 92 OFFCURVE",
"284 128 OFFCURVE",
"284 192 CURVE",
"284 231 OFFCURVE",
"315 280 OFFCURVE",
"391 278 CURVE",
"443 277 OFFCURVE",
"492 245 OFFCURVE",
"503 237 CURVE",
"523 223 OFFCURVE",
"569 175 OFFCURVE",
"563 190 CURVE",
"557 207 OFFCURVE",
"535 305 OFFCURVE",
"535 305 CURVE",
"535 305 OFFCURVE",
"273 307 OFFCURVE",
"199 306 CURVE",
"164 305 OFFCURVE",
"129 301 OFFCURVE",
"107 294 CURVE",
"88 289 OFFCURVE",
"81 280 OFFCURVE",
"71 280 CURVE",
"59 280 OFFCURVE",
"37 272 OFFCURVE",
"32 278 CURVE"
);
}
);
width = 898;
}
);
unicode = 306C;
},
{
glyphname = "ne-hira";
lastChange = "2020-04-30 23:37:05 +0000";
layers = (
{
layerId = "1305C52C-0BD1-483E-A343-C05F3AFF2931";
paths = (
{
closed = 1;
nodes = (
"17 161 OFFCURVE",
"54 229 OFFCURVE",
"68 250 CURVE",
"78 267 OFFCURVE",
"102 281 OFFCURVE",
"117 281 CURVE",
"140 281 OFFCURVE",
"143 237 OFFCURVE",
"159 236 CURVE",
"188 234 OFFCURVE",
"281 234 OFFCURVE",
"281 234 CURVE",
"281 234 OFFCURVE",
"188 324 OFFCURVE",
"178 381 CURVE",
"164 454 OFFCURVE",
"193 505 OFFCURVE",
"229 526 CURVE",
"291 563 OFFCURVE",
"372 556 OFFCURVE",
"431 532 CURVE",
"490 509 OFFCURVE",
"544 439 OFFCURVE",
"581 386 CURVE",
"611 341 OFFCURVE",
"640 287 OFFCURVE",
"689 263 CURVE",
"828 194 OFFCURVE",
"881 244 OFFCURVE",
"886 235 CURVE",
"889 226 OFFCURVE",
"797 179 OFFCURVE",
"705 209 CURVE",
"624 237 OFFCURVE",
"570 294 OFFCURVE",
"543 328 CURVE",
"477 416 OFFCURVE",
"407 496 OFFCURVE",
"322 496 CURVE",
"249 497 OFFCURVE",
"226 447 OFFCURVE",
"227 395 CURVE",
"228 329 OFFCURVE",
"294 246 OFFCURVE",
"340 245 CURVE",
"380 245 OFFCURVE",
"430 244 OFFCURVE",
"450 244 CURVE",
"480 243 OFFCURVE",
"439 189 OFFCURVE",
"414 188 CURVE",
"395 187 OFFCURVE",
"389 189 OFFCURVE",
"377 189 CURVE",
"359 189 OFFCURVE",
"344 205 OFFCURVE",
"325 206 CURVE",
"288 207 OFFCURVE",
"195 207 OFFCURVE",
"148 206 CURVE",
"108 206 OFFCURVE",
"57 138 OFFCURVE",
"35 151 CURVE"
);
},
{
closed = 1;
nodes = (
"299 333 OFFCURVE",
"336 349 OFFCURVE",
"335 366 CURVE",
"334 389 OFFCURVE",
"288 423 OFFCURVE",
"293 431 CURVE",
"300 440 OFFCURVE",
"338 415 OFFCURVE",
"357 405 CURVE",
"373 396 OFFCURVE",
"428 404 OFFCURVE",
"437 379 CURVE",
"441 366 OFFCURVE",
"409 344 OFFCURVE",
"390 334 CURVE",
"369 324 OFFCURVE",
"318 310 OFFCURVE",
"311 318 CURVE"
);
}
);
width = 916;
}
);
unicode = 306D;
},
{
glyphname = "no-hira";
lastChange = "2020-04-30 23:36:57 +0000";
layers = (
{
layerId = "1305C52C-0BD1-483E-A343-C05F3AFF2931";
paths = (
{
closed = 1;
nodes = (
"276 60 OFFCURVE",
"310 77 OFFCURVE",
"309 97 CURVE",
"308 121 OFFCURVE",
"254 194 OFFCURVE",
"262 202 CURVE",
"270 212 OFFCURVE",
"296 178 OFFCURVE",
"316 172 CURVE",
"335 167 OFFCURVE",
"368 176 OFFCURVE",
"382 167 CURVE",
"397 158 OFFCURVE",
"402 127 OFFCURVE",
"395 111 CURVE",
"355 16 OFFCURVE",
"290 34 OFFCURVE",
"285 44 CURVE"
);
},
{
closed = 1;
nodes = (
"115 50 OFFCURVE",
"29 175 OFFCURVE",
"30 242 CURVE",
"32 328 OFFCURVE",
"89 382 OFFCURVE",
"174 383 CURVE",
"319 384 OFFCURVE",
"434 193 OFFCURVE",
"441 193 CURVE",
"449 194 OFFCURVE",
"487 281 OFFCURVE",
"513 321 CURVE",
"546 372 OFFCURVE",
"596 418 OFFCURVE",
"605 517 CURVE",
"617 636 OFFCURVE",
"566 736 OFFCURVE",
"578 741 CURVE",
"590 745 OFFCURVE",
"679 585 OFFCURVE",
"677 494 CURVE",
"675 399 OFFCURVE",
"626 350 OFFCURVE",
"579 299 CURVE",
"535 251 OFFCURVE",
"476 189 OFFCURVE",
"475 135 CURVE",
"474 71 OFFCURVE",
"559 32 OFFCURVE",
"561 8 CURVE",
"564 -31 OFFCURVE",
"495 -42 OFFCURVE",
"481 -41 CURVE",
"468 -40 OFFCURVE",
"477 -4 OFFCURVE",
"476 14 CURVE",
"475 37 OFFCURVE",
"449 65 OFFCURVE",
"444 94 CURVE",
"439 118 OFFCURVE",
"435 170 OFFCURVE",
"435 170 CURVE",
"435 170 OFFCURVE",
"339 318 OFFCURVE",
"212 322 CURVE",
"156 324 OFFCURVE",
"76 290 OFFCURVE",
"76 235 CURVE",
"75 182 OFFCURVE",
"102 148 OFFCURVE",
"138 148 CURVE",
"155 149 OFFCURVE",
"172 164 OFFCURVE",
"187 164 CURVE",
"204 164 OFFCURVE",
"219 142 OFFCURVE",
"220 128 CURVE",
"222 109 OFFCURVE",
"195 50 OFFCURVE",
"162 50 CURVE"
);
}
);
width = 707;
}
);
unicode = 306E;
},
{
glyphname = "ha-hira";
lastChange = "2020-04-30 23:36:51 +0000";
layers = (
{
layerId = "1305C52C-0BD1-483E-A343-C05F3AFF2931";
paths = (
{
closed = 1;
nodes = (
"845 86 OFFCURVE",
"819 211 OFFCURVE",
"783 271 CURVE SMOOTH",
"725 368 OFFCURVE",
"665 376 OFFCURVE",
"665 376 CURVE SMOOTH",
"665 376 OFFCURVE",
"671 340 OFFCURVE",
"649 316 CURVE SMOOTH",
"571 231 OFFCURVE",
"480 322 OFFCURVE",
"466 337 CURVE SMOOTH",
"441 364 OFFCURVE",
"416 408 OFFCURVE",
"419 433 CURVE SMOOTH",
"425 482 OFFCURVE",
"455 492 OFFCURVE",
"455 492 CURVE SMOOTH",
"455 492 OFFCURVE",
"455 506 OFFCURVE",
"447 507 CURVE SMOOTH",
"429 509 OFFCURVE",
"395 460 OFFCURVE",
"365 445 CURVE SMOOTH",
"318 422 OFFCURVE",
"262 418 OFFCURVE",
"262 418 CURVE SMOOTH",
"262 418 OFFCURVE",
"313 347 OFFCURVE",
"329 311 CURVE SMOOTH",
"347 270 OFFCURVE",
"385 177 OFFCURVE",
"368 176 CURVE SMOOTH",
"353 175 OFFCURVE",
"309 286 OFFCURVE",
"235 373 CURVE SMOOTH",
"198 417 OFFCURVE",
"149 480 OFFCURVE",
"114 499 CURVE SMOOTH",
"101 506 OFFCURVE",
"48 498 OFFCURVE",
"34 501 CURVE SMOOTH",
"29 502 OFFCURVE",
"29 514 OFFCURVE",
"33 518 CURVE SMOOTH",
"36 521 OFFCURVE",
"52 523 OFFCURVE",
"56 526 CURVE SMOOTH",
"75 540 OFFCURVE",
"117 598 OFFCURVE",
"141 610 CURVE SMOOTH",
"153 616 OFFCURVE",
"178 611 OFFCURVE",
"186 603 CURVE SMOOTH",
"204 585 OFFCURVE",
"179 552 OFFCURVE",
"185 532 CURVE SMOOTH",
"193 505 OFFCURVE",
"240 449 OFFCURVE",
"240 449 CURVE SMOOTH",
"240 449 OFFCURVE",
"290 440 OFFCURVE",
"327 466 CURVE SMOOTH",
"337 473 OFFCURVE",
"367 498 OFFCURVE",
"378 530 CURVE SMOOTH",
"384 548 OFFCURVE",
"373 582 OFFCURVE",
"380 594 CURVE SMOOTH",
"386 605 OFFCURVE",
"410 611 OFFCURVE",
"420 605 CURVE SMOOTH",
"434 597 OFFCURVE",
"439 552 OFFCURVE",
"462 537 CURVE SMOOTH",
"495 515 OFFCURVE",
"636 476 OFFCURVE",
"708 427 CURVE SMOOTH",
"746 401 OFFCURVE",
"798 322 OFFCURVE",
"819 283 CURVE SMOOTH",
"858 211 OFFCURVE",
"857 90 OFFCURVE",
"851 88 CURVE SMOOTH"
);
},
{
closed = 1;
nodes = (
"552 334 OFFCURVE",
"588 330 OFFCURVE",
"599 348 CURVE SMOOTH",
"606 359 OFFCURVE",
"602 377 OFFCURVE",
"596 388 CURVE SMOOTH",
"579 419 OFFCURVE",
"559 422 OFFCURVE",
"537 429 CURVE SMOOTH",
"519 435 OFFCURVE",
"476 444 OFFCURVE",
"465 423 CURVE SMOOTH",
"460 413 OFFCURVE",
"464 396 OFFCURVE",
"472 384 CURVE SMOOTH",
"482 369 OFFCURVE",
"505 349 OFFCURVE",
"530 341 CURVE SMOOTH"
);
}
);
width = 884;
}
);
unicode = 306F;
},
{
glyphname = "ba-hira";
lastChange = "2020-04-30 23:36:45 +0000";
layers = (
{
layerId = "1305C52C-0BD1-483E-A343-C05F3AFF2931";
paths = (
{
closed = 1;
nodes = (
"843 45 OFFCURVE",
"827 139 OFFCURVE",
"774 231 CURVE SMOOTH",
"734 300 OFFCURVE",
"658 345 OFFCURVE",
"658 345 CURVE",
"658 345 OFFCURVE",
"651 295 OFFCURVE",
"638 275 CURVE SMOOTH",
"624 254 OFFCURVE",
"576 243 OFFCURVE",
"542 249 CURVE SMOOTH",
"484 259 OFFCURVE",
"419 337 OFFCURVE",
"417 372 CURVE SMOOTH",
"412 452 OFFCURVE",
"468 448 OFFCURVE",
"468 448 CURVE",
"432 471 LINE",
"432 471 OFFCURVE",
"386 437 OFFCURVE",
"363 420 CURVE SMOOTH",
"333 398 OFFCURVE",
"227 370 OFFCURVE",
"227 370 CURVE",
"210 397 LINE",
"210 397 LINE",
"210 397 OFFCURVE",
"270 404 OFFCURVE",
"300 419 CURVE SMOOTH",
"330 434 OFFCURVE",
"381 464 OFFCURVE",
"379 507 CURVE SMOOTH",
"378 528 OFFCURVE",
"386 564 OFFCURVE",
"404 563 CURVE SMOOTH",
"433 561 OFFCURVE",
"430 507 OFFCURVE",
"449 495 CURVE SMOOTH",
"485 472 OFFCURVE",
"593 446 OFFCURVE",
"644 422 CURVE SMOOTH",
"905 299 OFFCURVE",
"843 45 OFFCURVE",
"843 45 CURVE"
);
},
{
closed = 1;
nodes = (
"362 144 OFFCURVE",
"291 269 OFFCURVE",
"235 336 CURVE SMOOTH",
"196 383 OFFCURVE",
"138 443 OFFCURVE",
"109 464 CURVE SMOOTH",
"91 477 OFFCURVE",
"24 450 OFFCURVE",
"30 466 CURVE",
"30 466 LINE",
"34 478 OFFCURVE",
"70 509 OFFCURVE",
"93 528 CURVE SMOOTH",
"115 547 OFFCURVE",
"149 576 OFFCURVE",
"166 574 CURVE SMOOTH",
"180 572 OFFCURVE",
"191 553 OFFCURVE",
"191 541 CURVE SMOOTH",
"191 529 OFFCURVE",
"172 504 OFFCURVE",
"177 491 CURVE SMOOTH",
"188 462 OFFCURVE",
"233 408 OFFCURVE",
"264 366 CURVE SMOOTH",
"343 260 OFFCURVE",
"362 144 OFFCURVE",
"362 144 CURVE"
);
},
{
closed = 1;
nodes = (
"578 292 OFFCURVE",
"600 305 OFFCURVE",
"602 322 CURVE SMOOTH",
"605 346 OFFCURVE",
"570 395 OFFCURVE",
"508 400 CURVE SMOOTH",
"473 403 OFFCURVE",
"453 386 OFFCURVE",
"452 363 CURVE SMOOTH",
"451 343 OFFCURVE",
"493 292 OFFCURVE",
"561 292 CURVE SMOOTH"
);
},
{
closed = 1;
nodes = (
"232 465 LINE",
"223 466 OFFCURVE",
"262 496 OFFCURVE",
"262 516 CURVE SMOOTH",
"262 538 OFFCURVE",
"230 573 OFFCURVE",
"231 597 CURVE SMOOTH",
"233 637 OFFCURVE",
"271 656 OFFCURVE",
"300 655 CURVE SMOOTH",
"324 654 OFFCURVE",
"339 628 OFFCURVE",
"340 612 CURVE SMOOTH",
"341 597 OFFCURVE",
"337 569 OFFCURVE",
"328 569 CURVE SMOOTH",
"318 569 OFFCURVE",
"296 613 OFFCURVE",
"284 613 CURVE SMOOTH",
"273 613 OFFCURVE",
"261 600 OFFCURVE",
"262 583 CURVE SMOOTH",
"264 553 OFFCURVE",
"318 529 OFFCURVE",
"318 507 CURVE SMOOTH",
"318 483 OFFCURVE",
"241 463 OFFCURVE",
"232 465 CURVE"
);
}
);
width = 879;
}
);
unicode = 3070;
},
{
glyphname = "pa-hira";
lastChange = "2020-04-30 23:36:39 +0000";
layers = (
{
layerId = "1305C52C-0BD1-483E-A343-C05F3AFF2931";
paths = (
{
closed = 1;
nodes = (
"844 20 OFFCURVE",
"834 113 OFFCURVE",
"797 176 CURVE SMOOTH",
"723 301 OFFCURVE",
"654 318 OFFCURVE",
"654 318 CURVE",
"654 318 OFFCURVE",
"652 274 OFFCURVE",
"639 253 CURVE SMOOTH",
"627 234 OFFCURVE",
"592 223 OFFCURVE",
"567 224 CURVE SMOOTH",
"509 226 OFFCURVE",
"422 317 OFFCURVE",
"422 368 CURVE SMOOTH",
"422 394 OFFCURVE",
"466 433 OFFCURVE",
"466 433 CURVE",
"436 449 LINE",
"436 449 OFFCURVE",
"380 400 OFFCURVE",
"349 384 CURVE SMOOTH",
"299 358 OFFCURVE",
"225 352 OFFCURVE",
"225 352 CURVE",
"211 379 LINE",
"211 379 LINE",
"211 379 OFFCURVE",
"305 390 OFFCURVE",
"332 414 CURVE SMOOTH",
"393 469 OFFCURVE",
"379 492 OFFCURVE",
"381 517 CURVE SMOOTH",
"382 529 OFFCURVE",
"396 543 OFFCURVE",
"407 543 CURVE SMOOTH",
"436 543 OFFCURVE",
"433 493 OFFCURVE",
"448 482 CURVE SMOOTH",
"494 448 OFFCURVE",
"546 441 OFFCURVE",
"603 418 CURVE SMOOTH",
"732 366 OFFCURVE",
"773 311 OFFCURVE",
"813 244 CURVE SMOOTH",
"859 168 OFFCURVE",
"844 20 OFFCURVE",
"844 20 CURVE"
);
},
{
closed = 1;
nodes = (
"361 123 OFFCURVE",
"304 231 OFFCURVE",
"247 300 CURVE SMOOTH",
"203 353 OFFCURVE",
"136 421 OFFCURVE",
"104 445 CURVE SMOOTH",
"88 457 OFFCURVE",
"34 431 OFFCURVE",
"30 440 CURVE",
"30 440 LINE",
"25 450 OFFCURVE",
"76 494 OFFCURVE",
"100 513 CURVE SMOOTH",
"121 530 OFFCURVE",
"157 565 OFFCURVE",
"173 557 CURVE SMOOTH",
"200 544 OFFCURVE",
"176 491 OFFCURVE",
"186 469 CURVE SMOOTH",
"202 433 OFFCURVE",
"257 357 OFFCURVE",
"285 315 CURVE SMOOTH",
"379 174 OFFCURVE",
"361 123 OFFCURVE",
"361 123 CURVE"
);
},
{
closed = 1;
nodes = (
"578 275 OFFCURVE",
"601 279 OFFCURVE",
"601 304 CURVE SMOOTH",
"601 351 OFFCURVE",
"539 375 OFFCURVE",
"505 377 CURVE SMOOTH",
"485 378 OFFCURVE",
"465 369 OFFCURVE",
"465 346 CURVE SMOOTH",
"465 327 OFFCURVE",
"503 280 OFFCURVE",
"562 276 CURVE SMOOTH"
);
},
{
closed = 1;
nodes = (
"292 509 LINE",
"240 507 OFFCURVE",
"212 565 OFFCURVE",
"213 601 CURVE SMOOTH",
"214 630 OFFCURVE",
"224 678 OFFCURVE",
"284 680 CURVE SMOOTH",
"319 681 OFFCURVE",
"362 644 OFFCURVE",
"362 613 CURVE SMOOTH",
"362 602 OFFCURVE",
"360 577 OFFCURVE",
"354 576 CURVE SMOOTH",
"349 575 OFFCURVE",
"333 592 OFFCURVE",
"329 603 CURVE SMOOTH",
"323 619 OFFCURVE",
"294 641 OFFCURVE",
"281 641 CURVE SMOOTH",
"254 641 OFFCURVE",
"243 622 OFFCURVE",
"243 595 CURVE SMOOTH",
"243 579 OFFCURVE",
"255 545 OFFCURVE",
"272 545 CURVE SMOOTH",
"289 545 OFFCURVE",
"294 566 OFFCURVE",
"307 571 CURVE SMOOTH",
"319 576 OFFCURVE",
"338 583 OFFCURVE",
"347 570 CURVE SMOOTH",
"353 561 OFFCURVE",
"312 510 OFFCURVE",
"292 509 CURVE"
);
}
);
width = 876;
}
);
unicode = 3071;
},
{
glyphname = "hi-hira";
lastChange = "2020-04-30 23:36:34 +0000";
layers = (
{
layerId = "1305C52C-0BD1-483E-A343-C05F3AFF2931";
paths = (
{
closed = 1;
nodes = (
"779 -51 OFFCURVE",
"774 -17 OFFCURVE",
"765 -6 CURVE SMOOTH",
"698 73 OFFCURVE",
"686 86 OFFCURVE",
"579 134 CURVE SMOOTH",
"471 181 OFFCURVE",
"383 183 OFFCURVE",
"383 183 CURVE SMOOTH",
"383 183 OFFCURVE",
"401 163 OFFCURVE",
"400 146 CURVE",
"400 132 OFFCURVE",
"360 116 OFFCURVE",
"339 117 CURVE",
"306 117 OFFCURVE",
"247 172 OFFCURVE",
"244 201 CURVE SMOOTH",
"240 243 OFFCURVE",
"314 248 OFFCURVE",
"314 248 CURVE SMOOTH",
"314 248 OFFCURVE",
"271 305 OFFCURVE",
"245 327 CURVE SMOOTH",
"215 354 OFFCURVE",
"167 391 OFFCURVE",
"145 393 CURVE",
"117 397 OFFCURVE",
"37 380 OFFCURVE",
"31 397 CURVE SMOOTH",
"25 413 OFFCURVE",
"57 452 OFFCURVE",
"78 471 CURVE SMOOTH",
"99 491 OFFCURVE",
"153 525 OFFCURVE",
"164 515 CURVE",
"175 504 OFFCURVE",
"162 474 OFFCURVE",
"167 458 CURVE SMOOTH",
"176 432 OFFCURVE",
"224 392 OFFCURVE",
"263 350 CURVE SMOOTH",
"315 294 OFFCURVE",
"350 248 OFFCURVE",
"350 248 CURVE SMOOTH",
"350 248 OFFCURVE",
"492 234 OFFCURVE",
"609 175 CURVE SMOOTH",
"706 125 OFFCURVE",
"791 25 OFFCURVE",
"795 -5 CURVE SMOOTH",
"797 -22 OFFCURVE",
"789 -50 OFFCURVE",
"784 -50 CURVE"
);
},
{
closed = 1;
nodes = (
"334 143 OFFCURVE",
"355 144 OFFCURVE",
"360 150 CURVE",
"370 161 OFFCURVE",
"349 187 OFFCURVE",
"349 187 CURVE SMOOTH",
"349 187 OFFCURVE",
"289 193 OFFCURVE",
"283 182 CURVE SMOOTH",
"279 175 OFFCURVE",
"309 153 OFFCURVE",
"322 148 CURVE SMOOTH"
);
},
{
closed = 1;
nodes = (
"366 285 OFFCURVE",
"413 320 OFFCURVE",
"413 334 CURVE",
"414 351 OFFCURVE",
"331 379 OFFCURVE",
"331 405 CURVE SMOOTH",
"331 437 OFFCURVE",
"388 489 OFFCURVE",
"431 490 CURVE SMOOTH",
"475 490 OFFCURVE",
"539 496 OFFCURVE",
"583 503 CURVE SMOOTH",
"660 516 OFFCURVE",
"752 588 OFFCURVE",
"758 644 CURVE SMOOTH",
"761 675 OFFCURVE",
"734 746 OFFCURVE",
"740 750 CURVE",
"748 754 OFFCURVE",
"797 670 OFFCURVE",
"797 631 CURVE SMOOTH",
"796 499 OFFCURVE",
"668 434 OFFCURVE",
"604 432 CURVE SMOOTH",
"536 430 OFFCURVE",
"460 430 OFFCURVE",
"421 430 CURVE SMOOTH",
"401 430 OFFCURVE",
"380 415 OFFCURVE",
"380 400 CURVE SMOOTH",
"380 363 OFFCURVE",
"503 366 OFFCURVE",
"507 325 CURVE SMOOTH",
"509 304 OFFCURVE",
"480 279 OFFCURVE",
"461 277 CURVE SMOOTH",
"433 274 OFFCURVE",
"423 275 OFFCURVE",
"409 273 CURVE",
"398 272 OFFCURVE",
"381 264 OFFCURVE",
"375 272 CURVE"
);
}
);
width = 827;
}
);
unicode = 3072;
},
{
glyphname = "bi-hira";
lastChange = "2020-04-30 23:36:23 +0000";
layers = (
{
layerId = "1305C52C-0BD1-483E-A343-C05F3AFF2931";
paths = (
{
closed = 1;
nodes = (
"721 -12 OFFCURVE",
"701 40 OFFCURVE",
"647 83 CURVE SMOOTH",
"623 102 OFFCURVE",
"567 136 OFFCURVE",
"508 156 CURVE SMOOTH",
"432 182 OFFCURVE",
"350 193 OFFCURVE",
"350 193 CURVE",
"350 193 OFFCURVE",
"366 168 OFFCURVE",
"364 154 CURVE SMOOTH",
"362 142 OFFCURVE",
"333 129 OFFCURVE",
"315 130 CURVE SMOOTH",
"297 131 OFFCURVE",
"269 144 OFFCURVE",
"254 160 CURVE SMOOTH",
"240 175 OFFCURVE",
"229 204 OFFCURVE",
"231 220 CURVE SMOOTH",
"236 257 OFFCURVE",
"288 251 OFFCURVE",
"288 251 CURVE",
"288 251 OFFCURVE",
"252 304 OFFCURVE",
"214 334 CURVE SMOOTH",
"185 357 OFFCURVE",
"138 390 OFFCURVE",
"108 390 CURVE SMOOTH",
"93 390 OFFCURVE",
"76 382 OFFCURVE",
"63 382 CURVE SMOOTH",
"50 382 OFFCURVE",
"28 380 OFFCURVE",
"30 391 CURVE SMOOTH",
"32 403 OFFCURVE",
"56 439 OFFCURVE",
"74 457 CURVE SMOOTH",
"92 475 OFFCURVE",
"129 500 OFFCURVE",
"143 498 CURVE SMOOTH",
"157 496 OFFCURVE",
"149 449 OFFCURVE",
"159 434 CURVE SMOOTH",
"180 403 OFFCURVE",
"242 346 OFFCURVE",
"270 316 CURVE SMOOTH",
"289 295 OFFCURVE",
"326 249 OFFCURVE",
"326 249 CURVE",
"326 249 OFFCURVE",
"479 231 OFFCURVE",
"562 182 CURVE SMOOTH",
"771 59 OFFCURVE",
"721 -12 OFFCURVE",
"721 -12 CURVE"
);
},
{
closed = 1;
nodes = (
"306 158 OFFCURVE",
"324 157 OFFCURVE",
"329 163 CURVE SMOOTH",
"340 176 OFFCURVE",
"317 198 OFFCURVE",
"317 198 CURVE",
"317 198 OFFCURVE",
"278 202 OFFCURVE",
"268 200 CURVE SMOOTH",
"262 199 OFFCURVE",
"267 187 OFFCURVE",
"269 182 CURVE SMOOTH",
"272 175 OFFCURVE",
"285 164 OFFCURVE",
"296 161 CURVE SMOOTH"
);
},
{
closed = 1;
nodes = (
"351 272 LINE",
"351 300 OFFCURVE",
"387 308 OFFCURVE",
"387 328 CURVE SMOOTH",
"387 351 OFFCURVE",
"310 347 OFFCURVE",
"310 402 CURVE SMOOTH",
"310 483 OFFCURVE",
"412 477 OFFCURVE",
"465 479 CURVE SMOOTH",
"523 481 OFFCURVE",
"689 516 OFFCURVE",
"694 640 CURVE SMOOTH",
"695 663 OFFCURVE",
"672 713 OFFCURVE",
"672 713 CURVE",
"672 713 OFFCURVE",
"740 680 OFFCURVE",
"739 580 CURVE SMOOTH",
"738 480 OFFCURVE",
"600 414 OFFCURVE",
"535 413 CURVE SMOOTH",
"491 412 OFFCURVE",
"428 416 OFFCURVE",
"398 416 CURVE SMOOTH",
"382 416 OFFCURVE",
"348 406 OFFCURVE",
"349 390 CURVE SMOOTH",
"350 372 OFFCURVE",
"393 356 OFFCURVE",
"418 354 CURVE SMOOTH",
"438 352 OFFCURVE",
"469 333 OFFCURVE",
"470 322 CURVE SMOOTH",
"471 309 OFFCURVE",
"448 285 OFFCURVE",
"432 282 CURVE SMOOTH",
"414 279 OFFCURVE",
"393 279 OFFCURVE",
"380 278 CURVE SMOOTH",
"370 277 OFFCURVE",
"351 263 OFFCURVE",
"351 272 CURVE"
);
},
{
closed = 1;
nodes = (
"210 419 LINE",
"200 422 OFFCURVE",
"236 450 OFFCURVE",
"236 470 CURVE SMOOTH",
"236 491 OFFCURVE",
"206 523 OFFCURVE",
"207 548 CURVE SMOOTH",
"208 575 OFFCURVE",
"248 603 OFFCURVE",
"271 604 CURVE SMOOTH",
"295 605 OFFCURVE",
"321 587 OFFCURVE",
"322 570 CURVE SMOOTH",
"323 554 OFFCURVE",
"315 521 OFFCURVE",
"305 521 CURVE SMOOTH",
"295 521 OFFCURVE",
"277 559 OFFCURVE",
"266 559 CURVE SMOOTH",
"255 559 OFFCURVE",
"240 547 OFFCURVE",
"241 536 CURVE SMOOTH",
"244 503 OFFCURVE",
"298 479 OFFCURVE",
"296 460 CURVE SMOOTH",
"293 430 OFFCURVE",
"220 417 OFFCURVE",
"210 419 CURVE"
);
}
);
width = 749;
}
);
unicode = 3073;
},
{
glyphname = "pi-hira";
lastChange = "2020-04-30 23:36:17 +0000";
layers = (
{
layerId = "1305C52C-0BD1-483E-A343-C05F3AFF2931";
paths = (
{
closed = 1;
nodes = (
"721 -13 OFFCURVE",
"702 40 OFFCURVE",
"647 83 CURVE SMOOTH",
"623 102 OFFCURVE",
"567 135 OFFCURVE",
"508 155 CURVE SMOOTH",
"433 180 OFFCURVE",
"350 193 OFFCURVE",
"350 193 CURVE",
"350 193 OFFCURVE",
"366 167 OFFCURVE",
"364 154 CURVE SMOOTH",
"362 142 OFFCURVE",
"334 128 OFFCURVE",
"315 129 CURVE SMOOTH",
"297 130 OFFCURVE",
"268 144 OFFCURVE",
"254 159 CURVE SMOOTH",
"240 174 OFFCURVE",
"229 204 OFFCURVE",
"231 220 CURVE SMOOTH",
"236 257 OFFCURVE",
"288 251 OFFCURVE",
"288 251 CURVE",
"288 251 OFFCURVE",
"252 303 OFFCURVE",
"214 333 CURVE SMOOTH",
"185 356 OFFCURVE",
"139 390 OFFCURVE",
"108 390 CURVE SMOOTH",
"93 390 OFFCURVE",
"76 382 OFFCURVE",
"63 382 CURVE SMOOTH",
"50 382 OFFCURVE",
"28 380 OFFCURVE",
"30 390 CURVE SMOOTH",
"32 402 OFFCURVE",
"56 438 OFFCURVE",
"75 456 CURVE SMOOTH",
"94 474 OFFCURVE",
"130 499 OFFCURVE",
"144 498 CURVE SMOOTH",
"158 497 OFFCURVE",
"149 449 OFFCURVE",
"159 434 CURVE SMOOTH",
"180 403 OFFCURVE",
"243 347 OFFCURVE",
"270 316 CURVE SMOOTH",
"289 294 OFFCURVE",
"326 249 OFFCURVE",
"326 249 CURVE",
"326 249 OFFCURVE",
"479 231 OFFCURVE",
"562 181 CURVE SMOOTH",
"769 56 OFFCURVE",
"721 -13 OFFCURVE",
"721 -13 CURVE"
);
},
{
closed = 1;
nodes = (
"307 156 OFFCURVE",
"324 157 OFFCURVE",
"329 162 CURVE SMOOTH",
"342 175 OFFCURVE",
"317 197 OFFCURVE",
"317 197 CURVE",
"317 197 OFFCURVE",
"278 202 OFFCURVE",
"268 199 CURVE SMOOTH",
"262 197 OFFCURVE",
"267 187 OFFCURVE",
"269 182 CURVE SMOOTH",
"272 175 OFFCURVE",
"286 164 OFFCURVE",
"296 160 CURVE SMOOTH"
);
},
{
closed = 1;
nodes = (
"351 271 LINE",
"351 300 OFFCURVE",
"387 308 OFFCURVE",
"387 328 CURVE SMOOTH",
"387 351 OFFCURVE",
"310 347 OFFCURVE",
"310 402 CURVE SMOOTH",
"310 482 OFFCURVE",
"412 477 OFFCURVE",
"465 478 CURVE SMOOTH",
"523 479 OFFCURVE",
"689 515 OFFCURVE",
"694 639 CURVE SMOOTH",
"695 663 OFFCURVE",
"672 713 OFFCURVE",
"672 713 CURVE",
"672 713 OFFCURVE",
"740 679 OFFCURVE",
"739 580 CURVE SMOOTH",
"738 479 OFFCURVE",
"600 413 OFFCURVE",
"535 412 CURVE SMOOTH",
"491 411 OFFCURVE",
"429 415 OFFCURVE",
"398 415 CURVE SMOOTH",
"382 415 OFFCURVE",
"348 405 OFFCURVE",
"349 389 CURVE SMOOTH",
"350 372 OFFCURVE",
"393 355 OFFCURVE",
"418 353 CURVE SMOOTH",
"438 351 OFFCURVE",
"469 333 OFFCURVE",
"470 321 CURVE SMOOTH",
"471 309 OFFCURVE",
"448 284 OFFCURVE",
"432 281 CURVE SMOOTH",
"414 278 OFFCURVE",
"394 278 OFFCURVE",
"380 277 CURVE SMOOTH",
"370 276 OFFCURVE",
"351 263 OFFCURVE",
"351 271 CURVE"
);
},
{
closed = 1;
nodes = (
"251 464 LINE",
"199 462 OFFCURVE",
"171 520 OFFCURVE",
"172 556 CURVE SMOOTH",
"173 585 OFFCURVE",
"183 633 OFFCURVE",
"243 635 CURVE SMOOTH",
"278 636 OFFCURVE",
"321 599 OFFCURVE",
"321 568 CURVE SMOOTH",
"321 557 OFFCURVE",
"319 532 OFFCURVE",
"313 531 CURVE SMOOTH",
"308 530 OFFCURVE",
"292 547 OFFCURVE",
"288 558 CURVE SMOOTH",
"282 574 OFFCURVE",
"253 596 OFFCURVE",
"240 596 CURVE SMOOTH",
"213 596 OFFCURVE",
"202 577 OFFCURVE",
"202 550 CURVE SMOOTH",
"202 534 OFFCURVE",
"214 500 OFFCURVE",
"231 500 CURVE SMOOTH",
"248 500 OFFCURVE",
"253 521 OFFCURVE",
"266 526 CURVE SMOOTH",
"278 531 OFFCURVE",
"297 538 OFFCURVE",
"306 525 CURVE SMOOTH",
"312 516 OFFCURVE",
"271 465 OFFCURVE",
"251 464 CURVE"
);
}
);
width = 769;
}
);
unicode = 3074;
},
{
glyphname = "hu-hira";
lastChange = "2020-04-30 23:36:12 +0000";
layers = (
{
layerId = "1305C52C-0BD1-483E-A343-C05F3AFF2931";
paths = (
{
closed = 1;
nodes = (
"634 8 OFFCURVE",
"607 72 OFFCURVE",
"569 111 CURVE SMOOTH",
"498 184 OFFCURVE",
"444 194 OFFCURVE",
"444 194 CURVE SMOOTH",
"444 194 OFFCURVE",
"455 123 OFFCURVE",
"419 119 CURVE SMOOTH",
"379 115 OFFCURVE",
"340 138 OFFCURVE",
"310 157 CURVE SMOOTH",
"282 175 OFFCURVE",
"241 207 OFFCURVE",
"239 231 CURVE SMOOTH",
"237 252 OFFCURVE",
"275 278 OFFCURVE",
"297 279 CURVE SMOOTH",
"321 280 OFFCURVE",
"373 273 OFFCURVE",
"373 273 CURVE",
"344 312 LINE",
"344 312 OFFCURVE",
"262 314 OFFCURVE",
"220 314 CURVE SMOOTH",
"181 314 OFFCURVE",
"141 306 OFFCURVE",
"110 299 CURVE SMOOTH",
"87 294 OFFCURVE",
"40 265 OFFCURVE",
"32 274 CURVE SMOOTH",
"22 286 OFFCURVE",
"64 365 OFFCURVE",
"83 390 CURVE SMOOTH",
"94 405 OFFCURVE",
"118 426 OFFCURVE",
"139 426 CURVE SMOOTH",
"167 426 OFFCURVE",
"161 373 OFFCURVE",
"174 361 CURVE SMOOTH",
"192 345 OFFCURVE",
"323 347 OFFCURVE",
"323 347 CURVE SMOOTH",
"323 347 OFFCURVE",
"295 379 OFFCURVE",
"281 393 CURVE SMOOTH",
"268 406 OFFCURVE",
"240 429 OFFCURVE",
"226 429 CURVE SMOOTH",
"206 429 OFFCURVE",
"195 407 OFFCURVE",
"187 415 CURVE SMOOTH",
"181 421 OFFCURVE",
"191 473 OFFCURVE",
"204 490 CURVE SMOOTH",
"216 505 OFFCURVE",
"236 513 OFFCURVE",
"250 512 CURVE SMOOTH",
"266 511 OFFCURVE",
"270 479 OFFCURVE",
"278 467 CURVE SMOOTH",
"286 455 OFFCURVE",
"308 431 OFFCURVE",
"325 407 CURVE SMOOTH",
"346 377 OFFCURVE",
"364 346 OFFCURVE",
"364 346 CURVE",
"585 348 LINE",
"585 348 OFFCURVE",
"557 443 OFFCURVE",
"542 489 CURVE SMOOTH",
"523 548 OFFCURVE",
"467 686 OFFCURVE",
"480 689 CURVE SMOOTH",
"489 691 OFFCURVE",
"523 601 OFFCURVE",
"561 506 CURVE SMOOTH",
"593 426 OFFCURVE",
"629 349 OFFCURVE",
"629 349 CURVE SMOOTH",
"629 349 OFFCURVE",
"737 352 OFFCURVE",
"768 352 CURVE SMOOTH",
"783 352 OFFCURVE",
"800 374 OFFCURVE",
"818 375 CURVE SMOOTH",
"835 376 OFFCURVE",
"866 365 OFFCURVE",
"866 347 CURVE SMOOTH",
"866 333 OFFCURVE",
"829 300 OFFCURVE",
"810 299 CURVE SMOOTH",
"794 298 OFFCURVE",
"780 308 OFFCURVE",
"763 308 CURVE SMOOTH",
"736 308 OFFCURVE",
"643 313 OFFCURVE",
"643 313 CURVE SMOOTH",
"643 313 OFFCURVE",
"649 304 OFFCURVE",
"652 297 CURVE SMOOTH",
"655 290 OFFCURVE",
"685 287 OFFCURVE",
"684 271 CURVE SMOOTH",
"683 247 OFFCURVE",
"653 212 OFFCURVE",
"623 209 CURVE SMOOTH",
"600 207 OFFCURVE",
"559 224 OFFCURVE",
"559 236 CURVE SMOOTH",
"559 250 OFFCURVE",
"594 253 OFFCURVE",
"600 265 CURVE SMOOTH",
"606 278 OFFCURVE",
"595 311 OFFCURVE",
"595 311 CURVE",
"381 315 LINE",
"381 315 OFFCURVE",
"402 280 OFFCURVE",
"423 262 CURVE SMOOTH",
"444 244 OFFCURVE",
"500 221 OFFCURVE",
"555 174 CURVE SMOOTH",
"643 99 OFFCURVE",
"654 16 OFFCURVE",
"642 11 CURVE SMOOTH"
);
},
{
closed = 1;
nodes = (
"430 144 OFFCURVE",
"414 204 OFFCURVE",
"400 216 CURVE SMOOTH",
"386 228 OFFCURVE",
"358 231 OFFCURVE",
"334 231 CURVE SMOOTH",
"316 231 OFFCURVE",
"284 235 OFFCURVE",
"283 215 CURVE SMOOTH",
"282 196 OFFCURVE",
"368 141 OFFCURVE",
"407 143 CURVE SMOOTH"
);
}
);
width = 896;
}
);
unicode = 3075;
},
{
glyphname = "bu-hira";
lastChange = "2020-04-30 23:36:06 +0000";
layers = (
{
layerId = "1305C52C-0BD1-483E-A343-C05F3AFF2931";
paths = (
{
closed = 1;
nodes = (
"646 13 OFFCURVE",
"588 98 OFFCURVE",
"553 127 CURVE SMOOTH",
"517 157 OFFCURVE",
"433 203 OFFCURVE",
"433 203 CURVE",
"433 203 OFFCURVE",
"456 148 OFFCURVE",
"444 135 CURVE SMOOTH",
"432 122 OFFCURVE",
"385 121 OFFCURVE",
"364 127 CURVE SMOOTH",
"329 137 OFFCURVE",
"240 201 OFFCURVE",
"239 229 CURVE SMOOTH",
"238 254 OFFCURVE",
"273 269 OFFCURVE",
"295 275 CURVE SMOOTH",
"316 281 OFFCURVE",
"375 269 OFFCURVE",
"375 269 CURVE",
"375 269 OFFCURVE",
"337 335 OFFCURVE",
"314 361 CURVE SMOOTH",
"290 388 OFFCURVE",
"241 432 OFFCURVE",
"225 432 CURVE SMOOTH",
"211 432 OFFCURVE",
"192 403 OFFCURVE",
"189 412 CURVE",
"189 412 LINE",
"185 420 OFFCURVE",
"191 466 OFFCURVE",
"202 482 CURVE SMOOTH",
"213 498 OFFCURVE",
"222 508 OFFCURVE",
"241 507 CURVE SMOOTH",
"267 506 OFFCURVE",
"265 478 OFFCURVE",
"285 456 CURVE SMOOTH",
"303 437 OFFCURVE",
"320 411 OFFCURVE",
"349 373 CURVE SMOOTH",
"371 344 OFFCURVE",
"417 263 OFFCURVE",
"417 263 CURVE",
"417 263 OFFCURVE",
"517 210 OFFCURVE",
"555 174 CURVE SMOOTH",
"653 82 OFFCURVE",
"646 13 OFFCURVE",
"646 13 CURVE"
);
},
{
closed = 1;
nodes = (
"433 169 OFFCURVE",
"398 220 OFFCURVE",
"398 220 CURVE",
"398 220 OFFCURVE",
"356 229 OFFCURVE",
"336 230 CURVE SMOOTH",
"315 231 OFFCURVE",
"280 234 OFFCURVE",
"280 213 CURVE SMOOTH",
"280 201 OFFCURVE",
"321 171 OFFCURVE",
"345 159 CURVE SMOOTH",
"367 148 OFFCURVE",
"410 138 OFFCURVE",
"418 149 CURVE SMOOTH"
);
},
{
closed = 1;
nodes = (
"616 208 OFFCURVE",
"571 221 OFFCURVE",
"567 231 CURVE",
"567 231 LINE",
"561 244 OFFCURVE",
"605 258 OFFCURVE",
"605 274 CURVE SMOOTH",
"605 309 OFFCURVE",
"576 387 OFFCURVE",
"559 444 CURVE SMOOTH",
"538 513 OFFCURVE",
"479 687 OFFCURVE",
"479 687 CURVE",
"479 687 OFFCURVE",
"536 562 OFFCURVE",
"566 498 CURVE SMOOTH",
"589 449 OFFCURVE",
"628 333 OFFCURVE",
"657 296 CURVE SMOOTH",
"665 286 OFFCURVE",
"689 284 OFFCURVE",
"692 272 CURVE SMOOTH",
"695 258 OFFCURVE",
"668 227 OFFCURVE",
"646 219 CURVE SMOOTH"
);
},
{
closed = 1;
nodes = (
"31 282 LINE",
"26 288 OFFCURVE",
"42 309 OFFCURVE",
"49 322 CURVE SMOOTH",
"58 339 OFFCURVE",
"67 367 OFFCURVE",
"82 385 CURVE SMOOTH",
"97 404 OFFCURVE",
"120 424 OFFCURVE",
"136 423 CURVE SMOOTH",
"151 422 OFFCURVE",
"166 403 OFFCURVE",
"169 390 CURVE SMOOTH",
"172 378 OFFCURVE",
"167 358 OFFCURVE",
"175 354 CURVE SMOOTH",
"191 346 OFFCURVE",
"242 348 OFFCURVE",
"276 347 CURVE SMOOTH",
"367 344 OFFCURVE",
"633 345 OFFCURVE",
"724 348 CURVE SMOOTH",
"758 349 OFFCURVE",
"796 376 OFFCURVE",
"820 376 CURVE SMOOTH",
"839 376 OFFCURVE",
"870 362 OFFCURVE",
"870 347 CURVE SMOOTH",
"870 322 OFFCURVE",
"827 304 OFFCURVE",
"806 302 CURVE SMOOTH",
"785 300 OFFCURVE",
"762 309 OFFCURVE",
"743 309 CURVE SMOOTH",
"653 309 OFFCURVE",
"365 314 OFFCURVE",
"265 313 CURVE SMOOTH",
"92 311 OFFCURVE",
"107 295 OFFCURVE",
"74 286 CURVE SMOOTH",
"59 282 OFFCURVE",
"37 276 OFFCURVE",
"31 282 CURVE"
);
},
{
closed = 1;
nodes = (
"356 429 LINE",
"346 431 OFFCURVE",
"384 465 OFFCURVE",
"383 486 CURVE SMOOTH",
"382 509 OFFCURVE",
"352 542 OFFCURVE",
"353 566 CURVE SMOOTH",
"354 588 OFFCURVE",
"393 622 OFFCURVE",
"421 621 CURVE SMOOTH",
"442 620 OFFCURVE",
"465 601 OFFCURVE",
"466 579 CURVE SMOOTH",
"467 564 OFFCURVE",
"463 538 OFFCURVE",
"453 536 CURVE SMOOTH",
"444 534 OFFCURVE",
"430 573 OFFCURVE",
"409 573 CURVE SMOOTH",
"400 573 OFFCURVE",
"389 561 OFFCURVE",
"389 550 CURVE SMOOTH",
"389 520 OFFCURVE",
"443 495 OFFCURVE",
"443 472 CURVE SMOOTH",
"443 451 OFFCURVE",
"366 427 OFFCURVE",
"356 429 CURVE"
);
}
);
width = 900;
}
);
unicode = 3076;
},
{
glyphname = "pu-hira";
lastChange = "2020-04-30 23:36:00 +0000";
layers = (
{
layerId = "1305C52C-0BD1-483E-A343-C05F3AFF2931";
paths = (
{
closed = 1;
nodes = (
"645 13 OFFCURVE",
"587 99 OFFCURVE",
"553 127 CURVE SMOOTH",
"516 157 OFFCURVE",
"433 204 OFFCURVE",
"433 204 CURVE",
"433 204 OFFCURVE",
"456 149 OFFCURVE",
"443 136 CURVE SMOOTH",
"430 123 OFFCURVE",
"384 122 OFFCURVE",
"364 128 CURVE SMOOTH",
"328 139 OFFCURVE",
"239 202 OFFCURVE",
"238 230 CURVE SMOOTH",
"237 254 OFFCURVE",
"272 270 OFFCURVE",
"294 276 CURVE SMOOTH",
"315 282 OFFCURVE",
"374 269 OFFCURVE",
"374 269 CURVE",
"374 269 OFFCURVE",
"336 336 OFFCURVE",
"313 361 CURVE SMOOTH",
"288 388 OFFCURVE",
"240 433 OFFCURVE",
"224 433 CURVE SMOOTH",
"210 433 OFFCURVE",
"191 404 OFFCURVE",
"188 412 CURVE",
"188 412 LINE",
"184 420 OFFCURVE",
"191 466 OFFCURVE",
"201 482 CURVE SMOOTH",
"211 498 OFFCURVE",
"221 509 OFFCURVE",
"240 508 CURVE SMOOTH",
"266 507 OFFCURVE",
"264 479 OFFCURVE",
"284 457 CURVE SMOOTH",
"302 437 OFFCURVE",
"320 411 OFFCURVE",
"348 374 CURVE SMOOTH",
"370 345 OFFCURVE",
"416 264 OFFCURVE",
"416 264 CURVE",
"416 264 OFFCURVE",
"516 210 OFFCURVE",
"554 174 CURVE SMOOTH",
"652 82 OFFCURVE",
"645 13 OFFCURVE",
"645 13 CURVE"
);
},
{
closed = 1;
nodes = (
"433 169 OFFCURVE",
"397 220 OFFCURVE",
"397 220 CURVE",
"397 220 OFFCURVE",
"355 230 OFFCURVE",
"335 231 CURVE SMOOTH",
"314 232 OFFCURVE",
"279 235 OFFCURVE",
"279 213 CURVE SMOOTH",
"279 201 OFFCURVE",
"321 171 OFFCURVE",
"344 159 CURVE SMOOTH",
"366 148 OFFCURVE",
"409 139 OFFCURVE",
"417 149 CURVE SMOOTH"
);
},
{
closed = 1;
nodes = (
"615 208 OFFCURVE",
"570 221 OFFCURVE",
"566 231 CURVE",
"566 231 LINE",
"560 244 OFFCURVE",
"604 258 OFFCURVE",
"604 274 CURVE SMOOTH",
"604 309 OFFCURVE",
"575 388 OFFCURVE",
"558 444 CURVE SMOOTH",
"537 513 OFFCURVE",
"478 688 OFFCURVE",
"478 688 CURVE",
"478 688 OFFCURVE",
"536 563 OFFCURVE",
"565 498 CURVE SMOOTH",
"587 449 OFFCURVE",
"629 335 OFFCURVE",
"656 297 CURVE SMOOTH",
"664 286 OFFCURVE",
"689 284 OFFCURVE",
"691 272 CURVE SMOOTH",
"693 259 OFFCURVE",
"667 227 OFFCURVE",
"645 219 CURVE SMOOTH"
);
},
{
closed = 1;
nodes = (
"31 282 LINE",
"25 288 OFFCURVE",
"42 309 OFFCURVE",
"48 322 CURVE SMOOTH",
"56 340 OFFCURVE",
"66 367 OFFCURVE",
"82 386 CURVE SMOOTH",
"97 404 OFFCURVE",
"119 424 OFFCURVE",
"135 424 CURVE SMOOTH",
"150 424 OFFCURVE",
"166 403 OFFCURVE",
"168 391 CURVE SMOOTH",
"170 379 OFFCURVE",
"166 358 OFFCURVE",
"175 355 CURVE SMOOTH",
"192 349 OFFCURVE",
"241 348 OFFCURVE",
"275 348 CURVE SMOOTH",
"366 348 OFFCURVE",
"632 345 OFFCURVE",
"724 348 CURVE SMOOTH",
"757 349 OFFCURVE",
"795 377 OFFCURVE",
"819 376 CURVE SMOOTH",
"838 375 OFFCURVE",
"869 363 OFFCURVE",
"869 347 CURVE SMOOTH",
"869 322 OFFCURVE",
"826 304 OFFCURVE",
"805 303 CURVE SMOOTH",
"785 302 OFFCURVE",
"761 309 OFFCURVE",
"742 309 CURVE SMOOTH",
"652 309 OFFCURVE",
"364 315 OFFCURVE",
"264 313 CURVE SMOOTH",
"91 310 OFFCURVE",
"107 295 OFFCURVE",
"73 286 CURVE SMOOTH",
"58 282 OFFCURVE",
"36 276 OFFCURVE",
"31 282 CURVE"
);
},
{
closed = 1;
nodes = (
"401 438 LINE",
"349 436 OFFCURVE",
"321 494 OFFCURVE",
"322 531 CURVE SMOOTH",
"323 560 OFFCURVE",
"333 607 OFFCURVE",
"393 609 CURVE SMOOTH",
"428 610 OFFCURVE",
"471 573 OFFCURVE",
"471 542 CURVE SMOOTH",
"471 531 OFFCURVE",
"469 506 OFFCURVE",
"463 506 CURVE SMOOTH",
"458 506 OFFCURVE",
"441 521 OFFCURVE",
"438 533 CURVE SMOOTH",
"434 548 OFFCURVE",
"403 570 OFFCURVE",
"390 570 CURVE SMOOTH",
"363 570 OFFCURVE",
"352 552 OFFCURVE",
"352 524 CURVE SMOOTH",
"352 508 OFFCURVE",
"364 475 OFFCURVE",
"381 474 CURVE SMOOTH",
"398 473 OFFCURVE",
"403 496 OFFCURVE",
"416 500 CURVE SMOOTH",
"428 504 OFFCURVE",
"446 512 OFFCURVE",
"456 500 CURVE SMOOTH",
"463 491 OFFCURVE",
"421 439 OFFCURVE",
"401 438 CURVE"
);
}
);
width = 899;
}
);
unicode = 3077;
},
{
glyphname = "he-hira";
lastChange = "2020-04-30 23:35:47 +0000";
layers = (
{
layerId = "1305C52C-0BD1-483E-A343-C05F3AFF2931";
paths = (
{
closed = 1;
nodes = (
"491 99 OFFCURVE",
"496 133 OFFCURVE",
"483 152 CURVE SMOOTH",
"466 176 OFFCURVE",
"451 205 OFFCURVE",
"431 227 CURVE SMOOTH",
"399 262 OFFCURVE",
"350 304 OFFCURVE",
"350 304 CURVE SMOOTH",
"350 304 OFFCURVE",
"346 221 OFFCURVE",
"293 222 CURVE SMOOTH",
"220 223 OFFCURVE",
"179 318 OFFCURVE",
"182 354 CURVE SMOOTH",
"187 411 OFFCURVE",
"249 405 OFFCURVE",
"249 405 CURVE SMOOTH",
"249 405 OFFCURVE",
"222 434 OFFCURVE",
"184 458 CURVE SMOOTH",
"162 472 OFFCURVE",
"134 489 OFFCURVE",
"116 495 CURVE SMOOTH",
"85 505 OFFCURVE",
"82 490 OFFCURVE",
"68 487 CURVE SMOOTH",
"55 484 OFFCURVE",
"37 481 OFFCURVE",
"32 488 CURVE SMOOTH",
"24 500 OFFCURVE",
"44 540 OFFCURVE",
"56 559 CURVE SMOOTH",
"68 578 OFFCURVE",
"88 602 OFFCURVE",
"104 602 CURVE SMOOTH",
"130 602 OFFCURVE",
"126 551 OFFCURVE",
"142 535 CURVE SMOOTH",
"166 511 OFFCURVE",
"228 465 OFFCURVE",
"274 422 CURVE SMOOTH",
"329 371 OFFCURVE",
"388 326 OFFCURVE",
"388 326 CURVE SMOOTH",
"388 326 OFFCURVE",
"390 455 OFFCURVE",
"412 504 CURVE SMOOTH",
"427 537 OFFCURVE",
"474 584 OFFCURVE",
"507 584 CURVE SMOOTH",
"544 584 OFFCURVE",
"586 544 OFFCURVE",
"606 508 CURVE SMOOTH",
"633 460 OFFCURVE",
"678 354 OFFCURVE",
"718 353 CURVE SMOOTH",
"792 351 OFFCURVE",
"844 459 OFFCURVE",
"849 455 CURVE SMOOTH",
"857 448 OFFCURVE",
"795 315 OFFCURVE",
"716 319 CURVE SMOOTH",
"601 325 OFFCURVE",
"570 501 OFFCURVE",
"508 502 CURVE SMOOTH",
"459 503 OFFCURVE",
"422 432 OFFCURVE",
"421 381 CURVE SMOOTH",
"419 301 OFFCURVE",
"520 195 OFFCURVE",
"541 193 CURVE SMOOTH",
"550 192 OFFCURVE",
"561 197 OFFCURVE",
"570 196 CURVE SMOOTH",
"585 194 OFFCURVE",
"613 168 OFFCURVE",
"612 153 CURVE SMOOTH",
"611 134 OFFCURVE",
"553 99 OFFCURVE",
"534 99 CURVE SMOOTH"
);
},
{
closed = 1;
nodes = (
"316 256 OFFCURVE",
"310 290 OFFCURVE",
"310 301 CURVE SMOOTH",
"310 343 OFFCURVE",
"259 346 OFFCURVE",
"249 346 CURVE SMOOTH",
"231 346 OFFCURVE",
"218 346 OFFCURVE",
"218 330 CURVE SMOOTH",
"218 306 OFFCURVE",
"240 266 OFFCURVE",
"277 261 CURVE SMOOTH"
);
}
);
width = 880;
}
);
unicode = 3078;
},
{
glyphname = "be-hira";
lastChange = "2020-04-30 23:35:41 +0000";
layers = (
{
layerId = "1305C52C-0BD1-483E-A343-C05F3AFF2931";
paths = (
{
closed = 1;
nodes = (
"496 79 OFFCURVE",
"502 118 OFFCURVE",
"488 135 CURVE SMOOTH",
"470 156 OFFCURVE",
"449 190 OFFCURVE",
"429 213 CURVE SMOOTH",
"409 236 OFFCURVE",
"361 276 OFFCURVE",
"361 276 CURVE",
"361 276 OFFCURVE",
"352 206 OFFCURVE",
"297 207 CURVE SMOOTH",
"246 208 OFFCURVE",
"219 239 OFFCURVE",
"201 268 CURVE SMOOTH",
"178 305 OFFCURVE",
"181 348 OFFCURVE",
"202 369 CURVE SMOOTH",
"215 382 OFFCURVE",
"251 381 OFFCURVE",
"251 381 CURVE",
"251 381 OFFCURVE",
"208 426 OFFCURVE",
"183 442 CURVE SMOOTH",
"158 458 OFFCURVE",
"118 475 OFFCURVE",
"99 478 CURVE SMOOTH",
"88 480 OFFCURVE",
"79 467 OFFCURVE",
"68 465 CURVE SMOOTH",
"57 463 OFFCURVE",
"32 458 OFFCURVE",
"30 468 CURVE",
"30 468 LINE",
"29 480 OFFCURVE",
"48 522 OFFCURVE",
"60 541 CURVE SMOOTH",
"71 559 OFFCURVE",
"90 581 OFFCURVE",
"105 581 CURVE SMOOTH",
"140 581 OFFCURVE",
"129 532 OFFCURVE",
"146 515 CURVE SMOOTH",
"174 487 OFFCURVE",
"230 444 OFFCURVE",
"268 406 CURVE SMOOTH",
"320 354 OFFCURVE",
"395 303 OFFCURVE",
"395 303 CURVE",
"395 303 OFFCURVE",
"386 446 OFFCURVE",
"432 508 CURVE SMOOTH",
"452 535 OFFCURVE",
"481 561 OFFCURVE",
"510 560 CURVE SMOOTH",
"582 558 OFFCURVE",
"605 477 OFFCURVE",
"632 432 CURVE SMOOTH",
"655 394 OFFCURVE",
"689 334 OFFCURVE",
"725 334 CURVE SMOOTH",
"792 334 OFFCURVE",
"852 434 OFFCURVE",
"852 434 CURVE",
"852 434 OFFCURVE",
"813 299 OFFCURVE",
"718 297 CURVE SMOOTH",
"663 296 OFFCURVE",
"617 359 OFFCURVE",
"596 395 CURVE SMOOTH",
"574 432 OFFCURVE",
"533 488 OFFCURVE",
"507 487 CURVE SMOOTH",
"478 486 OFFCURVE",
"423 440 OFFCURVE",
"423 368 CURVE SMOOTH",
"423 289 OFFCURVE",
"465 245 OFFCURVE",
"491 218 CURVE SMOOTH",
"507 201 OFFCURVE",
"528 186 OFFCURVE",
"545 182 CURVE SMOOTH",
"553 180 OFFCURVE",
"571 175 OFFCURVE",
"581 170 CURVE SMOOTH",
"593 164 OFFCURVE",
"614 145 OFFCURVE",
"614 131 CURVE SMOOTH",
"614 114 OFFCURVE",
"564 79 OFFCURVE",
"544 79 CURVE SMOOTH"
);
},
{
closed = 1;
nodes = (
"294 239 OFFCURVE",
"311 258 OFFCURVE",
"313 270 CURVE SMOOTH",
"315 283 OFFCURVE",
"306 303 OFFCURVE",
"296 313 CURVE SMOOTH",
"286 323 OFFCURVE",
"268 326 OFFCURVE",
"252 328 CURVE SMOOTH",
"239 330 OFFCURVE",
"218 332 OFFCURVE",
"218 301 CURVE SMOOTH",
"218 286 OFFCURVE",
"241 243 OFFCURVE",
"279 240 CURVE SMOOTH"
);
},
{
closed = 1;
nodes = (
"290 433 LINE",
"281 434 OFFCURVE",
"317 465 OFFCURVE",
"317 484 CURVE SMOOTH",
"317 507 OFFCURVE",
"287 534 OFFCURVE",
"288 564 CURVE SMOOTH",
"289 588 OFFCURVE",
"322 621 OFFCURVE",
"352 621 CURVE SMOOTH",
"379 621 OFFCURVE",
"401 594 OFFCURVE",
"401 578 CURVE SMOOTH",
"401 563 OFFCURVE",
"394 537 OFFCURVE",
"384 536 CURVE SMOOTH",
"375 535 OFFCURVE",
"362 574 OFFCURVE",
"343 574 CURVE SMOOTH",
"332 574 OFFCURVE",
"318 560 OFFCURVE",
"318 548 CURVE SMOOTH",
"318 524 OFFCURVE",
"376 493 OFFCURVE",
"375 475 CURVE SMOOTH",
"373 442 OFFCURVE",
"300 431 OFFCURVE",
"290 433 CURVE"
);
}
);
width = 882;
}
);
unicode = 3079;
},
{
glyphname = "pe-hira";
lastChange = "2020-04-30 23:35:35 +0000";
layers = (
{
layerId = "1305C52C-0BD1-483E-A343-C05F3AFF2931";
paths = (
{
closed = 1;
nodes = (
"496 80 OFFCURVE",
"502 118 OFFCURVE",
"488 135 CURVE SMOOTH",
"470 157 OFFCURVE",
"449 190 OFFCURVE",
"429 214 CURVE SMOOTH",
"409 237 OFFCURVE",
"361 277 OFFCURVE",
"361 277 CURVE",
"361 277 OFFCURVE",
"352 206 OFFCURVE",
"297 207 CURVE SMOOTH",
"245 208 OFFCURVE",
"219 240 OFFCURVE",
"200 269 CURVE SMOOTH",
"176 305 OFFCURVE",
"180 348 OFFCURVE",
"202 370 CURVE SMOOTH",
"215 383 OFFCURVE",
"251 382 OFFCURVE",
"251 382 CURVE",
"251 382 OFFCURVE",
"208 427 OFFCURVE",
"183 443 CURVE SMOOTH",
"158 459 OFFCURVE",
"118 476 OFFCURVE",
"99 479 CURVE SMOOTH",
"88 481 OFFCURVE",
"79 467 OFFCURVE",
"68 466 CURVE SMOOTH",
"56 465 OFFCURVE",
"32 459 OFFCURVE",
"30 469 CURVE SMOOTH",
"28 481 OFFCURVE",
"47 522 OFFCURVE",
"60 541 CURVE SMOOTH",
"72 559 OFFCURVE",
"90 581 OFFCURVE",
"105 581 CURVE SMOOTH",
"140 581 OFFCURVE",
"129 533 OFFCURVE",
"146 515 CURVE SMOOTH",
"172 487 OFFCURVE",
"230 445 OFFCURVE",
"268 407 CURVE SMOOTH",
"320 355 OFFCURVE",
"395 304 OFFCURVE",
"395 304 CURVE",
"395 304 OFFCURVE",
"386 446 OFFCURVE",
"432 508 CURVE SMOOTH",
"452 535 OFFCURVE",
"481 562 OFFCURVE",
"510 561 CURVE SMOOTH",
"582 559 OFFCURVE",
"605 478 OFFCURVE",
"631 433 CURVE SMOOTH",
"654 394 OFFCURVE",
"688 334 OFFCURVE",
"725 334 CURVE SMOOTH",
"792 334 OFFCURVE",
"852 435 OFFCURVE",
"852 435 CURVE",
"852 435 OFFCURVE",
"813 300 OFFCURVE",
"718 298 CURVE SMOOTH",
"663 297 OFFCURVE",
"616 360 OFFCURVE",
"595 395 CURVE SMOOTH",
"573 432 OFFCURVE",
"533 489 OFFCURVE",
"506 487 CURVE SMOOTH",
"478 485 OFFCURVE",
"423 440 OFFCURVE",
"423 369 CURVE SMOOTH",
"423 289 OFFCURVE",
"466 246 OFFCURVE",
"491 219 CURVE SMOOTH",
"507 202 OFFCURVE",
"528 185 OFFCURVE",
"545 183 CURVE SMOOTH",
"553 182 OFFCURVE",
"571 176 OFFCURVE",
"581 171 CURVE SMOOTH",
"593 165 OFFCURVE",
"614 146 OFFCURVE",
"614 132 CURVE SMOOTH",
"614 115 OFFCURVE",
"563 80 OFFCURVE",
"544 80 CURVE SMOOTH"
);
},
{
closed = 1;
nodes = (
"294 240 OFFCURVE",
"311 259 OFFCURVE",
"313 271 CURVE SMOOTH",
"315 283 OFFCURVE",
"306 304 OFFCURVE",
"296 314 CURVE SMOOTH",
"286 324 OFFCURVE",
"268 327 OFFCURVE",
"252 329 CURVE SMOOTH",
"239 331 OFFCURVE",
"216 332 OFFCURVE",
"218 302 CURVE SMOOTH",
"219 287 OFFCURVE",
"241 244 OFFCURVE",
"279 241 CURVE SMOOTH"
);
},
{
closed = 1;
nodes = (
"318 450 LINE",
"266 448 OFFCURVE",
"237 506 OFFCURVE",
"239 542 CURVE SMOOTH",
"241 571 OFFCURVE",
"249 619 OFFCURVE",
"310 621 CURVE SMOOTH",
"345 622 OFFCURVE",
"385 585 OFFCURVE",
"388 554 CURVE SMOOTH",
"389 543 OFFCURVE",
"386 518 OFFCURVE",
"380 517 CURVE SMOOTH",
"374 516 OFFCURVE",
"358 533 OFFCURVE",
"355 544 CURVE SMOOTH",
"351 560 OFFCURVE",
"320 582 OFFCURVE",
"307 582 CURVE SMOOTH",
"280 582 OFFCURVE",
"269 563 OFFCURVE",
"269 536 CURVE SMOOTH",
"269 520 OFFCURVE",
"281 486 OFFCURVE",
"297 486 CURVE SMOOTH",
"315 486 OFFCURVE",
"320 507 OFFCURVE",
"333 512 CURVE SMOOTH",
"345 517 OFFCURVE",
"363 524 OFFCURVE",
"373 511 CURVE SMOOTH",
"380 502 OFFCURVE",
"338 451 OFFCURVE",
"318 450 CURVE"
);
}
);
width = 882;
}
);
unicode = 307A;
},
{
glyphname = "ho-hira";
lastChange = "2020-04-30 23:35:30 +0000";
layers = (
{
layerId = "1305C52C-0BD1-483E-A343-C05F3AFF2931";
paths = (
{
closed = 1;
nodes = (
"736 -8 OFFCURVE",
"687 57 OFFCURVE",
"651 93 CURVE SMOOTH",
"612 132 OFFCURVE",
"541 172 OFFCURVE",
"541 172 CURVE SMOOTH",
"541 172 OFFCURVE",
"546 137 OFFCURVE",
"536 113 CURVE SMOOTH",
"525 87 OFFCURVE",
"480 95 OFFCURVE",
"458 103 CURVE SMOOTH",
"417 118 OFFCURVE",
"356 196 OFFCURVE",
"356 223 CURVE SMOOTH",
"356 245 OFFCURVE",
"385 258 OFFCURVE",
"401 259 CURVE SMOOTH",
"423 260 OFFCURVE",
"476 249 OFFCURVE",
"476 249 CURVE SMOOTH",
"476 249 OFFCURVE",
"462 283 OFFCURVE",
"453 297 CURVE SMOOTH",
"444 311 OFFCURVE",
"422 339 OFFCURVE",
"422 339 CURVE SMOOTH",
"422 339 OFFCURVE",
"380 341 OFFCURVE",
"360 340 CURVE SMOOTH",
"334 339 OFFCURVE",
"285 314 OFFCURVE",
"286 259 CURVE SMOOTH",
"287 210 OFFCURVE",
"351 192 OFFCURVE",
"357 155 CURVE SMOOTH",
"360 136 OFFCURVE",
"316 142 OFFCURVE",
"300 148 CURVE SMOOTH",
"277 157 OFFCURVE",
"268 189 OFFCURVE",
"249 207 CURVE SMOOTH",
"219 236 OFFCURVE",
"148 300 OFFCURVE",
"121 319 CURVE SMOOTH",
"111 326 OFFCURVE",
"94 323 OFFCURVE",
"86 320 CURVE SMOOTH",
"78 317 OFFCURVE",
"80 306 OFFCURVE",
"73 304 CURVE SMOOTH",
"64 301 OFFCURVE",
"40 292 OFFCURVE",
"33 303 CURVE SMOOTH",
"22 321 OFFCURVE",
"45 382 OFFCURVE",
"58 400 CURVE SMOOTH",
"66 411 OFFCURVE",
"94 410 OFFCURVE",
"104 401 CURVE SMOOTH",
"119 388 OFFCURVE",
"150 348 OFFCURVE",
"181 313 CURVE SMOOTH",
"211 280 OFFCURVE",
"242 251 OFFCURVE",
"242 251 CURVE SMOOTH",
"242 251 OFFCURVE",
"242 309 OFFCURVE",
"283 350 CURVE SMOOTH",
"307 374 OFFCURVE",
"388 384 OFFCURVE",
"388 384 CURVE SMOOTH",
"388 384 OFFCURVE",
"363 428 OFFCURVE",
"347 426 CURVE SMOOTH",
"334 424 OFFCURVE",
"313 400 OFFCURVE",
"307 407 CURVE SMOOTH",
"299 417 OFFCURVE",
"310 460 OFFCURVE",
"322 476 CURVE SMOOTH",
"334 492 OFFCURVE",
"367 508 OFFCURVE",
"385 495 CURVE SMOOTH",
"392 490 OFFCURVE",
"393 473 OFFCURVE",
"402 459 CURVE SMOOTH",
"421 429 OFFCURVE",
"448 387 OFFCURVE",
"448 387 CURVE SMOOTH",
"448 387 OFFCURVE",
"546 376 OFFCURVE",
"609 379 CURVE SMOOTH",
"649 381 OFFCURVE",
"753 432 OFFCURVE",
"770 539 CURVE SMOOTH",
"782 613 OFFCURVE",
"705 701 OFFCURVE",
"715 709 CURVE SMOOTH",
"726 718 OFFCURVE",
"840 602 OFFCURVE",
"827 479 CURVE SMOOTH",
"820 411 OFFCURVE",
"721 311 OFFCURVE",
"623 311 CURVE SMOOTH",
"573 311 OFFCURVE",
"473 330 OFFCURVE",
"473 330 CURVE SMOOTH",
"473 330 OFFCURVE",
"490 301 OFFCURVE",
"497 286 CURVE SMOOTH",
"504 271 OFFCURVE",
"518 239 OFFCURVE",
"518 239 CURVE SMOOTH",
"518 239 OFFCURVE",
"600 192 OFFCURVE",
"646 146 CURVE SMOOTH",
"721 71 OFFCURVE",
"736 -8 OFFCURVE",
"736 -8 CURVE SMOOTH"
);
},
{
closed = 1;
nodes = (
"517 163 OFFCURVE",
"504 188 OFFCURVE",
"476 198 CURVE SMOOTH",
"452 207 OFFCURVE",
"402 212 OFFCURVE",
"402 195 CURVE SMOOTH",
"402 185 OFFCURVE",
"421 159 OFFCURVE",
"444 143 CURVE SMOOTH",
"475 122 OFFCURVE",
"512 113 OFFCURVE",
"515 141 CURVE SMOOTH"
);
}
);
width = 858;
}
);
unicode = 307B;
},
{
glyphname = "bo-hira";
lastChange = "2020-04-30 23:35:24 +0000";
layers = (
{
layerId = "1305C52C-0BD1-483E-A343-C05F3AFF2931";
paths = (
{
closed = 1;
nodes = (
"762 -9 OFFCURVE",
"709 65 OFFCURVE",
"676 96 CURVE SMOOTH",
"637 132 OFFCURVE",
"557 177 OFFCURVE",
"557 177 CURVE",
"557 177 OFFCURVE",
"571 123 OFFCURVE",
"555 110 CURVE SMOOTH",
"537 95 OFFCURVE",
"499 99 OFFCURVE",
"475 109 CURVE SMOOTH",
"439 123 OFFCURVE",
"372 187 OFFCURVE",
"370 218 CURVE SMOOTH",
"369 238 OFFCURVE",
"395 255 OFFCURVE",
"414 259 CURVE SMOOTH",
"435 263 OFFCURVE",
"498 250 OFFCURVE",
"498 250 CURVE",
"498 250 OFFCURVE",
"456 326 OFFCURVE",
"434 356 CURVE SMOOTH",
"413 384 OFFCURVE",
"380 418 OFFCURVE",
"361 427 CURVE SMOOTH",
"348 434 OFFCURVE",
"329 405 OFFCURVE",
"320 411 CURVE",
"320 411 LINE",
"309 418 OFFCURVE",
"323 467 OFFCURVE",
"337 484 CURVE SMOOTH",
"349 499 OFFCURVE",
"373 506 OFFCURVE",
"385 503 CURVE SMOOTH",
"402 498 OFFCURVE",
"402 477 OFFCURVE",
"411 467 CURVE SMOOTH",
"433 438 OFFCURVE",
"460 393 OFFCURVE",
"481 355 CURVE SMOOTH",
"501 320 OFFCURVE",
"535 243 OFFCURVE",
"535 243 CURVE",
"535 243 OFFCURVE",
"643 182 OFFCURVE",
"684 142 CURVE SMOOTH",
"765 62 OFFCURVE",
"762 -9 OFFCURVE",
"762 -9 CURVE"
);
},
{
closed = 1;
nodes = (
"526 121 OFFCURVE",
"537 133 OFFCURVE",
"538 143 CURVE SMOOTH",
"538 161 OFFCURVE",
"520 193 OFFCURVE",
"520 193 CURVE",
"520 193 OFFCURVE",
"406 232 OFFCURVE",
"411 194 CURVE SMOOTH",
"413 178 OFFCURVE",
"461 124 OFFCURVE",
"515 121 CURVE SMOOTH"
);
},
{
closed = 1;
nodes = (
"330 142 OFFCURVE",
"307 152 OFFCURVE",
"296 161 CURVE SMOOTH",
"284 170 OFFCURVE",
"277 190 OFFCURVE",
"267 200 CURVE SMOOTH",
"249 218 OFFCURVE",
"217 247 OFFCURVE",
"189 267 CURVE SMOOTH",
"161 288 OFFCURVE",
"118 325 OFFCURVE",
"98 327 CURVE SMOOTH",
"83 328 OFFCURVE",
"70 309 OFFCURVE",
"59 306 CURVE SMOOTH",
"50 303 OFFCURVE",
"33 298 OFFCURVE",
"31 307 CURVE",
"31 307 LINE",
"26 328 OFFCURVE",
"35 360 OFFCURVE",
"43 379 CURVE SMOOTH",
"50 394 OFFCURVE",
"66 414 OFFCURVE",
"83 414 CURVE SMOOTH",
"104 414 OFFCURVE",
"144 347 OFFCURVE",
"170 322 CURVE SMOOTH",
"197 295 OFFCURVE",
"251 251 OFFCURVE",
"251 251 CURVE",
"251 251 OFFCURVE",
"245 340 OFFCURVE",
"320 373 CURVE SMOOTH",
"377 398 OFFCURVE",
"486 385 OFFCURVE",
"540 383 CURVE SMOOTH",
"698 376 OFFCURVE",
"804 464 OFFCURVE",
"802 541 CURVE SMOOTH",
"798 660 OFFCURVE",
"745 710 OFFCURVE",
"745 710 CURVE",
"745 710 OFFCURVE",
"869 623 OFFCURVE",
"873 528 CURVE SMOOTH",
"876 432 OFFCURVE",
"785 308 OFFCURVE",
"632 313 CURVE SMOOTH",
"560 315 OFFCURVE",
"472 341 OFFCURVE",
"418 342 CURVE SMOOTH",
"312 344 OFFCURVE",
"293 289 OFFCURVE",
"292 262 CURVE SMOOTH",
"290 229 OFFCURVE",
"317 205 OFFCURVE",
"331 199 CURVE SMOOTH",
"344 195 OFFCURVE",
"368 174 OFFCURVE",
"369 164 CURVE SMOOTH",
"369 153 OFFCURVE",
"354 145 OFFCURVE",
"342 143 CURVE SMOOTH"
);
},
{
closed = 1;
nodes = (
"189 373 LINE",
"179 374 OFFCURVE",
"216 407 OFFCURVE",
"216 421 CURVE SMOOTH",
"216 442 OFFCURVE",
"183 475 OFFCURVE",
"184 500 CURVE SMOOTH",
"186 523 OFFCURVE",
"206 560 OFFCURVE",
"249 558 CURVE SMOOTH",
"274 557 OFFCURVE",
"297 536 OFFCURVE",
"298 517 CURVE SMOOTH",
"298 501 OFFCURVE",
"290 469 OFFCURVE",
"280 469 CURVE SMOOTH",
"270 468 OFFCURVE",
"249 515 OFFCURVE",
"239 515 CURVE SMOOTH",
"228 515 OFFCURVE",
"216 500 OFFCURVE",
"217 489 CURVE SMOOTH",
"218 456 OFFCURVE",
"274 434 OFFCURVE",
"273 415 CURVE SMOOTH",
"272 383 OFFCURVE",
"198 372 OFFCURVE",
"189 373 CURVE"
);
}
);
width = 903;
}
);
unicode = 307C;
},
{
glyphname = "po-hira";
lastChange = "2020-04-30 23:35:14 +0000";
layers = (
{
layerId = "1305C52C-0BD1-483E-A343-C05F3AFF2931";
paths = (
{
closed = 1;
nodes = (
"742 -5 OFFCURVE",
"700 62 OFFCURVE",
"667 93 CURVE SMOOTH",
"628 129 OFFCURVE",
"557 181 OFFCURVE",
"557 181 CURVE",
"557 181 OFFCURVE",
"571 127 OFFCURVE",
"555 114 CURVE SMOOTH",
"537 100 OFFCURVE",
"500 103 OFFCURVE",
"475 113 CURVE SMOOTH",
"440 127 OFFCURVE",
"372 191 OFFCURVE",
"370 222 CURVE SMOOTH",
"369 242 OFFCURVE",
"395 259 OFFCURVE",
"415 263 CURVE SMOOTH",
"435 267 OFFCURVE",
"498 254 OFFCURVE",
"498 254 CURVE",
"498 254 OFFCURVE",
"457 330 OFFCURVE",
"434 360 CURVE SMOOTH",
"413 388 OFFCURVE",
"381 422 OFFCURVE",
"362 432 CURVE SMOOTH",
"349 439 OFFCURVE",
"329 409 OFFCURVE",
"321 415 CURVE",
"321 415 LINE",
"309 422 OFFCURVE",
"323 471 OFFCURVE",
"337 488 CURVE SMOOTH",
"349 503 OFFCURVE",
"374 510 OFFCURVE",
"385 507 CURVE SMOOTH",
"402 502 OFFCURVE",
"403 482 OFFCURVE",
"411 471 CURVE SMOOTH",
"433 441 OFFCURVE",
"460 397 OFFCURVE",
"481 359 CURVE SMOOTH",
"500 324 OFFCURVE",
"535 248 OFFCURVE",
"535 248 CURVE",
"535 248 OFFCURVE",
"633 182 OFFCURVE",
"674 142 CURVE SMOOTH",
"755 62 OFFCURVE",
"742 -5 OFFCURVE",
"742 -5 CURVE"
);
},
{
closed = 1;
nodes = (
"526 124 OFFCURVE",
"538 137 OFFCURVE",
"538 147 CURVE SMOOTH",
"538 165 OFFCURVE",
"520 197 OFFCURVE",
"520 197 CURVE",
"520 197 OFFCURVE",
"406 236 OFFCURVE",
"411 198 CURVE SMOOTH",
"413 182 OFFCURVE",
"461 130 OFFCURVE",
"515 125 CURVE SMOOTH"
);
},
{
closed = 1;
nodes = (
"330 145 OFFCURVE",
"307 156 OFFCURVE",
"296 165 CURVE SMOOTH",
"284 174 OFFCURVE",
"277 194 OFFCURVE",
"267 204 CURVE SMOOTH",
"249 222 OFFCURVE",
"217 251 OFFCURVE",
"190 271 CURVE SMOOTH",
"162 292 OFFCURVE",
"118 330 OFFCURVE",
"98 331 CURVE SMOOTH",
"83 332 OFFCURVE",
"70 312 OFFCURVE",
"59 310 CURVE SMOOTH",
"50 308 OFFCURVE",
"33 302 OFFCURVE",
"31 311 CURVE",
"31 311 LINE",
"26 333 OFFCURVE",
"35 364 OFFCURVE",
"43 383 CURVE SMOOTH",
"49 398 OFFCURVE",
"66 418 OFFCURVE",
"83 418 CURVE SMOOTH",
"104 418 OFFCURVE",
"145 351 OFFCURVE",
"170 326 CURVE SMOOTH",
"198 298 OFFCURVE",
"251 255 OFFCURVE",
"251 255 CURVE",
"251 255 OFFCURVE",
"245 345 OFFCURVE",
"320 377 CURVE SMOOTH",
"378 402 OFFCURVE",
"486 389 OFFCURVE",
"541 387 CURVE SMOOTH",
"699 381 OFFCURVE",
"777 476 OFFCURVE",
"775 553 CURVE SMOOTH",
"772 672 OFFCURVE",
"727 706 OFFCURVE",
"727 706 CURVE",
"727 706 OFFCURVE",
"839 627 OFFCURVE",
"842 532 CURVE SMOOTH",
"845 436 OFFCURVE",
"786 313 OFFCURVE",
"632 317 CURVE SMOOTH",
"560 319 OFFCURVE",
"472 345 OFFCURVE",
"418 346 CURVE SMOOTH",
"313 348 OFFCURVE",
"293 293 OFFCURVE",
"292 266 CURVE SMOOTH",
"291 233 OFFCURVE",
"317 209 OFFCURVE",
"331 204 CURVE SMOOTH",
"344 199 OFFCURVE",
"368 178 OFFCURVE",
"369 168 CURVE SMOOTH",
"370 157 OFFCURVE",
"354 149 OFFCURVE",
"342 147 CURVE SMOOTH"
);
},
{
closed = 1;
nodes = (
"210 441 LINE",
"158 439 OFFCURVE",
"128 497 OFFCURVE",
"131 534 CURVE SMOOTH",
"133 563 OFFCURVE",
"141 610 OFFCURVE",
"201 612 CURVE SMOOTH",
"237 613 OFFCURVE",
"277 576 OFFCURVE",
"280 546 CURVE SMOOTH",
"281 535 OFFCURVE",
"278 510 OFFCURVE",
"272 509 CURVE SMOOTH",
"266 508 OFFCURVE",
"250 524 OFFCURVE",
"247 536 CURVE SMOOTH",
"243 552 OFFCURVE",
"212 573 OFFCURVE",
"198 573 CURVE SMOOTH",
"172 573 OFFCURVE",
"161 555 OFFCURVE",
"161 528 CURVE SMOOTH",
"161 512 OFFCURVE",
"173 478 OFFCURVE",
"189 477 CURVE SMOOTH",
"207 476 OFFCURVE",
"212 499 OFFCURVE",
"225 503 CURVE SMOOTH",
"237 507 OFFCURVE",
"255 516 OFFCURVE",
"265 503 CURVE SMOOTH",
"272 494 OFFCURVE",
"230 442 OFFCURVE",
"210 441 CURVE"
);
}
);
width = 872;
}
);
unicode = 307D;
},
{
glyphname = "ma-hira";
lastChange = "2020-04-30 23:35:08 +0000";
layers = (
{
layerId = "1305C52C-0BD1-483E-A343-C05F3AFF2931";
paths = (
{
closed = 1;
nodes = (
"550 52 OFFCURVE",
"523 45 OFFCURVE",
"519 57 CURVE",
"514 75 OFFCURVE",
"518 102 OFFCURVE",
"510 118 CURVE SMOOTH",
"495 147 OFFCURVE",
"464 199 OFFCURVE",
"432 230 CURVE SMOOTH",
"369 293 OFFCURVE",
"321 311 OFFCURVE",
"312 302 CURVE",
"306 295 OFFCURVE",
"325 266 OFFCURVE",
"336 257 CURVE",
"343 252 OFFCURVE",
"366 256 OFFCURVE",
"373 246 CURVE",
"381 237 OFFCURVE",
"371 186 OFFCURVE",
"348 154 CURVE",
"338 139 OFFCURVE",
"311 118 OFFCURVE",
"303 122 CURVE",
"294 125 OFFCURVE",
"293 164 OFFCURVE",
"297 175 CURVE",
"300 181 OFFCURVE",
"304 187 OFFCURVE",
"306 193 CURVE",
"310 216 OFFCURVE",
"291 280 OFFCURVE",
"282 293 CURVE SMOOTH",
"264 318 OFFCURVE",
"250 318 OFFCURVE",
"246 356 CURVE",
"245 375 OFFCURVE",
"251 399 OFFCURVE",
"251 399 CURVE SMOOTH",
"251 399 OFFCURVE",
"190 399 OFFCURVE",
"161 399 CURVE",
"136 398 OFFCURVE",
"113 373 OFFCURVE",
"94 365 CURVE SMOOTH",
"75 357 OFFCURVE",
"37 353 OFFCURVE",
"32 361 CURVE SMOOTH",
"25 372 OFFCURVE",
"41 386 OFFCURVE",
"43 396 CURVE SMOOTH",
"45 405 OFFCURVE",
"43 415 OFFCURVE",
"49 422 CURVE",
"61 438 OFFCURVE",
"102 482 OFFCURVE",
"120 494 CURVE",
"130 500 OFFCURVE",
"150 505 OFFCURVE",
"156 494 CURVE SMOOTH",
"163 482 OFFCURVE",
"170 454 OFFCURVE",
"185 453 CURVE SMOOTH",
"215 452 OFFCURVE",
"279 450 OFFCURVE",
"318 449 CURVE SMOOTH",
"354 448 OFFCURVE",
"427 445 OFFCURVE",
"427 445 CURVE SMOOTH",
"427 445 OFFCURVE",
"410 509 OFFCURVE",
"401 539 CURVE SMOOTH",
"393 566 OFFCURVE",
"360 649 OFFCURVE",
"364 651 CURVE",
"371 654 OFFCURVE",
"408 600 OFFCURVE",
"427 543 CURVE SMOOTH",
"437 511 OFFCURVE",
"460 443 OFFCURVE",
"460 443 CURVE SMOOTH",
"460 443 OFFCURVE",
"617 419 OFFCURVE",
"701 383 CURVE SMOOTH",
"858 317 OFFCURVE",
"873 196 OFFCURVE",
"863 195 CURVE SMOOTH",
"838 192 OFFCURVE",
"843 273 OFFCURVE",
"689 344 CURVE SMOOTH",
"645 365 OFFCURVE",
"472 390 OFFCURVE",
"472 390 CURVE SMOOTH",
"472 390 OFFCURVE",
"497 314 OFFCURVE",
"512 278 CURVE SMOOTH",
"527 240 OFFCURVE",
"547 185 OFFCURVE",
"566 168 CURVE",
"575 159 OFFCURVE",
"602 159 OFFCURVE",
"605 146 CURVE SMOOTH",
"609 127 OFFCURVE",
"608 115 OFFCURVE",
"606 95 CURVE SMOOTH",
"604 77 OFFCURVE",
"584 55 OFFCURVE",
"568 53 CURVE"
);
},
{
closed = 1;
nodes = (
"487 215 OFFCURVE",
"473 282 OFFCURVE",
"465 311 CURVE SMOOTH",
"458 338 OFFCURVE",
"437 394 OFFCURVE",
"437 394 CURVE SMOOTH",
"437 394 OFFCURVE",
"400 396 OFFCURVE",
"380 397 CURVE SMOOTH",
"357 398 OFFCURVE",
"303 399 OFFCURVE",
"303 399 CURVE SMOOTH",
"303 399 OFFCURVE",
"304 392 OFFCURVE",
"314 378 CURVE",
"327 362 OFFCURVE",
"365 334 OFFCURVE",
"398 305 CURVE SMOOTH",
"419 286 OFFCURVE",
"487 215 OFFCURVE",
"487 215 CURVE SMOOTH"
);
}
);
width = 895;
}
);
unicode = 307E;
},
{
glyphname = "mi-hira";
lastChange = "2020-04-30 23:35:02 +0000";
layers = (
{
layerId = "1305C52C-0BD1-483E-A343-C05F3AFF2931";
paths = (
{
closed = 1;
nodes = (
"26 350 OFFCURVE",
"28 389 OFFCURVE",
"36 405 CURVE",
"47 429 OFFCURVE",
"87 476 OFFCURVE",
"109 482 CURVE",
"124 486 OFFCURVE",
"140 477 OFFCURVE",
"148 468 CURVE",
"156 459 OFFCURVE",
"154 437 OFFCURVE",
"162 429 CURVE",
"169 420 OFFCURVE",
"181 418 OFFCURVE",
"191 417 CURVE",
"218 416 OFFCURVE",
"317 416 OFFCURVE",
"317 416 CURVE",
"317 416 OFFCURVE",
"294 471 OFFCURVE",
"299 474 CURVE",
"309 479 OFFCURVE",
"341 424 OFFCURVE",
"341 424 CURVE",
"341 424 OFFCURVE",
"354 429 OFFCURVE",
"367 437 CURVE",
"375 441 OFFCURVE",
"380 451 OFFCURVE",
"382 458 CURVE",
"384 466 OFFCURVE",
"387 476 OFFCURVE",
"391 482 CURVE",
"397 494 OFFCURVE",
"411 522 OFFCURVE",
"437 522 CURVE",
"462 521 OFFCURVE",
"481 503 OFFCURVE",
"482 487 CURVE",
"483 471 OFFCURVE",
"489 465 OFFCURVE",
"489 446 CURVE",
"490 423 OFFCURVE",
"528 389 OFFCURVE",
"591 384 CURVE",
"675 377 OFFCURVE",
"753 467 OFFCURVE",
"773 526 CURVE",
"788 573 OFFCURVE",
"797 657 OFFCURVE",
"805 655 CURVE",
"814 654 OFFCURVE",
"812 525 OFFCURVE",
"789 473 CURVE",
"752 392 OFFCURVE",
"655 322 OFFCURVE",
"581 324 CURVE",
"454 326 OFFCURVE",
"426 412 OFFCURVE",
"394 410 CURVE",
"387 410 OFFCURVE",
"380 405 OFFCURVE",
"373 402 CURVE",
"367 399 OFFCURVE",
"354 393 OFFCURVE",
"354 393 CURVE",
"354 393 OFFCURVE",
"390 314 OFFCURVE",
"409 277 CURVE",
"449 200 OFFCURVE",
"484 162 OFFCURVE",
"516 139 CURVE",
"548 117 OFFCURVE",
"493 62 OFFCURVE",
"473 53 CURVE",
"465 49 OFFCURVE",
"446 41 OFFCURVE",
"441 51 CURVE",
"435 64 OFFCURVE",
"443 106 OFFCURVE",
"436 131 CURVE",
"425 165 OFFCURVE",
"401 216 OFFCURVE",
"383 258 CURVE",
"364 301 OFFCURVE",
"329 386 OFFCURVE",
"329 386 CURVE",
"329 386 OFFCURVE",
"247 384 OFFCURVE",
"209 384 CURVE",
"175 383 OFFCURVE",
"136 384 OFFCURVE",
"108 384 CURVE",
"82 384 OFFCURVE",
"50 337 OFFCURVE",
"38 343 CURVE"
);
},
{
closed = 1;
nodes = (
"248 118 OFFCURVE",
"249 140 OFFCURVE",
"249 153 CURVE",
"250 165 OFFCURVE",
"256 186 OFFCURVE",
"254 199 CURVE",
"252 223 OFFCURVE",
"236 261 OFFCURVE",
"222 280 CURVE",
"211 294 OFFCURVE",
"182 292 OFFCURVE",
"181 322 CURVE",
"181 345 OFFCURVE",
"211 375 OFFCURVE",
"226 375 CURVE",
"251 375 OFFCURVE",
"256 343 OFFCURVE",
"269 332 CURVE",
"287 315 OFFCURVE",
"306 306 OFFCURVE",
"339 269 CURVE",
"373 231 OFFCURVE",
"398 180 OFFCURVE",
"394 176 CURVE",
"389 172 OFFCURVE",
"363 209 OFFCURVE",
"333 238 CURVE",
"293 278 OFFCURVE",
"270 280 OFFCURVE",
"265 278 CURVE",
"261 275 OFFCURVE",
"277 253 OFFCURVE",
"298 232 CURVE",
"316 215 OFFCURVE",
"336 211 OFFCURVE",
"339 197 CURVE",
"342 183 OFFCURVE",
"267 106 OFFCURVE",
"257 113 CURVE"
);
}
);
width = 840;
}
);
unicode = 307F;
},
{
glyphname = "mu-hira";
lastChange = "2020-04-30 23:34:56 +0000";
layers = (
{
layerId = "1305C52C-0BD1-483E-A343-C05F3AFF2931";
paths = (
{
closed = 1;
nodes = (
"293 94 OFFCURVE",
"326 121 OFFCURVE",
"326 142 CURVE",
"326 176 OFFCURVE",
"287 216 OFFCURVE",
"286 238 CURVE",
"286 258 OFFCURVE",
"307 277 OFFCURVE",
"324 277 CURVE",
"349 277 OFFCURVE",
"350 252 OFFCURVE",
"361 243 CURVE",
"375 230 OFFCURVE",
"395 214 OFFCURVE",
"408 197 CURVE",
"422 179 OFFCURVE",
"446 142 OFFCURVE",
"446 142 CURVE",
"446 142 OFFCURVE",
"412 165 OFFCURVE",
"397 177 CURVE",
"379 193 OFFCURVE",
"345 219 OFFCURVE",
"336 210 CURVE",
"331 205 OFFCURVE",
"351 176 OFFCURVE",
"362 165 CURVE",
"373 154 OFFCURVE",
"400 150 OFFCURVE",
"401 140 CURVE",
"402 131 OFFCURVE",
"360 97 OFFCURVE",
"343 88 CURVE",
"332 81 OFFCURVE",
"304 75 OFFCURVE",
"299 83 CURVE"
);
},
{
closed = 1;
nodes = (
"26 353 OFFCURVE",
"49 378 OFFCURVE",
"54 391 CURVE",
"57 399 OFFCURVE",
"56 416 OFFCURVE",
"62 424 CURVE",
"71 437 OFFCURVE",
"102 471 OFFCURVE",
"133 471 CURVE",
"152 472 OFFCURVE",
"153 432 OFFCURVE",
"173 433 CURVE",
"215 433 OFFCURVE",
"381 428 OFFCURVE",
"381 428 CURVE",
"381 428 OFFCURVE",
"364 482 OFFCURVE",
"357 513 CURVE",
"350 546 OFFCURVE",
"331 628 OFFCURVE",
"331 628 CURVE",
"331 628 OFFCURVE",
"364 555 OFFCURVE",
"376 519 CURVE",
"388 486 OFFCURVE",
"413 427 OFFCURVE",
"413 427 CURVE",
"413 427 OFFCURVE",
"555 426 OFFCURVE",
"625 425 CURVE",
"704 423 OFFCURVE",
"886 425 OFFCURVE",
"887 411 CURVE",
"888 399 OFFCURVE",
"703 388 OFFCURVE",
"627 384 CURVE",
"563 381 OFFCURVE",
"431 377 OFFCURVE",
"431 377 CURVE",
"431 377 OFFCURVE",
"462 294 OFFCURVE",
"475 262 CURVE",
"486 236 OFFCURVE",
"501 199 OFFCURVE",
"516 180 CURVE",
"529 163 OFFCURVE",
"565 154 OFFCURVE",
"567 140 CURVE",
"571 116 OFFCURVE",
"523 74 OFFCURVE",
"505 73 CURVE",
"487 72 OFFCURVE",
"463 87 OFFCURVE",
"461 96 CURVE",
"459 107 OFFCURVE",
"482 115 OFFCURVE",
"479 124 CURVE",
"473 153 OFFCURVE",
"455 202 OFFCURVE",
"441 243 CURVE",
"426 285 OFFCURVE",
"394 377 OFFCURVE",
"394 377 CURVE",
"394 377 OFFCURVE",
"210 372 OFFCURVE",
"162 372 CURVE",
"147 372 OFFCURVE",
"121 364 OFFCURVE",
"107 358 CURVE",
"96 354 OFFCURVE",
"87 345 OFFCURVE",
"76 343 CURVE",
"63 340 OFFCURVE",
"33 335 OFFCURVE",
"30 344 CURVE"
);
},
{
closed = 1;
nodes = (
"98 183 OFFCURVE",
"115 199 OFFCURVE",
"118 208 CURVE",
"121 215 OFFCURVE",
"123 227 OFFCURVE",
"127 232 CURVE",
"138 246 OFFCURVE",
"169 279 OFFCURVE",
"183 287 CURVE",
"194 294 OFFCURVE",
"223 294 OFFCURVE",
"225 268 CURVE",
"225 261 OFFCURVE",
"217 252 OFFCURVE",
"218 245 CURVE",
"223 229 OFFCURVE",
"260 179 OFFCURVE",
"253 170 CURVE",
"247 163 OFFCURVE",
"200 213 OFFCURVE",
"178 206 CURVE",
"158 199 OFFCURVE",
"140 185 OFFCURVE",
"127 180 CURVE",
"120 177 OFFCURVE",
"105 172 OFFCURVE",
"102 176 CURVE"
);
}
);
width = 917;
}
);
unicode = 3080;
},
{
glyphname = "me-hira";
lastChange = "2020-04-30 23:34:50 +0000";
layers = (
{
layerId = "1305C52C-0BD1-483E-A343-C05F3AFF2931";
paths = (
{
closed = 1;
nodes = (
"411 92 OFFCURVE",
"420 139 OFFCURVE",
"413 161 CURVE",
"387 242 OFFCURVE",
"251 568 OFFCURVE",
"263 574 CURVE",
"274 579 OFFCURVE",
"397 267 OFFCURVE",
"432 190 CURVE",
"445 162 OFFCURVE",
"472 162 OFFCURVE",
"478 147 CURVE",
"483 134 OFFCURVE",
"472 117 OFFCURVE",
"461 107 CURVE",
"451 96 OFFCURVE",
"426 75 OFFCURVE",
"418 83 CURVE"
);
},
{
closed = 1;
nodes = (
"25 389 OFFCURVE",
"59 400 OFFCURVE",
"71 400 CURVE",
"154 401 OFFCURVE",
"178 388 OFFCURVE",
"244 380 CURVE",
"306 373 OFFCURVE",
"335 373 OFFCURVE",
"376 378 CURVE",
"450 387 OFFCURVE",
"467 461 OFFCURVE",
"491 558 CURVE",
"498 588 OFFCURVE",
"539 622 OFFCURVE",
"570 619 CURVE",
"605 617 OFFCURVE",
"640 572 OFFCURVE",
"648 518 CURVE",
"658 451 OFFCURVE",
"732 330 OFFCURVE",
"797 313 CURVE",
"820 307 OFFCURVE",
"903 321 OFFCURVE",
"905 315 CURVE",
"910 305 OFFCURVE",
"813 280 OFFCURVE",
"763 294 CURVE",
"720 306 OFFCURVE",
"672 351 OFFCURVE",
"646 389 CURVE",
"617 431 OFFCURVE",
"578 521 OFFCURVE",
"557 522 CURVE",
"522 525 OFFCURVE",
"504 422 OFFCURVE",
"475 385 CURVE",
"450 352 OFFCURVE",
"410 338 OFFCURVE",
"361 337 CURVE",
"305 336 OFFCURVE",
"194 363 OFFCURVE",
"139 370 CURVE",
"102 374 OFFCURVE",
"38 365 OFFCURVE",
"31 378 CURVE"
);
},
{
closed = 1;
nodes = (
"263 143 OFFCURVE",
"285 174 OFFCURVE",
"282 193 CURVE",
"278 216 OFFCURVE",
"255 263 OFFCURVE",
"243 278 CURVE",
"235 289 OFFCURVE",
"215 282 OFFCURVE",
"207 288 CURVE",
"200 295 OFFCURVE",
"198 312 OFFCURVE",
"199 322 CURVE",
"200 334 OFFCURVE",
"214 359 OFFCURVE",
"214 359 CURVE",
"271 350 LINE",
"271 350 OFFCURVE",
"267 337 OFFCURVE",
"271 331 CURVE",
"282 318 OFFCURVE",
"311 291 OFFCURVE",
"335 270 CURVE",
"358 250 OFFCURVE",
"397 188 OFFCURVE",
"396 187 CURVE",
"393 184 OFFCURVE",
"345 232 OFFCURVE",
"327 246 CURVE",
"311 257 OFFCURVE",
"283 278 OFFCURVE",
"276 272 CURVE",
"268 266 OFFCURVE",
"287 243 OFFCURVE",
"297 231 CURVE",
"307 218 OFFCURVE",
"335 210 OFFCURVE",
"341 195 CURVE",
"350 169 OFFCURVE",
"274 131 OFFCURVE",
"269 137 CURVE"
);
}
);
width = 935;
}
);
unicode = 3081;
},
{
glyphname = "mo-hira";
lastChange = "2020-04-30 23:34:44 +0000";
layers = (
{
layerId = "1305C52C-0BD1-483E-A343-C05F3AFF2931";
paths = (
{
closed = 1;
nodes = (
"537 11 OFFCURVE",
"548 63 OFFCURVE",
"539 79 CURVE SMOOTH",
"534 88 OFFCURVE",
"521 102 OFFCURVE",
"521 107 CURVE SMOOTH",
"521 112 OFFCURVE",
"536 110 OFFCURVE",
"535 116 CURVE SMOOTH",
"531 138 OFFCURVE",
"525 193 OFFCURVE",
"516 230 CURVE SMOOTH",
"504 278 OFFCURVE",
"467 401 OFFCURVE",
"467 401 CURVE SMOOTH",
"467 401 OFFCURVE",
"524 272 OFFCURVE",
"544 224 CURVE SMOOTH",
"558 190 OFFCURVE",
"577 141 OFFCURVE",
"590 114 CURVE SMOOTH",
"598 97 OFFCURVE",
"620 85 OFFCURVE",
"623 67 CURVE SMOOTH",
"626 49 OFFCURVE",
"588 7 OFFCURVE",
"575 8 CURVE SMOOTH"
);
},
{
closed = 1;
nodes = (
"370 67 OFFCURVE",
"348 80 OFFCURVE",
"347 87 CURVE SMOOTH",
"346 94 OFFCURVE",
"376 96 OFFCURVE",
"377 107 CURVE SMOOTH",
"378 122 OFFCURVE",
"367 163 OFFCURVE",
"358 185 CURVE SMOOTH",
"342 225 OFFCURVE",
"319 240 OFFCURVE",
"319 260 CURVE SMOOTH",
"319 281 OFFCURVE",
"356 299 OFFCURVE",
"365 298 CURVE SMOOTH",
"377 297 OFFCURVE",
"376 276 OFFCURVE",
"386 265 CURVE SMOOTH",
"400 250 OFFCURVE",
"422 227 OFFCURVE",
"440 207 CURVE SMOOTH",
"459 186 OFFCURVE",
"500 144 OFFCURVE",
"500 144 CURVE SMOOTH",
"500 144 OFFCURVE",
"458 168 OFFCURVE",
"439 179 CURVE SMOOTH",
"418 191 OFFCURVE",
"393 212 OFFCURVE",
"380 203 CURVE SMOOTH",
"371 197 OFFCURVE",
"398 170 OFFCURVE",
"411 158 CURVE SMOOTH",
"424 146 OFFCURVE",
"441 139 OFFCURVE",
"443 126 CURVE SMOOTH",
"445 114 OFFCURVE",
"428 95 OFFCURVE",
"418 84 CURVE SMOOTH",
"409 74 OFFCURVE",
"393 65 OFFCURVE",
"381 66 CURVE SMOOTH"
);
},
{
closed = 1;
nodes = (
"203 144 OFFCURVE",
"161 218 OFFCURVE",
"161 266 CURVE SMOOTH",
"161 303 OFFCURVE",
"197 337 OFFCURVE",
"197 337 CURVE SMOOTH",
"197 337 OFFCURVE",
"177 357 OFFCURVE",
"165 368 CURVE SMOOTH",
"149 383 OFFCURVE",
"118 399 OFFCURVE",
"102 400 CURVE SMOOTH",
"86 401 OFFCURVE",
"75 391 OFFCURVE",
"63 391 CURVE SMOOTH",
"51 391 OFFCURVE",
"33 389 OFFCURVE",
"30 398 CURVE SMOOTH",
"28 404 OFFCURVE",
"51 436 OFFCURVE",
"65 450 CURVE SMOOTH",
"77 462 OFFCURVE",
"95 474 OFFCURVE",
"112 471 CURVE SMOOTH",
"134 467 OFFCURVE",
"128 443 OFFCURVE",
"170 409 CURVE SMOOTH",
"187 395 OFFCURVE",
"220 358 OFFCURVE",
"220 358 CURVE SMOOTH",
"220 358 OFFCURVE",
"257 387 OFFCURVE",
"347 378 CURVE SMOOTH",
"409 372 OFFCURVE",
"513 348 OFFCURVE",
"594 349 CURVE SMOOTH",
"708 350 OFFCURVE",
"775 416 OFFCURVE",
"782 490 CURVE SMOOTH",
"788 550 OFFCURVE",
"709 683 OFFCURVE",
"717 692 CURVE SMOOTH",
"725 701 OFFCURVE",
"832 594 OFFCURVE",
"848 473 CURVE SMOOTH",
"860 380 OFFCURVE",
"757 287 OFFCURVE",
"678 278 CURVE SMOOTH",
"598 269 OFFCURVE",
"465 296 OFFCURVE",
"394 311 CURVE SMOOTH",
"272 337 OFFCURVE",
"245 328 OFFCURVE",
"245 328 CURVE SMOOTH",
"245 328 OFFCURVE",
"272 280 OFFCURVE",
"280 249 CURVE SMOOTH",
"290 211 OFFCURVE",
"298 134 OFFCURVE",
"260 138 CURVE SMOOTH"
);
},
{
closed = 1;
nodes = (
"264 177 OFFCURVE",
"260 218 OFFCURVE",
"253 245 CURVE SMOOTH",
"243 282 OFFCURVE",
"218 317 OFFCURVE",
"218 317 CURVE SMOOTH",
"218 317 OFFCURVE",
"186 304 OFFCURVE",
"194 239 CURVE SMOOTH",
"199 197 OFFCURVE",
"241 172 OFFCURVE",
"250 174 CURVE SMOOTH"
);
}
);
width = 879;
}
);
unicode = 3082;
},
{
glyphname = "ya-hira";
lastChange = "2020-04-30 23:34:33 +0000";
layers = (
{
layerId = "1305C52C-0BD1-483E-A343-C05F3AFF2931";
paths = (
{
closed = 1;
nodes = (
"294 81 OFFCURVE",
"321 123 OFFCURVE",
"319 146 CURVE",
"315 187 OFFCURVE",
"280 230 OFFCURVE",
"279 256 CURVE",
"278 276 OFFCURVE",
"304 302 OFFCURVE",
"315 302 CURVE",
"335 301 OFFCURVE",
"334 264 OFFCURVE",
"346 252 CURVE",
"368 230 OFFCURVE",
"418 172 OFFCURVE",
"449 172 CURVE",
"479 173 OFFCURVE",
"469 203 OFFCURVE",
"460 213 CURVE",
"446 230 OFFCURVE",
"425 242 OFFCURVE",
"426 264 CURVE",
"427 285 OFFCURVE",
"454 303 OFFCURVE",
"467 302 CURVE",
"484 301 OFFCURVE",
"488 278 OFFCURVE",
"499 271 CURVE",
"521 258 OFFCURVE",
"585 229 OFFCURVE",
"621 199 CURVE",
"689 140 OFFCURVE",
"702 47 OFFCURVE",
"702 47 CURVE",
"702 47 OFFCURVE",
"646 149 OFFCURVE",
"609 177 CURVE",
"546 224 OFFCURVE",
"486 222 OFFCURVE",
"486 222 CURVE",
"486 222 OFFCURVE",
"496 187 OFFCURVE",
"495 170 CURVE",
"495 154 OFFCURVE",
"482 128 OFFCURVE",
"462 128 CURVE",
"416 129 OFFCURVE",
"354 183 OFFCURVE",
"354 183 CURVE",
"354 183 OFFCURVE",
"350 172 OFFCURVE",
"357 162 CURVE",
"365 150 OFFCURVE",
"385 139 OFFCURVE",
"385 129 CURVE",
"388 92 OFFCURVE",
"319 59 OFFCURVE",
"305 71 CURVE"
);
},
{
closed = 1;
nodes = (
"304 551 OFFCURVE",
"332 602 OFFCURVE",
"349 621 CURVE",
"363 638 OFFCURVE",
"390 654 OFFCURVE",
"407 653 CURVE",
"441 651 OFFCURVE",
"431 607 OFFCURVE",
"444 588 CURVE",
"466 557 OFFCURVE",
"498 518 OFFCURVE",
"534 465 CURVE",
"578 399 OFFCURVE",
"621 284 OFFCURVE",
"621 284 CURVE",
"621 284 OFFCURVE",
"547 394 OFFCURVE",
"508 441 CURVE",
"470 485 OFFCURVE",
"389 548 OFFCURVE",
"371 546 CURVE",
"353 543 OFFCURVE",
"323 520 OFFCURVE",
"312 537 CURVE"
);
},
{
closed = 1;
nodes = (
"24 281 OFFCURVE",
"49 328 OFFCURVE",
"65 356 CURVE",
"82 387 OFFCURVE",
"105 437 OFFCURVE",
"140 435 CURVE",
"157 434 OFFCURVE",
"163 405 OFFCURVE",
"175 391 CURVE",
"196 368 OFFCURVE",
"382 362 OFFCURVE",
"485 361 CURVE",
"591 361 OFFCURVE",
"744 365 OFFCURVE",
"804 368 CURVE",
"818 368 OFFCURVE",
"833 374 OFFCURVE",
"847 374 CURVE",
"862 374 OFFCURVE",
"892 374 OFFCURVE",
"894 366 CURVE",
"896 355 OFFCURVE",
"846 314 OFFCURVE",
"828 312 CURVE",
"818 311 OFFCURVE",
"804 321 OFFCURVE",
"793 322 CURVE",
"738 325 OFFCURVE",
"592 333 OFFCURVE",
"491 334 CURVE",
"381 335 OFFCURVE",
"238 336 OFFCURVE",
"168 334 CURVE",
"138 333 OFFCURVE",
"79 280 OFFCURVE",
"58 270 CURVE",
"50 266 OFFCURVE",
"38 262 OFFCURVE",
"32 270 CURVE"
);
}
);
width = 924;
}
);
unicode = 3084;
},
{
glyphname = "yasmall-hira";
lastChange = "2020-04-30 23:34:27 +0000";
layers = (
{
layerId = "1305C52C-0BD1-483E-A343-C05F3AFF2931";
paths = (
{
closed = 1;
nodes = (
"230 465 LINE",
"225 473 OFFCURVE",
"241 500 OFFCURVE",
"251 514 CURVE",
"260 529 OFFCURVE",
"274 551 OFFCURVE",
"284 550 CURVE",
"301 548 OFFCURVE",
"299 512 OFFCURVE",
"308 500 CURVE",
"324 479 OFFCURVE",
"352 448 OFFCURVE",
"373 421 CURVE",
"396 391 OFFCURVE",
"439 318 OFFCURVE",
"439 318 CURVE",
"439 318 OFFCURVE",
"384 383 OFFCURVE",
"358 411 CURVE",
"332 437 OFFCURVE",
"299 466 OFFCURVE",
"278 475 CURVE",
"264 481 OFFCURVE",
"236 457 OFFCURVE",
"230 465 CURVE"
);
},
{
closed = 1;
nodes = (
"142 473 LINE",
"141 484 OFFCURVE",
"152 520 OFFCURVE",
"175 519 CURVE",
"196 518 OFFCURVE",
"188 486 OFFCURVE",
"197 477 CURVE",
"218 454 OFFCURVE",
"266 423 OFFCURVE",
"298 386 CURVE",
"350 328 OFFCURVE",
"371 256 OFFCURVE",
"371 256 CURVE",
"371 256 OFFCURVE",
"324 333 OFFCURVE",
"293 365 CURVE",
"260 397 OFFCURVE",
"213 431 OFFCURVE",
"184 446 CURVE",
"173 453 OFFCURVE",
"145 452 OFFCURVE",
"142 473 CURVE"
);
},
{
closed = 1;
nodes = (
"73 473 LINE",
"73 473 OFFCURVE",
"113 424 OFFCURVE",
"141 423 CURVE",
"199 421 OFFCURVE",
"169 458 OFFCURVE",
"169 458 CURVE",
"210 446 LINE",
"210 446 OFFCURVE",
"188 403 OFFCURVE",
"169 402 CURVE",
"150 400 OFFCURVE",
"97 416 OFFCURVE",
"97 416 CURVE",
"73 473 LINE"
);
},
{
closed = 1;
nodes = (
"92 338 LINE",
"86 344 OFFCURVE",
"98 377 OFFCURVE",
"93 394 CURVE",
"87 414 OFFCURVE",
"67 441 OFFCURVE",
"57 454 CURVE",
"50 463 OFFCURVE",
"31 470 OFFCURVE",
"30 480 CURVE",
"30 490 OFFCURVE",
"44 516 OFFCURVE",
"54 516 CURVE",
"64 515 OFFCURVE",
"69 497 OFFCURVE",
"70 486 CURVE",
"71 470 OFFCURVE",
"92 435 OFFCURVE",
"104 418 CURVE",
"117 402 OFFCURVE",
"139 396 OFFCURVE",
"143 385 CURVE",
"147 374 OFFCURVE",
"97 331 OFFCURVE",
"92 338 CURVE"
);
}
);
width = 469;
}
);
unicode = 3083;
},
{
glyphname = "yu-hira";
lastChange = "2020-04-30 23:34:21 +0000";
layers = (
{
layerId = "1305C52C-0BD1-483E-A343-C05F3AFF2931";
paths = (
{
closed = 1;
nodes = (
"216 363 OFFCURVE",
"290 295 OFFCURVE",
"338 294 CURVE",
"367 293 OFFCURVE",
"395 306 OFFCURVE",
"393 332 CURVE",
"392 355 OFFCURVE",
"358 415 OFFCURVE",
"344 415 CURVE",
"334 415 OFFCURVE",
"327 405 OFFCURVE",
"319 406 CURVE",
"306 406 OFFCURVE",
"296 428 OFFCURVE",
"296 443 CURVE",
"297 464 OFFCURVE",
"325 534 OFFCURVE",
"348 534 CURVE",
"363 534 OFFCURVE",
"381 502 OFFCURVE",
"404 501 CURVE",
"458 499 OFFCURVE",
"590 438 OFFCURVE",
"671 358 CURVE",
"778 253 OFFCURVE",
"765 111 OFFCURVE",
"757 111 CURVE",
"744 111 OFFCURVE",
"757 211 OFFCURVE",
"675 302 CURVE",
"584 401 OFFCURVE",
"392 429 OFFCURVE",
"392 429 CURVE",
"392 429 OFFCURVE",
"434 356 OFFCURVE",
"433 327 CURVE",
"432 298 OFFCURVE",
"404 261 OFFCURVE",
"374 261 CURVE",
"318 261 OFFCURVE",
"229 318 OFFCURVE",
"229 318 CURVE",
"216 363 LINE"
);
},
{
closed = 1;
nodes = (
"25 278 OFFCURVE",
"39 340 OFFCURVE",
"53 365 CURVE",
"65 388 OFFCURVE",
"93 411 OFFCURVE",
"129 410 CURVE",
"143 410 OFFCURVE",
"157 395 OFFCURVE",
"156 374 CURVE",
"156 359 OFFCURVE",
"128 341 OFFCURVE",
"121 324 CURVE",
"115 310 OFFCURVE",
"117 281 OFFCURVE",
"111 280 CURVE",
"105 278 OFFCURVE",
"96 318 OFFCURVE",
"82 318 CURVE",
"67 317 OFFCURVE",
"39 265 OFFCURVE",
"32 272 CURVE"
);
},
{
closed = 1;
nodes = (
"185 87 OFFCURVE",
"220 128 OFFCURVE",
"223 151 CURVE",
"230 195 OFFCURVE",
"212 267 OFFCURVE",
"181 377 CURVE",
"159 454 OFFCURVE",
"115 620 OFFCURVE",
"130 625 CURVE",
"147 630 OFFCURVE",
"181 491 OFFCURVE",
"199 433 CURVE",
"219 368 OFFCURVE",
"241 285 OFFCURVE",
"259 243 CURVE",
"268 221 OFFCURVE",
"297 202 OFFCURVE",
"300 180 CURVE",
"304 158 OFFCURVE",
"288 130 OFFCURVE",
"273 111 CURVE",
"258 91 OFFCURVE",
"200 68 OFFCURVE",
"193 77 CURVE"
);
}
);
width = 792;
}
);
unicode = 3086;
},
{
glyphname = "yusmall-hira";
lastChange = "2020-04-30 23:34:14 +0000";
layers = (
{
layerId = "1305C52C-0BD1-483E-A343-C05F3AFF2931";
paths = (
{
closed = 1;
nodes = (
"199 490 LINE",
"182 500 OFFCURVE",
"200 559 OFFCURVE",
"209 559 CURVE",
"216 559 OFFCURVE",
"217 537 OFFCURVE",
"225 530 CURVE",
"250 511 OFFCURVE",
"291 504 OFFCURVE",
"357 445 CURVE",
"419 391 OFFCURVE",
"441 303 OFFCURVE",
"441 303 CURVE",
"441 303 OFFCURVE",
"391 383 OFFCURVE",
"350 418 CURVE",
"251 504 OFFCURVE",
"225 474 OFFCURVE",
"199 490 CURVE"
);
},
{
closed = 1;
nodes = (
"120 514 LINE",
"120 514 OFFCURVE",
"167 472 OFFCURVE",
"185 467 CURVE",
"197 465 OFFCURVE",
"219 466 OFFCURVE",
"220 474 CURVE",
"221 482 OFFCURVE",
"220 502 OFFCURVE",
"220 502 CURVE",
"240 502 LINE",
"240 502 OFFCURVE",
"246 466 OFFCURVE",
"243 455 CURVE",
"241 444 OFFCURVE",
"228 433 OFFCURVE",
"217 433 CURVE",
"173 433 OFFCURVE",
"135 465 OFFCURVE",
"135 465 CURVE",
"120 514 LINE"
);
},
{
closed = 1;
nodes = (
"132 342 LINE",
"127 352 OFFCURVE",
"152 369 OFFCURVE",
"150 384 CURVE",
"148 406 OFFCURVE",
"134 440 OFFCURVE",
"124 461 CURVE",
"115 480 OFFCURVE",
"90 495 OFFCURVE",
"87 518 CURVE",
"86 534 OFFCURVE",
"98 555 OFFCURVE",
"109 556 CURVE",
"122 556 OFFCURVE",
"129 501 OFFCURVE",
"137 474 CURVE",
"160 406 OFFCURVE",
"193 408 OFFCURVE",
"194 390 CURVE",
"196 360 OFFCURVE",
"135 336 OFFCURVE",
"132 342 CURVE"
);
},
{
closed = 1;
nodes = (
"49 360 LINE",
"46 368 OFFCURVE",
"77 390 OFFCURVE",
"73 407 CURVE",
"66 440 OFFCURVE",
"30 545 OFFCURVE",
"30 545 CURVE",
"30 545 OFFCURVE",
"78 453 OFFCURVE",
"94 429 CURVE",
"103 415 OFFCURVE",
"131 406 OFFCURVE",
"131 395 CURVE",
"131 374 OFFCURVE",
"56 340 OFFCURVE",
"49 360 CURVE"
);
}
);
width = 471;
}
);
unicode = 3085;
},
{
glyphname = "yo-hira";
lastChange = "2020-04-30 23:34:08 +0000";
layers = (
{
layerId = "1305C52C-0BD1-483E-A343-C05F3AFF2931";
paths = (
{
closed = 1;
nodes = (
"103 90 OFFCURVE",
"129 129 OFFCURVE",
"126 152 CURVE",
"123 174 OFFCURVE",
"101 218 OFFCURVE",
"78 257 CURVE",
"53 300 OFFCURVE",
"29 313 OFFCURVE",
"30 348 CURVE",
"31 368 OFFCURVE",
"46 384 OFFCURVE",
"60 383 CURVE",
"84 381 OFFCURVE",
"84 330 OFFCURVE",
"157 274 CURVE",
"198 244 OFFCURVE",
"247 224 OFFCURVE",
"258 231 CURVE",
"268 237 OFFCURVE",
"255 273 OFFCURVE",
"231 282 CURVE",
"201 292 OFFCURVE",
"176 307 OFFCURVE",
"178 341 CURVE",
"179 363 OFFCURVE",
"199 391 OFFCURVE",
"223 391 CURVE",
"241 390 OFFCURVE",
"250 374 OFFCURVE",
"263 366 CURVE",
"291 349 OFFCURVE",
"355 309 OFFCURVE",
"393 280 CURVE",
"429 253 OFFCURVE",
"487 190 OFFCURVE",
"487 190 CURVE",
"487 190 OFFCURVE",
"519 252 OFFCURVE",
"537 283 CURVE",
"572 343 OFFCURVE",
"666 438 OFFCURVE",
"663 545 CURVE",
"661 609 OFFCURVE",
"616 734 OFFCURVE",
"628 740 CURVE",
"641 747 OFFCURVE",
"727 593 OFFCURVE",
"730 509 CURVE",
"730 407 OFFCURVE",
"670 350 OFFCURVE",
"629 296 CURVE",
"591 245 OFFCURVE",
"527 211 OFFCURVE",
"528 136 CURVE",
"529 60 OFFCURVE",
"605 50 OFFCURVE",
"608 1 CURVE",
"610 -25 OFFCURVE",
"557 -40 OFFCURVE",
"540 -40 CURVE",
"529 -41 OFFCURVE",
"521 -35 OFFCURVE",
"520 -28 CURVE",
"519 -15 OFFCURVE",
"533 -2 OFFCURVE",
"530 9 CURVE",
"528 20 OFFCURVE",
"497 71 OFFCURVE",
"490 105 CURVE",
"483 143 OFFCURVE",
"451 190 OFFCURVE",
"415 219 CURVE",
"314 296 OFFCURVE",
"270 291 OFFCURVE",
"270 291 CURVE",
"270 291 OFFCURVE",
"297 249 OFFCURVE",
"296 232 CURVE",
"296 212 OFFCURVE",
"274 192 OFFCURVE",
"254 190 CURVE",
"227 188 OFFCURVE",
"126 256 OFFCURVE",
"126 256 CURVE",
"126 256 OFFCURVE",
"157 217 OFFCURVE",
"173 202 CURVE",
"189 187 OFFCURVE",
"223 183 OFFCURVE",
"225 167 CURVE",
"226 150 OFFCURVE",
"201 120 OFFCURVE",
"183 105 CURVE",
"164 91 OFFCURVE",
"123 71 OFFCURVE",
"114 79 CURVE"
);
}
);
width = 760;
}
);
unicode = 3088;
},
{
glyphname = "yosmall-hira";
lastChange = "2020-04-30 23:34:02 +0000";
layers = (
{
layerId = "1305C52C-0BD1-483E-A343-C05F3AFF2931";
paths = (
{
closed = 1;
nodes = (
"263 389 LINE",
"263 389 OFFCURVE",
"254 418 OFFCURVE",
"255 434 CURVE",
"258 482 OFFCURVE",
"307 484 OFFCURVE",
"319 483 CURVE",
"338 481 OFFCURVE",
"355 478 OFFCURVE",
"371 479 CURVE",
"389 480 OFFCURVE",
"408 499 OFFCURVE",
"405 526 CURVE",
"400 567 OFFCURVE",
"361 618 OFFCURVE",
"361 618 CURVE",
"361 618 OFFCURVE",
"442 573 OFFCURVE",
"442 496 CURVE",
"442 467 OFFCURVE",
"409 433 OFFCURVE",
"386 432 CURVE",
"359 432 OFFCURVE",
"327 447 OFFCURVE",
"309 447 CURVE",
"249 449 OFFCURVE",
"276 387 OFFCURVE",
"276 387 CURVE",
"263 389 LINE"
);
},
{
closed = 1;
nodes = (
"140 447 LINE",
"137 458 OFFCURVE",
"152 499 OFFCURVE",
"176 497 CURVE",
"196 496 OFFCURVE",
"192 467 OFFCURVE",
"202 458 CURVE",
"222 435 OFFCURVE",
"269 405 OFFCURVE",
"301 369 CURVE",
"353 309 OFFCURVE",
"372 234 OFFCURVE",
"372 234 CURVE",
"372 234 OFFCURVE",
"324 312 OFFCURVE",
"293 343 CURVE",
"261 375 OFFCURVE",
"219 409 OFFCURVE",
"189 422 CURVE",
"177 428 OFFCURVE",
"145 417 OFFCURVE",
"140 447 CURVE"
);
},
{
closed = 1;
nodes = (
"73 452 LINE",
"73 452 OFFCURVE",
"113 403 OFFCURVE",
"141 402 CURVE",
"172 400 OFFCURVE",
"170 437 OFFCURVE",
"170 437 CURVE",
"210 424 LINE",
"210 424 OFFCURVE",
"189 375 OFFCURVE",
"170 373 CURVE",
"150 372 OFFCURVE",
"97 394 OFFCURVE",
"97 394 CURVE",
"73 452 LINE"
);
},
{
closed = 1;
nodes = (
"71 314 LINE",
"65 320 OFFCURVE",
"86 348 OFFCURVE",
"81 366 CURVE",
"75 385 OFFCURVE",
"60 407 OFFCURVE",
"50 421 CURVE",
"43 430 OFFCURVE",
"30 446 OFFCURVE",
"30 459 CURVE",
"31 471 OFFCURVE",
"44 495 OFFCURVE",
"54 494 CURVE",
"64 494 OFFCURVE",
"69 475 OFFCURVE",
"70 464 CURVE",
"71 448 OFFCURVE",
"92 414 OFFCURVE",
"104 397 CURVE",
"117 380 OFFCURVE",
"129 369 OFFCURVE",
"134 358 CURVE",
"145 329 OFFCURVE",
"76 307 OFFCURVE",
"71 314 CURVE"
);
}
);
width = 472;
}
);
unicode = 3087;
},
{
glyphname = "ra-hira";
lastChange = "2020-04-30 23:33:55 +0000";
layers = (
{
layerId = "1305C52C-0BD1-483E-A343-C05F3AFF2931";
paths = (
{
closed = 1;
nodes = (
"348 201 OFFCURVE",
"281 367 OFFCURVE",
"281 367 CURVE SMOOTH",
"281 367 OFFCURVE",
"174 426 OFFCURVE",
"150 444 CURVE",
"139 453 OFFCURVE",
"115 446 OFFCURVE",
"115 446 CURVE SMOOTH",
"115 446 OFFCURVE",
"174 327 OFFCURVE",
"203 298 CURVE",
"218 281 OFFCURVE",
"228 254 OFFCURVE",
"216 231 CURVE",
"206 208 OFFCURVE",
"155 168 OFFCURVE",
"132 163 CURVE",
"114 156 OFFCURVE",
"95 152 OFFCURVE",
"91 166 CURVE",
"86 176 OFFCURVE",
"135 231 OFFCURVE",
"132 268 CURVE SMOOTH",
"129 307 OFFCURVE",
"90 412 OFFCURVE",
"73 443 CURVE SMOOTH",
"67 454 OFFCURVE",
"47 454 OFFCURVE",
"39 464 CURVE",
"32 475 OFFCURVE",
"28 501 OFFCURVE",
"32 513 CURVE",
"36 529 OFFCURVE",
"62 564 OFFCURVE",
"76 571 CURVE",
"86 575 OFFCURVE",
"109 563 OFFCURVE",
"120 555 CURVE",
"135 542 OFFCURVE",
"138 510 OFFCURVE",
"159 491 CURVE SMOOTH",
"184 467 OFFCURVE",
"275 412 OFFCURVE",
"275 412 CURVE SMOOTH",
"275 412 OFFCURVE",
"273 476 OFFCURVE",
"329 523 CURVE SMOOTH",
"404 585 OFFCURVE",
"449 569 OFFCURVE",
"506 565 CURVE SMOOTH",
"571 561 OFFCURVE",
"668 477 OFFCURVE",
"718 430 CURVE SMOOTH",
"762 389 OFFCURVE",
"810 308 OFFCURVE",
"815 283 CURVE",
"820 265 OFFCURVE",
"818 183 OFFCURVE",
"807 182 CURVE SMOOTH",
"799 181 OFFCURVE",
"797 230 OFFCURVE",
"787 251 CURVE SMOOTH",
"730 369 OFFCURVE",
"689 393 OFFCURVE",
"587 446 CURVE SMOOTH",
"530 476 OFFCURVE",
"484 490 OFFCURVE",
"397 478 CURVE SMOOTH",
"316 467 OFFCURVE",
"317 388 OFFCURVE",
"317 388 CURVE SMOOTH",
"317 388 OFFCURVE",
"412 312 OFFCURVE",
"454 273 CURVE SMOOTH",
"493 236 OFFCURVE",
"553 184 OFFCURVE",
"537 141 CURVE",
"527 119 OFFCURVE",
"474 130 OFFCURVE",
"452 140 CURVE"
);
},
{
closed = 1;
nodes = (
"495 173 OFFCURVE",
"458 216 OFFCURVE",
"422 255 CURVE SMOOTH",
"392 289 OFFCURVE",
"325 340 OFFCURVE",
"325 340 CURVE SMOOTH",
"325 340 OFFCURVE",
"359 272 OFFCURVE",
"396 230 CURVE SMOOTH",
"426 195 OFFCURVE",
"465 148 OFFCURVE",
"481 163 CURVE"
);
}
);
width = 848;
}
);
unicode = 3089;
},
{
glyphname = "ri-hira";
lastChange = "2020-04-30 23:33:49 +0000";
layers = (
{
layerId = "1305C52C-0BD1-483E-A343-C05F3AFF2931";
paths = (
{
closed = 1;
nodes = (
"434 105 OFFCURVE",
"442 174 OFFCURVE",
"451 203 CURVE",
"460 231 OFFCURVE",
"466 275 OFFCURVE",
"501 276 CURVE",
"524 276 OFFCURVE",
"547 236 OFFCURVE",
"545 224 CURVE",
"544 215 OFFCURVE",
"528 214 OFFCURVE",
"521 208 CURVE",
"512 200 OFFCURVE",
"498 186 OFFCURVE",
"489 173 CURVE",
"476 155 OFFCURVE",
"455 100 OFFCURVE",
"447 102 CURVE"
);
},
{
closed = 1;
nodes = (
"323 75 OFFCURVE",
"358 97 OFFCURVE",
"354 116 CURVE",
"337 192 OFFCURVE",
"293 204 OFFCURVE",
"288 233 CURVE",
"283 255 OFFCURVE",
"297 284 OFFCURVE",
"305 282 CURVE",
"318 279 OFFCURVE",
"327 261 OFFCURVE",
"337 256 CURVE",
"372 238 OFFCURVE",
"467 210 OFFCURVE",
"521 175 CURVE",
"574 140 OFFCURVE",
"630 80 OFFCURVE",
"651 49 CURVE",
"662 34 OFFCURVE",
"647 -7 OFFCURVE",
"647 -7 CURVE",
"647 -7 OFFCURVE",
"640 33 OFFCURVE",
"627 47 CURVE",
"601 76 OFFCURVE",
"557 131 OFFCURVE",
"492 165 CURVE",
"414 206 OFFCURVE",
"339 210 OFFCURVE",
"339 210 CURVE",
"339 210 OFFCURVE",
"362 176 OFFCURVE",
"375 161 CURVE",
"389 145 OFFCURVE",
"421 132 OFFCURVE",
"422 116 CURVE",
"423 100 OFFCURVE",
"400 77 OFFCURVE",
"384 69 CURVE",
"368 61 OFFCURVE",
"331 57 OFFCURVE",
"327 66 CURVE"
);
},
{
closed = 1;
nodes = (
"242 531 OFFCURVE",
"277 565 OFFCURVE",
"300 576 CURVE",
"323 588 OFFCURVE",
"367 601 OFFCURVE",
"380 591 CURVE",
"405 572 OFFCURVE",
"366 531 OFFCURVE",
"372 510 CURVE",
"379 485 OFFCURVE",
"414 454 OFFCURVE",
"467 455 CURVE",
"667 461 OFFCURVE",
"668 708 OFFCURVE",
"668 708 CURVE",
"668 708 OFFCURVE",
"726 450 OFFCURVE",
"490 405 CURVE",
"357 380 OFFCURVE",
"315 485 OFFCURVE",
"275 501 CURVE",
"265 505 OFFCURVE",
"248 510 OFFCURVE",
"246 517 CURVE"
);
},
{
closed = 1;
nodes = (
"22 258 OFFCURVE",
"34 316 OFFCURVE",
"47 344 CURVE",
"59 372 OFFCURVE",
"96 414 OFFCURVE",
"115 415 CURVE",
"143 416 OFFCURVE",
"138 368 OFFCURVE",
"155 365 CURVE",
"198 357 OFFCURVE",
"299 352 OFFCURVE",
"370 350 CURVE",
"471 348 OFFCURVE",
"673 348 OFFCURVE",
"749 349 CURVE",
"775 350 OFFCURVE",
"817 378 OFFCURVE",
"837 379 CURVE",
"864 379 OFFCURVE",
"871 370 OFFCURVE",
"870 355 CURVE",
"870 340 OFFCURVE",
"829 294 OFFCURVE",
"809 294 CURVE",
"793 294 OFFCURVE",
"753 313 OFFCURVE",
"736 313 CURVE",
"669 315 OFFCURVE",
"493 321 OFFCURVE",
"395 321 CURVE",
"315 320 OFFCURVE",
"200 312 OFFCURVE",
"150 311 CURVE",
"92 310 OFFCURVE",
"45 237 OFFCURVE",
"36 245 CURVE"
);
}
);
width = 900;
}
);
unicode = 308A;
},
{
glyphname = "ru-hira";
lastChange = "2020-04-30 23:33:44 +0000";
layers = (
{
layerId = "1305C52C-0BD1-483E-A343-C05F3AFF2931";
paths = (
{
closed = 1;
nodes = (
"445 106 OFFCURVE",
"444 175 OFFCURVE",
"452 204 CURVE",
"462 241 OFFCURVE",
"473 276 OFFCURVE",
"503 277 CURVE",
"520 278 OFFCURVE",
"546 244 OFFCURVE",
"545 226 CURVE",
"544 218 OFFCURVE",
"529 216 OFFCURVE",
"522 211 CURVE",
"513 204 OFFCURVE",
"500 192 OFFCURVE",
"491 180 CURVE",
"478 162 OFFCURVE",
"445 106 OFFCURVE",
"445 106 CURVE"
);
},
{
closed = 1;
nodes = (
"326 84 OFFCURVE",
"355 103 OFFCURVE",
"353 122 CURVE",
"352 141 OFFCURVE",
"337 169 OFFCURVE",
"326 189 CURVE",
"316 208 OFFCURVE",
"287 215 OFFCURVE",
"285 246 CURVE",
"283 262 OFFCURVE",
"293 288 OFFCURVE",
"307 288 CURVE",
"318 288 OFFCURVE",
"320 269 OFFCURVE",
"334 264 CURVE",
"370 250 OFFCURVE",
"459 216 OFFCURVE",
"513 180 CURVE",
"568 144 OFFCURVE",
"638 92 OFFCURVE",
"648 48 CURVE",
"652 32 OFFCURVE",
"646 0 OFFCURVE",
"646 0 CURVE",
"646 0 OFFCURVE",
"638 32 OFFCURVE",
"630 46 CURVE",
"608 87 OFFCURVE",
"568 123 OFFCURVE",
"497 163 CURVE",
"410 212 OFFCURVE",
"347 212 OFFCURVE",
"347 212 CURVE",
"347 212 OFFCURVE",
"352 185 OFFCURVE",
"373 164 CURVE",
"387 150 OFFCURVE",
"417 139 OFFCURVE",
"419 124 CURVE",
"421 109 OFFCURVE",
"406 89 OFFCURVE",
"392 80 CURVE",
"378 72 OFFCURVE",
"342 64 OFFCURVE",
"336 72 CURVE"
);
},
{
closed = 1;
nodes = (
"557 268 OFFCURVE",
"607 268 OFFCURVE",
"604 284 CURVE",
"598 324 OFFCURVE",
"573 406 OFFCURVE",
"554 468 CURVE",
"533 539 OFFCURVE",
"479 700 OFFCURVE",
"479 700 CURVE",
"479 700 OFFCURVE",
"549 535 OFFCURVE",
"578 469 CURVE",
"601 415 OFFCURVE",
"631 343 OFFCURVE",
"647 314 CURVE",
"654 300 OFFCURVE",
"684 296 OFFCURVE",
"689 281 CURVE",
"693 266 OFFCURVE",
"668 228 OFFCURVE",
"647 222 CURVE",
"614 212 OFFCURVE",
"573 227 OFFCURVE",
"569 237 CURVE"
);
},
{
closed = 1;
nodes = (
"27 293 OFFCURVE",
"41 315 OFFCURVE",
"44 326 CURVE",
"48 335 OFFCURVE",
"49 344 OFFCURVE",
"54 352 CURVE",
"66 374 OFFCURVE",
"114 432 OFFCURVE",
"138 432 CURVE",
"156 431 OFFCURVE",
"167 411 OFFCURVE",
"169 398 CURVE",
"171 388 OFFCURVE",
"168 364 OFFCURVE",
"180 362 CURVE",
"215 354 OFFCURVE",
"310 355 OFFCURVE",
"376 354 CURVE",
"466 352 OFFCURVE",
"644 354 OFFCURVE",
"721 354 CURVE",
"756 354 OFFCURVE",
"799 380 OFFCURVE",
"823 380 CURVE",
"841 379 OFFCURVE",
"869 364 OFFCURVE",
"869 351 CURVE",
"868 338 OFFCURVE",
"818 312 OFFCURVE",
"801 306 CURVE",
"789 302 OFFCURVE",
"778 314 OFFCURVE",
"765 314 CURVE",
"703 316 OFFCURVE",
"518 319 OFFCURVE",
"426 319 CURVE",
"354 320 OFFCURVE",
"265 319 OFFCURVE",
"211 317 CURVE",
"176 317 OFFCURVE",
"133 312 OFFCURVE",
"108 307 CURVE",
"91 303 OFFCURVE",
"75 289 OFFCURVE",
"62 285 CURVE",
"51 283 OFFCURVE",
"33 280 OFFCURVE",
"30 286 CURVE"
);
}
);
width = 899;
}
);
unicode = 308B;
},
{
glyphname = "re-hira";
lastChange = "2020-04-30 23:33:37 +0000";
layers = (
{
layerId = "1305C52C-0BD1-483E-A343-C05F3AFF2931";
paths = (
{
closed = 1;
nodes = (
"446 263 OFFCURVE",
"498 343 OFFCURVE",
"532 374 CURVE",
"568 406 OFFCURVE",
"638 468 OFFCURVE",
"668 429 CURVE",
"685 407 OFFCURVE",
"664 383 OFFCURVE",
"664 363 CURVE",
"663 341 OFFCURVE",
"660 295 OFFCURVE",
"660 295 CURVE",
"660 295 OFFCURVE",
"634 351 OFFCURVE",
"608 353 CURVE",
"561 357 OFFCURVE",
"446 263 OFFCURVE",
"446 263 CURVE"
);
},
{
closed = 1;
nodes = (
"79 238 OFFCURVE",
"124 266 OFFCURVE",
"120 292 CURVE",
"115 329 OFFCURVE",
"81 394 OFFCURVE",
"65 423 CURVE",
"54 444 OFFCURVE",
"32 451 OFFCURVE",
"30 487 CURVE",
"29 507 OFFCURVE",
"44 549 OFFCURVE",
"68 547 CURVE",
"86 546 OFFCURVE",
"165 415 OFFCURVE",
"225 414 CURVE",
"278 413 OFFCURVE",
"288 563 OFFCURVE",
"388 564 CURVE",
"467 564 OFFCURVE",
"517 402 OFFCURVE",
"588 313 CURVE",
"644 243 OFFCURVE",
"746 161 OFFCURVE",
"811 160 CURVE",
"855 159 OFFCURVE",
"939 190 OFFCURVE",
"939 190 CURVE",
"939 190 OFFCURVE",
"878 136 OFFCURVE",
"802 136 CURVE",
"739 135 OFFCURVE",
"622 216 OFFCURVE",
"573 277 CURVE",
"501 365 OFFCURVE",
"443 475 OFFCURVE",
"382 473 CURVE",
"318 471 OFFCURVE",
"281 383 OFFCURVE",
"234 379 CURVE",
"201 376 OFFCURVE",
"92 450 OFFCURVE",
"92 450 CURVE",
"92 450 OFFCURVE",
"102 411 OFFCURVE",
"139 367 CURVE",
"159 343 OFFCURVE",
"209 332 OFFCURVE",
"212 298 CURVE",
"213 271 OFFCURVE",
"181 237 OFFCURVE",
"160 225 CURVE",
"139 214 OFFCURVE",
"90 212 OFFCURVE",
"85 225 CURVE"
);
}
);
width = 969;
}
);
unicode = 308C;
},
{
glyphname = "ro-hira";
lastChange = "2020-04-30 23:33:31 +0000";
layers = (
{
layerId = "1305C52C-0BD1-483E-A343-C05F3AFF2931";
paths = (
{
closed = 1;
nodes = (
"79 206 OFFCURVE",
"118 232 OFFCURVE",
"115 255 CURVE",
"110 289 OFFCURVE",
"90 330 OFFCURVE",
"71 355 CURVE",
"52 380 OFFCURVE",
"32 382 OFFCURVE",
"30 423 CURVE",
"29 443 OFFCURVE",
"42 470 OFFCURVE",
"54 469 CURVE",
"65 469 OFFCURVE",
"74 447 OFFCURVE",
"86 441 CURVE",
"127 420 OFFCURVE",
"206 397 OFFCURVE",
"304 341 CURVE",
"440 264 OFFCURVE",
"481 200 OFFCURVE",
"481 200 CURVE",
"481 200 OFFCURVE",
"505 248 OFFCURVE",
"516 272 CURVE",
"544 329 OFFCURVE",
"646 436 OFFCURVE",
"645 544 CURVE",
"644 610 OFFCURVE",
"609 737 OFFCURVE",
"609 737 CURVE",
"609 737 OFFCURVE",
"713 585 OFFCURVE",
"716 502 CURVE",
"724 329 OFFCURVE",
"510 258 OFFCURVE",
"515 138 CURVE",
"518 71 OFFCURVE",
"599 42 OFFCURVE",
"600 18 CURVE",
"600 3 OFFCURVE",
"582 -10 OFFCURVE",
"569 -13 CURVE",
"557 -15 OFFCURVE",
"548 -37 OFFCURVE",
"536 -36 CURVE",
"505 -34 OFFCURVE",
"519 9 OFFCURVE",
"512 32 CURVE",
"501 63 OFFCURVE",
"488 106 OFFCURVE",
"472 148 CURVE",
"453 197 OFFCURVE",
"416 243 OFFCURVE",
"292 316 CURVE",
"199 370 OFFCURVE",
"110 371 OFFCURVE",
"110 371 CURVE",
"110 371 OFFCURVE",
"129 326 OFFCURVE",
"144 308 CURVE",
"161 288 OFFCURVE",
"205 285 OFFCURVE",
"204 253 CURVE",
"203 235 OFFCURVE",
"160 189 OFFCURVE",
"138 186 CURVE",
"115 184 OFFCURVE",
"89 183 OFFCURVE",
"84 195 CURVE"
);
},
{
closed = 1;
nodes = (
"227 237 OFFCURVE",
"225 330 OFFCURVE",
"232 369 CURVE",
"243 432 OFFCURVE",
"284 463 OFFCURVE",
"307 461 CURVE",
"340 457 OFFCURVE",
"364 402 OFFCURVE",
"360 386 CURVE",
"357 375 OFFCURVE",
"338 377 OFFCURVE",
"326 371 CURVE",
"314 364 OFFCURVE",
"301 346 OFFCURVE",
"291 332 CURVE",
"275 310 OFFCURVE",
"227 237 OFFCURVE",
"227 237 CURVE"
);
}
);
width = 746;
}
);
unicode = 308D;
},
{
glyphname = "wa-hira";
lastChange = "2020-04-30 23:33:25 +0000";
layers = (
{
layerId = "1305C52C-0BD1-483E-A343-C05F3AFF2931";
paths = (
{
closed = 1;
nodes = (
"410 182 OFFCURVE",
"424 193 OFFCURVE",
"435 196 CURVE",
"447 199 OFFCURVE",
"467 198 OFFCURVE",
"479 184 CURVE",
"490 174 OFFCURVE",
"500 119 OFFCURVE",
"483 104 CURVE",
"467 88 OFFCURVE",
"414 81 OFFCURVE",
"388 99 CURVE",
"359 120 OFFCURVE",
"304 174 OFFCURVE",
"305 228 CURVE",
"305 254 OFFCURVE",
"335 279 OFFCURVE",
"360 281 CURVE",
"391 282 OFFCURVE",
"454 234 OFFCURVE",
"485 209 CURVE",
"510 188 OFFCURVE",
"561 134 OFFCURVE",
"561 134 CURVE",
"561 134 OFFCURVE",
"543 200 OFFCURVE",
"534 224 CURVE",
"526 243 OFFCURVE",
"508 255 OFFCURVE",
"509 279 CURVE",
"510 307 OFFCURVE",
"521 323 OFFCURVE",
"529 324 CURVE",
"545 324 OFFCURVE",
"551 296 OFFCURVE",
"552 280 CURVE",
"553 264 OFFCURVE",
"550 245 OFFCURVE",
"554 228 CURVE",
"559 206 OFFCURVE",
"571 168 OFFCURVE",
"584 145 CURVE",
"597 124 OFFCURVE",
"633 105 OFFCURVE",
"634 89 CURVE",
"635 72 OFFCURVE",
"605 42 OFFCURVE",
"589 45 CURVE",
"572 47 OFFCURVE",
"563 97 OFFCURVE",
"537 126 CURVE",
"521 144 OFFCURVE",
"489 178 OFFCURVE",
"457 204 CURVE",
"431 225 OFFCURVE",
"385 254 OFFCURVE",
"366 254 CURVE",
"344 254 OFFCURVE",
"335 238 OFFCURVE",
"335 219 CURVE",
"335 205 OFFCURVE",
"349 180 OFFCURVE",
"360 166 CURVE",
"370 155 OFFCURVE",
"388 139 OFFCURVE",
"399 138 CURVE",
"412 137 OFFCURVE",
"427 141 OFFCURVE",
"427 149 CURVE",
"428 158 OFFCURVE",
"410 166 OFFCURVE",
"410 174 CURVE"
);
},
{
closed = 1;
nodes = (
"302 546 OFFCURVE",
"321 593 OFFCURVE",
"345 617 CURVE",
"360 632 OFFCURVE",
"382 654 OFFCURVE",
"399 655 CURVE",
"440 656 OFFCURVE",
"432 597 OFFCURVE",
"443 576 CURVE",
"460 545 OFFCURVE",
"507 500 OFFCURVE",
"530 466 CURVE",
"562 418 OFFCURVE",
"620 290 OFFCURVE",
"620 290 CURVE",
"620 290 OFFCURVE",
"545 386 OFFCURVE",
"504 434 CURVE",
"464 480 OFFCURVE",
"419 526 OFFCURVE",
"368 546 CURVE",
"353 552 OFFCURVE",
"321 525 OFFCURVE",
"313 534 CURVE"
);
},
{
closed = 1;
nodes = (
"23 283 OFFCURVE",
"50 336 OFFCURVE",
"73 373 CURVE",
"92 402 OFFCURVE",
"109 434 OFFCURVE",
"137 432 CURVE",
"169 430 OFFCURVE",
"158 398 OFFCURVE",
"173 390 CURVE",
"194 380 OFFCURVE",
"236 365 OFFCURVE",
"282 364 CURVE",
"380 362 OFFCURVE",
"706 362 OFFCURVE",
"798 363 CURVE",
"812 364 OFFCURVE",
"829 378 OFFCURVE",
"852 377 CURVE",
"865 377 OFFCURVE",
"888 380 OFFCURVE",
"890 369 CURVE",
"891 359 OFFCURVE",
"865 321 OFFCURVE",
"848 319 CURVE",
"835 317 OFFCURVE",
"813 316 OFFCURVE",
"801 317 CURVE",
"792 318 OFFCURVE",
"777 329 OFFCURVE",
"768 329 CURVE",
"662 332 OFFCURVE",
"276 338 OFFCURVE",
"166 334 CURVE",
"146 333 OFFCURVE",
"128 315 OFFCURVE",
"110 305 CURVE",
"88 294 OFFCURVE",
"40 260 OFFCURVE",
"32 271 CURVE"
);
}
);
width = 920;
}
);
unicode = 308F;
},
{
glyphname = "wo-hira";
lastChange = "2020-04-30 23:33:18 +0000";
layers = (
{
layerId = "1305C52C-0BD1-483E-A343-C05F3AFF2931";
paths = (
{
closed = 1;
nodes = (
"25 332 OFFCURVE",
"35 362 OFFCURVE",
"43 381 CURVE",
"51 399 OFFCURVE",
"68 424 OFFCURVE",
"86 422 CURVE",
"102 420 OFFCURVE",
"112 398 OFFCURVE",
"128 378 CURVE",
"145 357 OFFCURVE",
"161 339 OFFCURVE",
"176 324 CURVE",
"205 296 OFFCURVE",
"255 253 OFFCURVE",
"255 253 CURVE",
"255 253 OFFCURVE",
"253 310 OFFCURVE",
"274 336 CURVE",
"337 410 OFFCURVE",
"425 408 OFFCURVE",
"480 397 CURVE",
"619 368 OFFCURVE",
"803 407 OFFCURVE",
"801 555 CURVE",
"800 658 OFFCURVE",
"746 714 OFFCURVE",
"746 714 CURVE",
"746 714 OFFCURVE",
"873 623 OFFCURVE",
"872 527 CURVE",
"870 415 OFFCURVE",
"755 326 OFFCURVE",
"624 323 CURVE",
"557 321 OFFCURVE",
"472 355 OFFCURVE",
"416 352 CURVE",
"338 349 OFFCURVE",
"288 313 OFFCURVE",
"290 270 CURVE",
"292 211 OFFCURVE",
"353 205 OFFCURVE",
"365 184 CURVE",
"372 173 OFFCURVE",
"356 152 OFFCURVE",
"343 153 CURVE",
"282 156 OFFCURVE",
"283 196 OFFCURVE",
"258 218 CURVE",
"220 250 OFFCURVE",
"129 335 OFFCURVE",
"94 337 CURVE",
"79 337 OFFCURVE",
"79 317 OFFCURVE",
"72 313 CURVE",
"64 307 OFFCURVE",
"40 306 OFFCURVE",
"34 317 CURVE"
);
},
{
closed = 1;
nodes = (
"89 165 OFFCURVE",
"136 165 OFFCURVE",
"134 193 CURVE",
"133 214 OFFCURVE",
"82 278 OFFCURVE",
"82 278 CURVE",
"82 278 OFFCURVE",
"118 257 OFFCURVE",
"135 247 CURVE",
"157 233 OFFCURVE",
"200 232 OFFCURVE",
"208 193 CURVE",
"213 173 OFFCURVE",
"182 130 OFFCURVE",
"160 127 CURVE",
"136 125 OFFCURVE",
"87 144 OFFCURVE",
"88 155 CURVE"
);
},
{
closed = 1;
nodes = (
"504 133 OFFCURVE",
"525 150 OFFCURVE",
"537 153 CURVE",
"549 156 OFFCURVE",
"569 152 OFFCURVE",
"577 143 CURVE",
"587 132 OFFCURVE",
"592 110 OFFCURVE",
"592 85 CURVE",
"592 65 OFFCURVE",
"577 31 OFFCURVE",
"533 31 CURVE",
"482 32 OFFCURVE",
"434 73 OFFCURVE",
"413 106 CURVE",
"392 138 OFFCURVE",
"389 212 OFFCURVE",
"404 232 CURVE",
"418 251 OFFCURVE",
"468 246 OFFCURVE",
"496 233 CURVE",
"525 220 OFFCURVE",
"556 191 OFFCURVE",
"582 168 CURVE",
"610 143 OFFCURVE",
"671 83 OFFCURVE",
"671 83 CURVE",
"671 83 OFFCURVE",
"656 129 OFFCURVE",
"647 152 CURVE",
"633 185 OFFCURVE",
"611 213 OFFCURVE",
"610 236 CURVE",
"608 260 OFFCURVE",
"622 296 OFFCURVE",
"638 296 CURVE",
"660 296 OFFCURVE",
"662 260 OFFCURVE",
"663 239 CURVE",
"664 172 OFFCURVE",
"680 122 OFFCURVE",
"692 100 CURVE",
"720 48 OFFCURVE",
"748 58 OFFCURVE",
"749 37 CURVE",
"750 19 OFFCURVE",
"721 -14 OFFCURVE",
"707 -14 CURVE",
"676 -16 OFFCURVE",
"680 29 OFFCURVE",
"664 48 CURVE",
"640 76 OFFCURVE",
"596 128 OFFCURVE",
"562 156 CURVE",
"533 180 OFFCURVE",
"482 211 OFFCURVE",
"453 214 CURVE",
"437 215 OFFCURVE",
"419 202 OFFCURVE",
"419 177 CURVE",
"421 137 OFFCURVE",
"472 86 OFFCURVE",
"501 83 CURVE",
"512 82 OFFCURVE",
"525 85 OFFCURVE",
"525 99 CURVE",
"525 106 OFFCURVE",
"505 115 OFFCURVE",
"505 124 CURVE"
);
}
);
width = 902;
}
);
unicode = 3092;
},
{
glyphname = "n-hira";
lastChange = "2020-04-30 23:33:09 +0000";
layers = (
{
layerId = "1305C52C-0BD1-483E-A343-C05F3AFF2931";
paths = (
{
closed = 1;
nodes = (
"48 176 OFFCURVE",
"122 169 OFFCURVE",
"120 200 CURVE",
"117 245 OFFCURVE",
"30 358 OFFCURVE",
"30 445 CURVE",
"30 501 OFFCURVE",
"52 583 OFFCURVE",
"98 582 CURVE",
"191 580 OFFCURVE",
"250 409 OFFCURVE",
"358 408 CURVE",
"477 407 OFFCURVE",
"525 510 OFFCURVE",
"525 510 CURVE",
"525 510 OFFCURVE",
"489 361 OFFCURVE",
"355 368 CURVE",
"238 374 OFFCURVE",
"171 505 OFFCURVE",
"116 505 CURVE",
"89 504 OFFCURVE",
"69 482 OFFCURVE",
"71 444 CURVE",
"76 316 OFFCURVE",
"194 237 OFFCURVE",
"195 190 CURVE",
"196 157 OFFCURVE",
"154 121 OFFCURVE",
"129 119 CURVE",
"104 117 OFFCURVE",
"51 149 OFFCURVE",
"50 163 CURVE"
);
}
);
width = 555;
}
);
unicode = 3093;
},
{
glyphname = zero;
lastChange = "2019-12-15 13:44:06 +0000";
layers = (
{
layerId = "1305C52C-0BD1-483E-A343-C05F3AFF2931";
paths = (
{
closed = 1;
nodes = (
"172 281 LINE",
"183 280 OFFCURVE",
"213 260 OFFCURVE",
"229 240 CURVE",
"246 221 OFFCURVE",
"272 204 OFFCURVE",
"254 167 CURVE",
"249 155 OFFCURVE",
"217 166 OFFCURVE",
"205 159 CURVE",
"187 148 OFFCURVE",
"123 73 OFFCURVE",
"79 73 CURVE",
"49 73 OFFCURVE",
"27 133 OFFCURVE",
"30 167 CURVE",
"37 268 OFFCURVE",
"127 332 OFFCURVE",
"189 360 CURVE",
"251 386 OFFCURVE",
"360 390 OFFCURVE",
"398 324 CURVE",
"469 203 OFFCURVE",
"393 109 OFFCURVE",
"342 63 CURVE",
"249 -25 OFFCURVE",
"141 21 OFFCURVE",
"141 21 CURVE",
"141 21 OFFCURVE",
"193 26 OFFCURVE",
"217 33 CURVE",
"272 49 OFFCURVE",
"357 119 OFFCURVE",
"373 207 CURVE",
"383 262 OFFCURVE",
"362 335 OFFCURVE",
"290 341 CURVE",
"244 347 OFFCURVE",
"164 335 OFFCURVE",
"127 308 CURVE",
"87 281 OFFCURVE",
"59 215 OFFCURVE",
"59 181 CURVE",
"59 158 OFFCURVE",
"74 121 OFFCURVE",
"95 122 CURVE",
"128 125 OFFCURVE",
"176 185 OFFCURVE",
"177 208 CURVE",
"178 228 OFFCURVE",
"166 236 OFFCURVE",
"165 246 CURVE",
"164 257 OFFCURVE",
"162 282 OFFCURVE",
"172 281 CURVE"
);
}
);
width = 457;
}
);
unicode = 0030;
},
{
glyphname = one;
lastChange = "2019-12-15 13:45:54 +0000";
layers = (
{
layerId = "1305C52C-0BD1-483E-A343-C05F3AFF2931";
paths = (
{
closed = 1;
nodes = (
"194 732 LINE",
"196 737 OFFCURVE",
"213 728 OFFCURVE",
"223 726 CURVE",
"235 723 OFFCURVE",
"259 721 OFFCURVE",
"272 712 CURVE",
"289 701 OFFCURVE",
"314 672 OFFCURVE",
"314 658 CURVE",
"314 645 OFFCURVE",
"295 627 OFFCURVE",
"283 627 CURVE",
"271 624 OFFCURVE",
"260 634 OFFCURVE",
"248 634 CURVE",
"186 633 OFFCURVE",
"170 568 OFFCURVE",
"170 548 CURVE",
"170 495 OFFCURVE",
"169 389 OFFCURVE",
"170 306 CURVE",
"174 82 OFFCURVE",
"30 1 OFFCURVE",
"30 1 CURVE",
"30 1 OFFCURVE",
"95 80 OFFCURVE",
"110 121 CURVE",
"130 171 OFFCURVE",
"145 240 OFFCURVE",
"146 298 CURVE",
"146 359 OFFCURVE",
"148 433 OFFCURVE",
"147 474 CURVE",
"146 497 OFFCURVE",
"140 521 OFFCURVE",
"140 545 CURVE",
"142 660 OFFCURVE",
"199 689 OFFCURVE",
"206 700 CURVE",
"210 712 OFFCURVE",
"192 727 OFFCURVE",
"194 732 CURVE"
);
}
);
width = 344;
}
);
unicode = 0031;
},
